<svg xmlns="http://www.w3.org/2000/svg" viewBox="0 0 238 410"><title>Asset 1</title><path d="M229,410H9a9,9,0,0,1-9-9V9A9,9,0,0,1,9,0H229a9,9,0,0,1,9,9V401A9,9,0,0,1,229,410ZM9,2A7,7,0,0,0,2,9V401a7,7,0,0,0,7,7H229a7,7,0,0,0,7-7V9a7,7,0,0,0-7-7Z" style="fill:#3f3d56"/><path d="M194,157H44a6,6,0,0,1,0-12H194a6,6,0,0,1,0,12Z" style="fill:#ccc"/><path d="M194,184H44a6,6,0,0,1,0-12H194a6,6,0,0,1,0,12Z" style="fill:#ccc"/><path d="M194,211H44a6,6,0,0,1,0-12H194a6,6,0,0,1,0,12Z" style="fill:#ccc"/><path d="M140.6,130H92.1a11,11,0,0,1,0-22h48.5a11,11,0,1,1,0,22Z" style="fill:#509d50"/><path d="M73,302a21.79,21.79,0,1,1,21.79-21.78h0A21.81,21.81,0,0,1,73,302Zm0-41.28a19.5,19.5,0,1,0,19.5,19.5A19.5,19.5,0,0,0,73,260.71Z" style="fill:#3f3d56"/><path d="M73,287.75a2.47,2.47,0,0,1-1.76-.74l-8-8a2.5,2.5,0,0,1,0-3.54h0l.41-.41a2.5,2.5,0,0,1,3.54,0l4.15,4.15a1.51,1.51,0,0,0,2.12,0,1.63,1.63,0,0,0,.17-.2l17.69-25.15a2.51,2.51,0,0,1,3.49-.61l.48.34a2.5,2.5,0,0,1,.6,3.49h0L75.05,286.69a2.55,2.55,0,0,1-1.83,1.05Z" style="fill:#509d50"/><path d="M159,302a21.79,21.79,0,1,1,21.78-21.78h0A21.8,21.8,0,0,1,159,302Zm0-41.28a19.5,19.5,0,1,0,19.49,19.5h0A19.5,19.5,0,0,0,159,260.71Z" style="fill:#3f3d56"/><path d="M166,290.17h0a2.47,2.47,0,0,1-1.76-.73L160,285.28a1.54,1.54,0,0,0-2.13,0l-4.15,4.16a2.47,2.47,0,0,1-1.76.73h0a2.48,2.48,0,0,1-1.76-.73l-.42-.41a2.52,2.52,0,0,1,0-3.54l4.17-4.18a1.49,1.49,0,0,0,0-2.11l-4.26-4.28a2.51,2.51,0,0,1,0-3.54l.41-.41a2.51,2.51,0,0,1,1.77-.73h0a2.46,2.46,0,0,1,1.77.74l4.24,4.25a1.54,1.54,0,0,0,2.13,0l4.24-4.25a2.46,2.46,0,0,1,1.77-.74h0a2.51,2.51,0,0,1,1.77.73l.41.41a2.51,2.51,0,0,1,0,3.54L164,279.19a1.51,1.51,0,0,0,0,2.12l4.17,4.18a2.52,2.52,0,0,1,0,3.54l-.42.41A2.48,2.48,0,0,1,166,290.17Z" style="fill:#ccc"/></svg>