<svg xmlns="http://www.w3.org/2000/svg" viewBox="0 0 238 281.78"><title>Asset 2</title><path d="M229,281.78H9c-5,0-9-2.77-9-6.19V6.19C0,2.77,4,0,9,0H229c5,0,9,2.77,9,6.19v269.4C238,279,234,281.78,229,281.78ZM9,1.37c-3.86,0-7,2.16-7,4.82v269.4c0,2.66,3.14,4.81,7,4.82H229c3.86,0,7-2.16,7-4.82V6.19c0-2.66-3.14-4.81-7-4.82Z" style="fill:#3f3d56"/><path d="M194,92.9H44a6,6,0,0,1,0-12H194a6,6,0,0,1,0,12Z" style="fill:#ccc"/><path d="M194,119.9H44a6,6,0,0,1,0-12H194a6,6,0,0,1,0,12Z" style="fill:#ccc"/><path d="M194,146.9H44a6,6,0,0,1,0-12H194a6,6,0,0,1,0,12Z" style="fill:#ccc"/><path d="M140.6,65.9H92.1a11,11,0,1,1,0-22h48.5a11,11,0,0,1,0,22Z" style="fill:#509d50"/><path d="M73,237.88A21.79,21.79,0,1,1,94.75,216.1h0A21.81,21.81,0,0,1,73,237.88Zm0-41.28a19.5,19.5,0,1,0,19.5,19.5A19.5,19.5,0,0,0,73,196.6Z" style="fill:#3f3d56"/><path d="M73,223.64a2.47,2.47,0,0,1-1.76-.74l-8-8a2.5,2.5,0,0,1,0-3.54h0l.41-.41a2.5,2.5,0,0,1,3.54,0l4.15,4.15a1.51,1.51,0,0,0,2.12,0,1.63,1.63,0,0,0,.17-.2l17.69-25.15a2.51,2.51,0,0,1,3.49-.61l.48.34a2.5,2.5,0,0,1,.6,3.49h0L75.05,222.58a2.55,2.55,0,0,1-1.83,1Z" style="fill:#509d50"/><path d="M159,237.88a21.79,21.79,0,1,1,21.78-21.78h0A21.8,21.8,0,0,1,159,237.88Zm0-41.28a19.5,19.5,0,1,0,19.49,19.5h0A19.5,19.5,0,0,0,159,196.6Z" style="fill:#3f3d56"/><path d="M166,226.06h0a2.47,2.47,0,0,1-1.76-.73L160,221.17a1.55,1.55,0,0,0-2.13,0l-4.15,4.17a2.47,2.47,0,0,1-1.76.73h0a2.48,2.48,0,0,1-1.76-.73l-.42-.41a2.52,2.52,0,0,1,0-3.54L154,217.2a1.5,1.5,0,0,0,0-2.12l-4.26-4.27a2.51,2.51,0,0,1,0-3.54l.41-.41a2.51,2.51,0,0,1,1.77-.73h0a2.46,2.46,0,0,1,1.77.74l4.24,4.25a1.54,1.54,0,0,0,2.13,0l4.24-4.25a2.46,2.46,0,0,1,1.77-.74h0a2.51,2.51,0,0,1,1.77.73l.41.41a2.51,2.51,0,0,1,0,3.54L164,215.08a1.51,1.51,0,0,0,0,2.12l4.17,4.18a2.52,2.52,0,0,1,0,3.54l-.42.41A2.48,2.48,0,0,1,166,226.06Z" style="fill:#ccc"/></svg>