<svg xmlns="http://www.w3.org/2000/svg" viewBox="0 0 585.51 685.8"><title>Asset 1</title><path d="M130,684.61V304.8a8.82,8.82,0,0,1,8.82-8.82h39.36A8.82,8.82,0,0,1,187,304.8h0V685.6Z" style="fill:#3f3d56"/><path d="M260,685.8v-302a8.82,8.82,0,0,1,8.82-8.82h39.36A8.82,8.82,0,0,1,317,383.8h0V685.15Z" style="fill:#3f3d56"/><path d="M29,327a3,3,0,0,1-3-3,3,3,0,0,1,.77-2l131.6-146.79,129.52,72.73L418.18,23.44,550.91,132.68a3,3,0,0,1-3.81,4.64h0L419.82,32.56,290.11,256.06,159.63,182.79,31.23,326A3,3,0,0,1,29,327Z" style="fill:#3f3d56"/><circle cx="28.5" cy="324" r="28" style="fill:#00bfa6"/><circle cx="158.5" cy="179" r="28" style="fill:#ccc"/><circle cx="288.5" cy="252" r="28" style="fill:#e6e6e6"/><circle cx="418.5" cy="28" r="28" style="fill:#00bfa6"/><circle cx="557.51" cy="141.24" r="28" style="fill:#00bfa6"/><path d="M520,684.46V246.7c0-5.61,4-10.17,8.82-10.17h39.36c4.87,0,8.82,4.56,8.82,10.17V685.6Z" style="fill:#3f3d56"/><path d="M0,685.05V473.71c0-2.71,4-4.91,8.82-4.91H48.18c4.87,0,8.82,2.2,8.82,4.91V685.6Z" style="fill:#3f3d56"/><path d="M390,684.31V187.54c0-6.37,3.95-11.54,8.82-11.54h39.36c4.87,0,8.82,5.17,8.82,11.54V685.6Z" style="fill:#00bfa6"/></svg>