<svg xmlns="http://www.w3.org/2000/svg" viewBox="0 0 411.5 228"><title>Asset 3</title><path d="M293,52H26A26,26,0,0,1,26,0H293a26,26,0,0,1,0,52Z" style="fill:#e6e6e6"/><path d="M26,8.5a17.5,17.5,0,0,0,0,35H293a17.5,17.5,0,0,0,0-35Z" style="fill:#fff"/><path d="M387.35,1.68a24.15,24.15,0,0,0,0,48.29h0a24.15,24.15,0,0,0,0-48.29Z" style="fill:#509d50"/><path d="M385.06,35.85a2.88,2.88,0,0,1-1.76-.58l0,0-6.64-5.08a3,3,0,0,1,3.58-4.7h0l4.3,3.3,10.16-13.26a3,3,0,0,1,4.14-.55h0l-.06.08.06-.08a3,3,0,0,1,.55,4.13l-12,15.59a3,3,0,0,1-2.34,1.15Z" style="fill:#fff"/><path d="M293,140H26a26,26,0,0,1,0-52H293a26,26,0,0,1,0,52Z" style="fill:#e6e6e6"/><path d="M26,96.5a17.5,17.5,0,0,0,0,35H293a17.5,17.5,0,0,0,0-35Z" style="fill:#fff"/><path d="M387.35,89.68a24.17,24.17,0,0,0,0,48.29h0a24.15,24.15,0,1,0,0-48.29Z" style="fill:#509d50"/><path d="M385.06,123.85a2.88,2.88,0,0,1-1.76-.58l0,0-6.64-5.08a3,3,0,0,1,3.58-4.7h0l4.3,3.3,10.16-13.26a3,3,0,0,1,4.14-.55h0l-.06.08.06-.08a3,3,0,0,1,.55,4.13l-12,15.59a3,3,0,0,1-2.34,1.15Z" style="fill:#fff"/><path d="M293,228H26a26,26,0,0,1,0-52H293a26,26,0,0,1,0,52Z" style="fill:#e6e6e6"/><path d="M26,184.5a17.5,17.5,0,0,0,0,35H293a17.5,17.5,0,0,0,0-35Z" style="fill:#fff"/><path d="M387.35,177.68a24.15,24.15,0,0,0,0,48.29h0a24.15,24.15,0,1,0,0-48.29Z" style="fill:#e6e6e6"/></svg>