<svg xmlns="http://www.w3.org/2000/svg" viewBox="0 0 473.27 485.06"><title>Asset 1</title><path d="M471.13,319.19,188.35,484.47a4.33,4.33,0,0,1-5.91-1.55L.59,171.78a4.32,4.32,0,0,1,1.55-5.91L284.92.59a4.33,4.33,0,0,1,5.92,1.55L472.69,313.28A4.33,4.33,0,0,1,471.13,319.19Z" style="fill:#fff"/><path d="M471.13,319.19,188.35,484.47a4.33,4.33,0,0,1-5.91-1.55L.59,171.78a4.32,4.32,0,0,1,1.55-5.91L284.92.59a4.33,4.33,0,0,1,5.92,1.55L472.69,313.28A4.33,4.33,0,0,1,471.13,319.19ZM3,167.36a2.6,2.6,0,0,0-.93,3.55L183.93,482a2.59,2.59,0,0,0,3.55.93L470.26,317.7a2.6,2.6,0,0,0,.93-3.55L289.34,3a2.59,2.59,0,0,0-3.54-.93Z" style="fill:#3f3d56"/><path d="M184.79,198.34l-70.14,41a4.33,4.33,0,0,1-5.91-1.55l-41-70.14a4.32,4.32,0,0,1,1.55-5.91l70.13-41a4.32,4.32,0,0,1,5.91,1.55l41,70.13A4.32,4.32,0,0,1,184.79,198.34ZM70.17,163.23a2.59,2.59,0,0,0-.93,3.55l41,70.13a2.59,2.59,0,0,0,3.55.93l70.13-41a2.59,2.59,0,0,0,.94-3.54l-41-70.14a2.58,2.58,0,0,0-3.54-.93Z" style="fill:#f2f2f2"/><path d="M169.66,218.7l-70.14,41a3.9,3.9,0,0,1-5.32-1.39l-41-70.14a3.9,3.9,0,0,1,1.39-5.32l70.14-41a3.9,3.9,0,0,1,5.32,1.39l41,70.14A3.9,3.9,0,0,1,169.66,218.7Z" style="fill:#00bfa6"/><path d="M338.94,165.8,119.58,294a3.89,3.89,0,1,1-3.92-6.71h0L335,159.09a3.89,3.89,0,1,1,3.92,6.71Z" style="fill:#ccc"/><path d="M299.49,219.9,133.1,317.14a3.89,3.89,0,1,1-3.93-6.71h0l166.39-97.25a3.89,3.89,0,0,1,3.93,6.72Z" style="fill:#ccc"/><path d="M288.48,81.18l-97,56.69a3.89,3.89,0,1,1-3.93-6.71l97-56.69a3.89,3.89,0,1,1,3.92,6.71Z" style="fill:#ccc"/><path d="M277.79,118.46,205,161a3.89,3.89,0,1,1-3.92-6.71h0l72.79-42.55a3.89,3.89,0,1,1,3.92,6.72Z" style="fill:#ccc"/><path d="M366,212.06,146.62,340.27a3.89,3.89,0,1,1-3.93-6.71h0L362.06,205.35a3.89,3.89,0,1,1,3.92,6.71Z" style="fill:#ccc"/><path d="M326.52,266.16,160.14,363.4a3.89,3.89,0,0,1-3.93-6.71h0L322.6,259.44a3.89,3.89,0,1,1,3.92,6.72Z" style="fill:#ccc"/><path d="M393,258.32,173.66,386.53a3.89,3.89,0,1,1-3.93-6.71h0L389.09,251.61a3.89,3.89,0,1,1,3.93,6.71Z" style="fill:#ccc"/><path d="M406.54,281.45,187.17,409.66a3.89,3.89,0,1,1-3.92-6.71L402.61,274.74a3.89,3.89,0,0,1,3.93,6.71Z" style="fill:#ccc"/><path d="M335.6,371.5A84.85,84.85,0,0,0,343.8,360c2.16-3.65,4.28-7.55,4.76-11.83a11.71,11.71,0,0,0-3.5-10,8.2,8.2,0,0,0-9.64-1.09,9.8,9.8,0,0,0-4.93,8.76,13,13,0,0,0,5.54,9.81c6.48,4.7,16.61,4.45,23.52.88,7.78-4,11.8-14.56,5.69-21.78-1.27-1.5-3.39.18-3.07,1.8a8.72,8.72,0,0,0,17.28-2.14l-2.75,1.61a21,21,0,0,0,20.88-2.24,19.45,19.45,0,0,0,3.91-3.78c1.34-1.75,3.6-2.89,5.43-4.15l13.19-9.11c1.94-1.35.1-4.54-1.86-3.19l-11.94,8.26c-2,1.37-4,2.73-6,4.12-1.41,1-2.28,2.61-3.57,3.79a17.29,17.29,0,0,1-18.25,3.09,1.87,1.87,0,0,0-2.53.76,1.91,1.91,0,0,0-.22.84,5.05,5.05,0,0,1-10,1.19l-3.07,1.79c3.95,4.66,1.32,11.79-3.22,14.91-5.09,3.49-12.6,4.1-18.33,1.93a10.81,10.81,0,0,1-6.36-5.84,6.43,6.43,0,0,1,1.46-7.37,4.63,4.63,0,0,1,6.43-.07,8.28,8.28,0,0,1,2.19,7.46c-.59,3.69-2.63,7.1-4.53,10.26A79.25,79.25,0,0,1,333,368.92c-1.52,1.8,1.1,4.4,2.64,2.58Z" style="fill:#00bfa6"/><path d="M239.21,390.3l5.6-11.08s20.89,5.24,22.78,17.34Z" style="fill:#f1f1f1"/></svg>