<svg xmlns="http://www.w3.org/2000/svg" viewBox="0 0 1000 867"><defs><style>.a{fill:#98daf0;}.a,.b,.c,.d,.e,.f,.g,.h,.i,.j{stroke:#fff;stroke-linecap:round;stroke-linejoin:round;stroke-width:2px;}.b{fill:#3951a3;}.c{fill:#e7e639;}.d{fill:#f79031;}.e{fill:#be5227;}.f{fill:#23cc83;}.g{fill:#685da9;}.h{fill:#058a44;}.i{fill:#3f97d3;}.j{fill:#ee212f;}.k{font-size:40px;font-family:san serif,FranklinGothic-Medium, Franklin Gothic Medium;font-weight:500;}.l{letter-spacing:-0.01em;}</style></defs><title>map</title><polygon class="a" points="724.4 284.4 724.4 285 724.3 285.4 724 285.9 723.9 286.6 723.9 287.5 723.8 288 723.1 289.9 723 290.9 723.2 291.9 723.7 292.6 723.6 293.1 708.9 312 707.8 313.1 706.4 313.7 670.2 319.6 669.7 319.8 667.5 320.1 666.6 321 666.1 322.3 666.2 323.9 666.8 326.8 666.5 330.7 666.8 332.2 667.5 333.4 669.2 335.3 669.8 336.4 669.8 337.4 669.5 338.6 669.4 339.7 669.8 340.5 669.5 341.1 668.9 342 668.3 342.5 668.3 342.4 664.6 342.7 662.8 343.3 659.9 345.4 655.5 347.5 654 347.8 653.1 347.3 651.6 345.7 650.5 345.3 649.3 345.3 648.5 345.6 647.3 346.8 645.6 347.8 641.9 349.1 640.6 350.1 640 351.2 639 354.6 638.7 356.7 638.3 357.5 638.2 358.2 638.5 358.9 641.1 362.2 642.4 362.7 643.7 362.7 644.8 363.2 645.2 364.8 644.9 366.4 644 367.7 642.7 368.5 641.1 368.7 640.5 368.4 639.8 367.7 639.3 367.5 638.8 367.4 637.6 367.5 637 367.5 634.7 366.6 631.2 364.7 630.5 364.5 627.1 364.4 626.1 364.3 625.3 363.9 624.3 363 622.7 361.3 621.9 360.9 614.9 361 612.8 361.6 611 362.4 609.6 363.3 608.7 361.6 607.3 361.8 605.8 362.5 604.6 362.4 603.7 362 603.1 362 602.7 361.8 602.5 360.6 602.3 359.7 595.4 346.9 593.2 344.1 588.1 341.3 587.3 340.3 587 338.6 586 336.9 584.9 335.5 583.8 334.5 580.8 332.9 579.6 332 579.1 330.7 578.9 328.2 578.1 327.5 575.1 328 573.3 327.5 569.1 325.2 568 324.3 566.5 321.1 565.3 320.2 563.3 321.4 563.1 320.6 562.1 318.9 561.7 318.4 560.9 317.7 560.1 317.2 559.2 317.2 558.1 317.8 557.2 316.4 556.5 312.2 555.5 311.3 554.1 310.9 553.4 309.8 552.5 303.7 552.3 302.8 551 301.7 550.5 300.9 550.8 300.5 550.8 299.6 549.4 294.4 548.9 293.6 547.6 292.4 547 291.5 546 288.9 545.5 288.2 545.1 286.9 545 282.2 545.2 280.6 549.6 274.2 549.9 273.8 551.8 272.3 552.3 272 551.6 268.8 552 266.9 552.8 265.6 553.6 264.7 555.2 261.4 555.1 258.4 555.2 257.5 555.4 257 556.1 255.9 556.3 255.1 556.3 254 555.4 249.4 555.5 248.5 556.7 246.8 557.8 244.7 558.1 243.8 558.2 242.9 558 241 558.1 240.2 558.6 239.4 560.1 237.8 560.4 236.9 560.6 236 561.5 234.2 561.7 233.3 561.7 229.4 562.1 227.4 562.9 225.4 564 223.5 565.4 222 566 221.1 566.7 219.2 567.9 217.1 568.3 216.6 568.8 216.4 569.9 216.5 570.4 216.4 571.6 215.4 572.9 214.1 574 212.4 574.5 210.7 574 210.1 572 208.6 571.6 207.7 571.7 206.7 572.2 204.9 572.1 203.8 570.1 201.5 568.9 199.9 568.9 198.7 569.3 197.9 568.6 196.6 568.9 195.8 569.4 195 569.8 194 569.9 192.9 569.8 191.9 569.2 190.2 568.4 188.8 567.7 187.2 567.5 185.1 567.7 183.3 568.2 181.9 568.5 180.5 568 178.8 566.9 178.2 566.7 177.7 566.5 176.8 566.3 176.4 563.4 173.9 564.2 172.3 566.3 169.8 567.6 167.2 568.4 163.8 568.6 156.8 568 150.6 568.3 148.7 571 143.1 571.8 139.4 572.6 137.8 574.2 137.2 574.4 136.8 572.1 134.5 571.9 133.3 571.4 132.7 570.7 132.5 569.8 131.9 568.6 130.2 568.1 128.5 568 124.4 567.8 123.5 567.1 121.7 566.9 120.9 566.5 119.7 564.9 117.8 564.6 117 565 116.6 566.9 115.9 567.5 115.3 564.8 115.3 563.8 114.9 563.3 113.8 563.3 112.3 563.1 111.2 562.8 110.2 562.2 109.3 560.1 107.8 559.1 106.8 558.7 105.4 559 102.6 558.8 101 559.5 102.1 559.7 103.8 559.2 105.1 561 104.8 564.3 103.2 566.6 102.6 567.3 102.2 568.1 102.1 568.9 102.5 569.5 103 570 103.4 570.6 103.3 571.5 102.8 574.7 106.1 576.2 106.8 577.3 104.5 575.7 104 575.7 102.7 576.8 99.8 576.5 98.3 575.6 97 575.6 95.6 576.1 94.5 576.8 93.6 578.5 92.1 579.2 91.2 580.1 89.1 580.8 88 583.2 86.2 584.4 85.1 585.6 81.4 587.2 79.7 590.8 76.7 591.8 75 592.5 73 593.2 71.4 594.6 70.8 596.1 70.3 599.8 68 600.8 67.2 602.1 64.8 604 59.1 607.5 53.3 612.6 40.2 612.8 38.6 612.3 37.2 611 35.5 609.2 33.8 603.7 30.4 600.2 27.8 598.4 26.7 596.4 26.3 594.9 25.7 592.3 23.6 591 23.4 592.9 22.7 603.1 21.1 631.3 16.8 649.2 14 648.6 15.9 646 20.9 645.1 22.4 644.8 22.7 643.6 23.8 642.5 24.6 639.9 25.2 636.6 26.4 635.5 27.1 634.7 28 633.6 29.4 631.2 34.4 630.3 35.9 629.4 36.8 628.9 37.5 626.2 44.1 624.3 52.5 621.5 59.7 621 60.5 619.9 61.8 619.6 62 618.8 62.4 616.2 63.2 615.1 63.8 614.6 64.5 612.7 71.4 612.4 71.8 612 71.9 611 71.9 610.5 72 610.3 72.3 610.1 72.8 609.8 73.8 609.7 74.3 609.5 76.1 609.9 77 610.4 77.5 611.5 78.3 613.1 79 613.9 79.3 614.7 79.8 615.3 80.3 615.9 80.9 616.6 81.4 617.4 81.8 618.2 81.8 618.9 81.6 619.4 81.4 619.9 81.4 620.9 81.9 621.3 82.1 622.3 83.5 622.9 84.6 623.5 85.3 623.9 85.5 625.3 85.9 625.6 86.1 626.4 87 626.8 87.2 627.2 87.1 628 86.7 628.3 86.7 628.6 87 628.8 87.5 628.9 88.5 629.4 89.8 629.6 90.4 629.2 92.5 629.1 93 629.2 93.9 630.7 99.1 630.5 99.9 630.1 100.9 629.9 101.3 629.5 101.6 628.6 101.9 628.3 102.1 628 103 627.8 105.1 628 106.6 628.2 107.3 628.9 108.7 630.7 113.6 631.1 114.3 631.6 114.7 632.6 115.5 632.9 115.7 633.8 115.6 634.6 115.2 635.6 115.1 636.6 115.2 637.5 115.5 638.8 116.6 639 117 640.4 119.7 640.9 120.3 641.9 120.8 642.2 121.1 642.7 121.7 643.2 122 644.2 122.1 644.6 122.4 645 122.9 645.5 123.9 645.9 124.3 646.5 124.6 647.5 124.7 647.9 124.9 649 125.5 649.5 125.6 650.9 125.3 651.3 125.4 653.1 125.9 654.6 126.2 655.5 126.5 657 127.4 659.7 128.3 661.3 128.4 662.1 128.8 662.7 129.4 663 129.6 664.5 129.4 666 129.6 666.5 129.6 667.5 129.4 668.4 129.6 669 130.1 669.2 130.5 670.1 132 671.1 133.5 672.2 134.7 673.2 135.4 673.6 136 674.2 138.1 674.5 138.8 674.9 139.2 675.7 139.5 676.7 139.8 677.9 140.3 678.6 140.8 679 141.6 680 144.6 680.1 145.4 679.7 147.4 677.5 153 677.4 153.5 677.4 154.1 677.7 155.6 679.1 158.9 680 160.4 680.1 161.1 679.8 161.5 678.4 162.6 677.8 163.3 677.3 164 676.8 164.8 676.5 165.7 675.1 172.2 674.8 173.1 674.3 173.7 672.9 174.8 672.2 175.2 671.7 175.3 670.8 175.4 669.1 175.2 668.6 175.1 667.3 174.5 666.4 174.1 665.9 174 662 173.8 660.1 174 659.6 174.2 658 174.9 657.3 175.4 656 176.5 653.3 179.2 652.3 179.9 650.2 180.7 647.2 182.3 644.5 182.9 643.4 183.4 642.6 184 642.2 184.6 641.1 185.8 640.6 186.2 638.1 187.6 637.5 188.2 637.3 188.9 637.1 191.7 636.8 192.5 636.5 193 635.8 193.5 635.3 194.2 633.9 196.6 633.8 197.1 633.9 197.8 634.4 198.8 634.7 199.4 635.3 200.2 635.5 200.6 635 201.7 631.6 206.3 631.2 207.1 631 207.6 630.6 209.6 630.2 210.1 629.7 210.3 629.2 210.4 627.4 210.2 626.9 210.2 626.4 210.5 625.8 211.4 624.9 212.2 614.5 218.8 614.1 219.3 613.9 219.9 614 230.1 613.9 230.7 613.6 231.1 609.8 234.5 608.2 236.5 607.4 237.7 607.3 238.1 607.4 238.4 608.1 238.8 614.6 241.1 615.5 241.7 623.1 249.3 623.5 249.6 624.4 249.8 625.4 249.8 626.8 249.6 627.7 249.8 631.7 252 632.7 252.1 633.1 251.9 633.3 251.5 633.4 251 633.6 248.7 634 246.5 634.1 246 634 245.4 633.2 244.3 632.6 243.6 631.6 242.2 631.3 241.6 631 240.7 630.9 239.8 631 239.1 631.2 238.1 631 237.5 629.4 235.1 628.9 233.7 629.9 232.6 631.3 231.6 654.8 219 655.5 218.9 656 219 656.4 219.2 657.8 220.2 660.6 221.8 663.9 222.9 664.7 223.3 666.3 224.2 666.7 224.6 667.2 225.3 669.5 229.8 670 230.5 670.3 230.7 672.2 232 672.7 232.4 673.2 233 675.5 236.9 675.8 237.8 676 238.7 676.3 243.4 671.3 276.1 671.9 275.6 672.7 274.1 675.2 273.2 675.6 272.6 675.7 271.8 676 270.7 676.5 269.8 677.1 269.1 680 267 681 265.8 681.4 263.9 682 263.2 682.6 262.9 683.8 262.7 694.4 262.8 695.8 263.1 697.2 263.9 723.8 283.1 724.1 283.5 724.4 284.4"/><polygon class="b" points="884.2 108.2 874.9 107.5 866.3 105.3 857.8 104.6 847.7 106.1 840.6 109.7 834.9 113.3 828.4 114 822 111.9 819.8 117.7 814.1 115 807.7 115.5 802 111.9 797.7 114.8 792.7 119.1 788.4 121.3 786.2 126.4 780.5 133.6 786.9 140.2 793.4 151.1 797 160.5 799.8 170.7 806.3 175.1 814.8 178.7 817.7 181.6 818 203.3 812.5 204.4 812.1 204.1 811.7 203.4 811.1 202.8 810.1 202.6 809.3 203.1 808.6 204.7 808.1 205 807 205.3 804.1 206.9 802.5 207.4 800.3 207.7 799.4 208 799 208.9 799.6 209.6 799.7 210.2 799.3 210.4 798 210.4 797.4 210.7 797.2 211.3 797.5 214.8 797.2 215.7 796.6 216.4 794.9 217.4 794.3 218.1 793.3 217.3 791.7 216.7 789.9 216.4 788.5 216.3 786.9 216.6 785.7 217.2 781.9 220 782.1 220.6 783.2 221.7 783.7 222.4 783.9 223 784.2 223.3 785.2 223.4 785.9 223.2 786.5 222.9 787.2 222.9 787.8 223.4 788.2 225.3 786.8 225.9 783.7 225.8 783 226.6 782.9 227.5 783.3 228.3 785.1 230.2 785.4 230.7 784.9 231.8 784.5 232.3 783.9 232.8 783.4 233.4 783.2 234.5 779.4 237.8 778.1 238.4 776.2 238.4 777 237.5 777.3 236.7 777.2 235.7 776.7 234.8 775.8 234 775.4 234.8 775.3 236.9 774 237.3 772.5 236.8 771.7 235.8 772.6 234.8 770.9 234.8 769.8 236.9 769 239.7 768.3 241.7 767.5 242.1 765.1 243 764.2 243.1 763.6 243.3 762.7 243.8 761.7 244.2 760.4 244.3 762.1 246.1 761.7 246.9 760.5 246.7 759.5 245.5 758.7 245.8 757.9 246.6 757.5 247.6 757.3 248.5 755.7 251.5 748.8 260.3 746.9 264 746.2 266.2 745.7 267 743.7 268.8 743.3 269.1 742.4 270.2 741.9 270.5 740 270.2 739 270.1 738.2 270.5 737.5 271.3 737 272.2 736.5 273.9 736.1 274.7 735.6 275.3 734.9 275.7 733.8 275.9 732.3 276.5 731.5 278.1 730.9 280.1 730 281.9 726.8 284.5 724.3 285.4 724.4 285 724.4 284.4 724.1 283.5 723.8 283.1 697.2 263.9 695.8 263.1 694.4 262.8 683.8 262.7 682.6 262.9 682 263.2 681.4 263.9 681 265.8 680 267 677.1 269.1 676.5 269.8 676 270.7 675.7 271.8 675.6 272.6 675.2 273.2 672.7 274.1 671.9 275.6 671.3 276.1 676.3 243.4 676 238.7 675.8 237.8 675.5 236.9 673.2 233 672.7 232.4 672.2 232 670.3 230.7 670 230.5 669.5 229.8 667.2 225.3 666.7 224.6 666.3 224.2 664.7 223.3 663.9 222.9 660.6 221.8 657.8 220.2 656.4 219.2 656 219 655.5 218.9 654.8 219 631.3 231.6 629.9 232.6 628.9 233.7 629.4 235.1 631 237.5 631.2 238.1 631 239.1 630.9 239.8 631 240.7 631.3 241.6 631.6 242.2 632.6 243.6 633.2 244.3 634 245.4 634.1 246 634 246.5 633.6 248.7 633.4 251 633.3 251.5 633.1 251.9 632.7 252.1 631.7 252 627.7 249.8 626.8 249.6 625.4 249.8 624.4 249.8 623.5 249.6 623.1 249.3 615.5 241.7 614.6 241.1 608.1 238.8 607.4 238.4 607.3 238.1 607.4 237.7 608.2 236.5 609.8 234.5 613.6 231.1 613.9 230.7 614 230.1 613.9 219.9 614.1 219.3 614.5 218.8 624.9 212.2 625.8 211.4 626.4 210.5 626.9 210.2 627.4 210.2 629.2 210.4 629.7 210.3 630.2 210.1 630.6 209.6 631 207.6 631.2 207.1 631.6 206.3 635 201.7 635.5 200.6 635.3 200.2 634.7 199.4 634.4 198.8 633.9 197.8 633.8 197.1 633.9 196.6 635.3 194.2 635.8 193.5 636.5 193 636.8 192.5 637.1 191.7 637.3 188.9 637.5 188.2 638.1 187.6 640.6 186.2 641.1 185.8 642.2 184.6 642.6 184 643.4 183.4 644.5 182.9 647.2 182.3 650.2 180.7 652.3 179.9 653.3 179.2 656 176.5 657.3 175.4 658 174.9 659.6 174.2 660.1 174 662 173.8 665.9 174 666.4 174.1 667.3 174.5 668.6 175.1 669.1 175.2 670.8 175.4 671.7 175.3 672.2 175.2 672.9 174.8 674.3 173.7 674.8 173.1 675.1 172.2 676.5 165.7 676.8 164.8 677.3 164 677.8 163.3 678.4 162.6 679.8 161.5 680.1 161.1 680 160.4 679.1 158.9 677.7 155.6 677.4 154.1 677.4 153.5 677.5 153 679.7 147.4 680.1 145.4 680 144.6 679 141.6 678.6 140.8 677.9 140.3 676.7 139.8 675.7 139.5 674.9 139.2 674.5 138.8 674.2 138.1 673.6 136 673.2 135.4 672.2 134.7 671.1 133.5 670.1 132 669.2 130.5 669 130.1 668.4 129.6 667.5 129.4 666.5 129.6 666 129.6 664.5 129.4 663 129.6 662.7 129.4 662.1 128.8 661.3 128.4 659.7 128.3 657 127.4 655.5 126.5 654.6 126.2 653.1 125.9 651.3 125.4 650.9 125.3 649.5 125.6 649 125.5 647.9 124.9 647.5 124.7 646.5 124.6 645.9 124.3 645.5 123.9 645 122.9 644.6 122.4 644.2 122.1 643.2 122 642.7 121.7 642.2 121.1 641.9 120.8 640.9 120.3 640.4 119.7 639 117 638.8 116.6 637.5 115.5 636.6 115.2 635.6 115.1 634.6 115.2 633.8 115.6 632.9 115.7 632.6 115.5 631.6 114.7 631.1 114.3 630.7 113.6 628.9 108.7 628.2 107.3 628 106.6 627.8 105.1 628 103 628.3 102.1 628.6 101.9 629.5 101.6 629.9 101.3 630.1 100.9 630.5 99.9 630.7 99.1 629.2 93.9 629.1 93 629.2 92.5 629.6 90.4 629.4 89.8 628.9 88.5 628.8 87.5 628.6 87 628.3 86.7 628 86.7 627.2 87.1 626.8 87.2 626.4 87 625.6 86.1 625.3 85.9 623.9 85.5 623.5 85.3 622.9 84.6 622.3 83.5 621.3 82.1 620.9 81.9 619.9 81.4 619.4 81.4 618.9 81.6 618.2 81.8 617.4 81.8 616.6 81.4 615.9 80.9 615.3 80.3 614.7 79.8 613.9 79.3 613.1 79 611.5 78.3 610.4 77.5 609.9 77 609.5 76.1 609.7 74.3 609.8 73.8 610.1 72.8 610.3 72.3 610.5 72 611 71.9 612 71.9 612.4 71.8 612.7 71.4 614.6 64.5 615.1 63.8 616.2 63.2 618.8 62.4 619.6 62 619.9 61.8 621 60.5 621.5 59.7 624.3 52.5 626.2 44.1 628.9 37.5 629.4 36.8 630.3 35.9 631.2 34.4 633.6 29.4 634.7 28 635.5 27.1 636.6 26.4 639.9 25.2 642.5 24.6 643.6 23.8 644.8 22.7 645.1 22.4 646 20.9 648.6 15.9 649.2 14 673.3 10.3 713.2 4.2 734.1 1 734.1 3.8 733.7 5 733.3 6 733.3 6.9 734.1 8 731.9 8.6 729.4 9.8 727 11.3 725.3 13.3 724 16 723.2 19.3 723.5 22.1 725.9 23.9 725.6 25.8 727 26.5 729.2 26.2 732.4 24.8 733.8 25.2 734.4 26.4 733.4 28.1 733.7 28.4 734.1 29.2 733 29.8 731.6 30.8 730.6 31.8 730.8 32.2 732.2 32.1 733.3 31.8 735.2 31 736.9 30.1 738.7 28.8 740.4 27.1 741.6 25.1 740.9 25.4 740.4 25.5 739.4 25.1 739.9 23.9 740.5 23.6 741.3 23.4 743.1 23.4 743.8 23.7 743.9 24.3 743.4 26 743.7 27.2 744.5 27.4 745.5 27.2 746.4 27.5 746.8 28 747.1 28.7 747.4 29.3 748.1 29.9 749.8 30.1 751.7 30 753.3 30.2 754.5 32.3 758.7 35.2 772.9 50.9 774.5 51 776.4 50.1 778.2 48.8 779.6 48.2 779.5 47.4 779.6 46.6 779.9 46.1 781.1 45.6 781.7 44.5 782 44.1 783 43.2 783.5 43 784 44.6 785.3 45.6 785.6 46.5 786.7 45.7 787.4 44.3 787.7 42.8 787.8 41.4 787.7 40.7 786.9 39.3 786.7 38.7 786.9 38.1 787.7 36.8 787.8 36.1 787.4 34.7 785.4 33.5 785 32.7 786.4 32 788.4 32 789.4 32.7 791 34.9 792 35.6 793 35.7 793.8 35.5 794.4 35 798.8 33.5 799.8 33.2 800.4 33 800.7 32.7 800.9 32.6 801.7 33 802 33.5 802.3 35.1 802.6 35.7 803.7 36.5 804.8 36.6 806 36.5 807.3 36.6 808.6 37.2 810.4 39.4 811.8 40.2 815.1 41.2 816.8 42.6 817.4 44.8 817.4 48 818 51.7 820 54.4 828.2 60.7 829.6 61.3 831.4 61.3 833.1 60.7 836 59.1 838 58.9 850.7 62.4 849.1 65.9 849.1 70.2 850.8 73.6 854.5 74.5 856.2 73.7 857.5 72.8 858.8 72.2 861 72.5 863.5 74 864.4 74.2 865.2 74.1 866.8 73.7 867.6 73.8 869.3 74.7 872.5 77.9 874.2 79.2 875.9 79.8 879.2 90.1 883.5 99.5 884.2 108.2"/><polygon class="c" points="807.4 447.3 807.4 454.6 805.5 456 801.4 456.9 799.6 458 796.1 460.7 795 461.8 794.4 461.4 793.6 461.3 792.9 461.5 792.6 462.1 792.2 463.3 790.6 465.3 789.8 467.5 788.7 467.7 786.4 467.1 785.6 467.4 784.6 468.7 782.3 469.7 781.3 471.5 779.8 477.8 779.2 479.1 777.1 481.3 776.9 481.4 775.6 482.9 776 484.3 775.1 485 772.7 485.3 771.7 485.8 769.4 487.4 768.3 487.7 767.6 488.4 767.7 489.8 767.3 491.3 765.4 491.9 765.4 492.3 764 494.3 762.6 495.6 762 496.3 761.6 497.4 760.8 497.8 760 498.1 693.8 498.2 693.7 498.5 694.5 499 695.5 499.3 697.2 499.5 697.7 499.6 698.1 499.9 698.5 500.8 700.8 507.8 701.2 508.4 701.6 508.7 703.9 509.6 707.9 510.8 708.8 511.2 709.2 511.4 710.1 512.4 711.3 513 711.9 514.2 712.4 514.9 712.7 515.8 712.8 516.8 712.6 518.2 712.2 519.3 711.8 520.2 710.9 521.7 710.3 522.5 709.4 523.2 707.1 524.4 706.4 524.9 705.2 526.2 704.5 526.6 704.1 527 703.8 527.5 703.4 528.5 703 529.1 702.4 529.8 699.9 531.9 696.6 536.4 695.9 537.1 695.5 537.4 694.5 537.4 693.5 537.2 693 537.3 692.6 537.5 692.2 538.1 691.9 538.9 691.7 540.1 691.4 540.8 690.9 541.4 690 541.9 689.3 542.3 688.4 543.2 687.8 544.8 687.6 546.7 687.1 548.3 686.8 548.5 686.5 549.1 686.1 550 685.5 553.3 684.9 557.8 685.5 558.7 687.3 560.3 689.4 562.8 689.8 563.4 685.5 563.1 684.7 562.7 683.5 561.5 682.4 561.5 681.3 561.8 680.5 562.3 679.7 562.4 678.9 562.7 678.3 562.4 677.7 561.8 677.3 561.9 676.8 562.6 676.2 564.3 676 564.7 675.5 565.4 675 565.7 674.2 566 672.9 566.1 672.1 566.1 671.4 566 670 565.6 669.4 565.7 668.9 566 667.2 567.4 666.8 567.7 666.3 567.8 664.4 567.6 663.9 567.7 657.2 570.4 656.7 570.7 656.2 571.3 655.5 571.9 650.4 574.7 649.7 575.3 649.3 575.6 646.5 575.7 646 575.6 645.4 575.7 644.6 576.2 643.4 578 643 579.1 642.7 581.1 641.7 584.8 639.3 589.2 633.7 590.3 626.7 590.5 619.6 588.6 604.6 593.3 600.2 594.1 595.6 596.1 585 605.7 578.2 608 570.7 608.9 563.3 609.1 549.3 605.4 546.8 606.9 544.1 612.3 541.9 618.6 539.6 622.7 536.9 623.7 532 622.6 517.6 617.9 503 615.5 501.9 615.5 500.9 615.7 500.1 616 495.8 619 495.1 619.9 494.9 620.8 495.4 622.1 496.6 622.9 498.6 623.4 503.2 624.1 504.4 624.6 505.5 625.6 507.7 630 508.9 634 509.2 635.5 509.2 636.8 509 637.3 508.2 638.4 506.7 639.6 497.6 642.2 494 649.9 493.7 650.1 493.1 651 492.8 651.2 492.2 651.1 491.3 650.6 490.8 650.5 489.8 650.6 489.3 650.9 488.5 651.8 487.9 651 487.6 650.3 487.1 649.7 486.2 648.9 485.2 647.9 484.9 647.1 485.1 646.8 486 645.9 486.2 645.6 486.2 645.3 485.7 644.6 485.7 644.1 485.8 642.4 485.7 641.9 485.5 641.5 484.1 640.9 483.8 640.6 483.6 640.2 483.5 639.2 483.3 638.8 482.9 638.4 478.5 637 478 636.7 477.9 636.4 478 635.6 477.9 635.1 477.3 634.9 476.1 635 475.4 635.2 475 635.6 474.8 636.8 474.6 637.2 473.5 637.8 473.3 638.1 472.9 639.6 472.5 640.4 471.7 640.9 470.5 642 469.6 642.3 469.2 642.6 469 642.9 468.6 643.8 468.2 644 467.8 643.9 466.5 643.3 464.8 642.7 464.4 642.8 464.1 643.3 463.8 643.9 456.8 656.8 456.5 657.6 455.1 658.4 454.3 657.1 453.3 656.9 453.3 655.8 448.8 636.5 446.7 635.2 426.7 634.1 425.9 633.9 426.2 633.3 428.3 631.6 428.3 631 427.4 630.2 416.1 623.6 412.7 622.8 407.8 622.2 286.5 618.9 286.6 612.9 286.2 609.6 286.2 608.8 286.4 608.3 286.7 608 289.3 605.6 290.1 604.6 290.5 604.5 291.5 604.4 292.5 604.6 293.1 604.5 293.8 604.1 294.1 603.6 294.2 603 294 600.5 294.1 599.6 294.4 599.2 295.7 597.9 296.9 596 297.4 595 297.7 594.2 297.8 590.4 297.6 589.4 295.1 584.8 294.9 584.2 294.8 583.3 294.9 581.6 295 580.7 295.3 580 296 579.1 296.5 578.3 296.7 577.5 296.8 576.5 297.1 575.4 297.7 574.7 298.1 574.5 299.1 574.2 299.6 573.9 299.7 573.4 299.7 571.9 299.9 569.1 299.4 567.3 299.3 565.9 299.4 565.1 299.6 564.5 300.6 562.9 301.4 560.9 301.9 559.7 303.4 557.4 304.3 556.4 304.9 556 305.5 555.8 307.6 554.5 308.7 553.5 310.2 553.2 311.7 553.2 358.9 559 359.7 559.9 360.4 561.1 361 561.9 361.9 562.4 363.2 562.8 365.4 563.1 369.2 565 369.8 565.6 370.3 566.4 370.9 567.1 371.8 567.4 372.7 567.2 375.6 565.9 376.2 561.3 377.1 559.5 380.6 555.4 386.1 551.1 389.6 545.7 390.4 544.8 391.5 544 392.8 543.4 394.3 543.3 395.1 543.5 396.7 544.3 397.8 544.5 398.3 544.3 398.9 543.4 399.8 543.3 406.9 543.8 408.5 543.3 411.5 541.3 412.7 540.8 423.2 540.4 424.7 539.1 425.1 538.6 425.7 537.2 425.5 527.4 425.3 526.5 425.4 526.1 425.9 525.3 427.4 523.1 427.6 522.7 427.9 521.7 427.8 520.1 427.6 519.1 426.9 517.5 426.2 516.4 422 510.9 421 510.1 417.8 508.3 417.4 507.9 417.3 507.6 417.7 506.9 418.6 506.5 420.3 505.9 421.1 505.5 421.5 505.1 421.7 504.3 421.5 500.9 421.6 498.7 421.9 496.3 422.6 494.4 424.4 491.8 425.3 490.1 425.4 489.6 425.5 488.6 425.4 488.1 425.1 487.8 422.5 486.6 421.8 486.1 421.4 485.8 420.9 485.1 420.4 484.4 420.1 483.1 419.8 482.2 418.8 480.8 418.2 480.2 417.6 479.6 416.8 479.3 451.7 480.4 459 481.4 459.1 481.9 458.8 483.9 459.5 486 460 486.8 461.1 488 461.4 488.3 461.7 489.1 461.9 490.6 462.3 491.9 462.5 493.4 463 495.3 463.3 495.7 463.8 496.2 465 497.2 466.5 496.5 468.8 494.8 470.7 492.6 471.5 490.4 470.9 488.6 470.8 487.3 471.2 486.2 472 485.7 473.1 485.4 474.1 485.7 474.7 487.1 475.1 487.7 475.6 488.2 476.2 488.3 476.7 487.8 476.8 487.2 476.7 486.5 476.8 485.9 479.5 482.3 480.3 481.1 480.3 480.5 480 479.4 480.3 478.7 480.8 478.3 482.2 478.2 482.6 478.1 482.8 476.9 482.5 475.8 482.5 474.6 483.8 473.3 485.8 473.5 486.2 473.7 487.7 474.8 488.6 475.2 489.6 475.5 496.7 476.1 498.4 476.5 499.7 477.7 505.4 492 506.2 493.7 507.3 495.2 509 496.7 510 497.2 510.7 497.3 511.6 497 512.6 496.3 513.2 496.1 513.9 495.9 516.2 495.8 516.9 495.7 518 495.3 519 495.1 523.8 495 526.7 494.7 527.6 494.4 528.3 493.9 529.3 492.9 529.9 492.6 531 492.5 531.7 492.5 532.4 492.6 537.7 494 538.7 494.1 539.5 494.1 541.2 493.6 542.7 493.3 545.5 493.2 546.3 493.3 550.3 494.4 551.9 494.6 557.5 494.2 558.5 493.9 559.3 493.6 560.4 492.9 560.8 492.7 564.1 492.2 571 491.9 571.9 491.6 572.3 491.1 571.7 481.4 571.8 480.9 572.4 480.3 584.6 470.8 585.2 470.2 586.7 468 588.5 466.1 589.2 465.6 592.1 463.8 595.5 462.5 596.2 462 601.7 455.1 605 451.8 605.5 451.1 605.7 450.5 606.3 450.5 608.5 450.1 610.5 450.1 612.4 451 613.2 452.1 613.8 453.4 614.5 454.5 615.8 454.7 616.7 454.2 618.4 452.2 619.5 451.6 621.5 450.7 626.4 447.4 638.5 442.7 640.2 441.6 645.2 436.9 647.1 436.1 649.1 436.2 650.7 437.1 652.1 438.3 653.8 439.3 654.8 439.4 655.6 439.2 656.2 439.2 657 440.2 657.2 441.1 657.1 442 656.7 442.9 656.3 443.5 655.7 444 654.2 444.4 653.6 445 653.4 445.8 653.6 447.5 653.5 448.3 652.9 448.6 652.1 448.8 651.4 449.2 651.4 450.5 651.8 451.5 652.2 452.5 652.8 453.4 653.5 454.1 654.8 454.9 656.7 455.6 660.1 456.5 665.6 456.6 666.9 456.4 668.2 453.6 668.2 405.3 668.3 390 668.3 342.8 670 342.5 670.7 342 671 341.7 671.7 340.6 672.1 339.8 672.4 338.8 672.8 334.3 673.2 333.4 673.4 333.1 674.1 332.5 681 329.6 682.8 329.2 684.8 328.9 685.2 328.9 685.8 329.3 686.5 330 688 331.9 689.6 334.8 689.8 335.7 689.9 337.2 690.2 338.1 690.5 338.7 691.7 340.4 692.1 341.1 692.7 341.8 693.3 342.3 694.5 343.1 695.3 343.5 696 343.7 697 343.9 697.6 344.1 698 344.6 698.8 346.1 699.3 346.6 701.2 347.3 702.2 347.5 702.7 347.6 703.9 348.3 705.3 348.8 706.5 349.5 707.4 349.9 709.5 350.2 709.9 350.4 711.1 351.1 712 351.4 713.5 351.4 714.2 351.6 715 352 716.3 352.7 717.1 352.9 717.7 352.9 719.1 352.7 720.2 352.7 720.7 352.8 721.5 353.5 722 354.4 722.5 355 722.9 355.5 723.7 355.9 724.8 355.9 725.7 355.6 726.7 355.5 727.6 355.6 728.1 355.9 728.6 356.4 729 357.3 729.2 358 729.2 358.7 729.1 362.6 728.9 363.6 728 365.4 727.8 366.3 727.8 367.3 727.9 368.3 728.2 369.2 728.5 369.6 729.1 370.1 730.2 370.8 732.4 371.8 733.2 372.3 733.6 372.7 734.1 373.4 734.4 374.5 734.4 375.2 734.3 375.8 733.6 377.6 733.5 378.6 733.6 379.1 734.2 379.8 735.2 380.8 737.6 382.7 738.8 383.3 739.6 383.6 740.8 383 742.2 382 743.2 380.6 743.6 380.4 744 380.3 744.5 380.6 744.9 381 746 383.6 746.6 384.5 747.2 385.1 748.2 385.8 749.8 386.5 750.6 387.3 750.8 388.1 750.8 389.4 750.4 390.2 749.9 391 748.7 392.3 748.5 392.7 747.6 394.9 747.6 395.8 748.8 400.3 749 401.2 749 401.8 748.6 403.9 748.9 404.5 749.5 405.1 754.7 408.8 756.4 409.6 757.1 410.1 758 410.6 758.5 410.7 759.5 410.7 762.3 410 763.4 410.1 766.4 411 768 411.2 770.3 412 771.1 412.1 772.5 412.1 773.6 412.9 780 419.2 781.1 420 782.7 420 783.2 419.9 784.1 419.6 784.7 419.1 785.2 418.3 786.1 416.3 786.2 415.5 786.3 413.9 786.5 413.4 787 412.8 787.8 412.4 789.5 411.8 793.8 411.8 794.9 411.9 795.4 412.1 798.3 413.6 799.1 414 799.8 414.8 800.3 415.9 800.6 417.3 801.9 436.4 802.5 438.1 804.1 441.3 806.1 443.5 807.1 444.9 807.3 445.8 807.4 447.3"/><polygon class="d" points="605.7 450.5 605.5 451.1 605 451.8 601.7 455.1 596.2 462 595.5 462.5 592.1 463.8 589.2 465.6 588.5 466.1 586.7 468 585.2 470.2 584.6 470.8 572.4 480.3 571.8 480.9 571.7 481.4 572.3 491.1 571.9 491.6 571 491.9 564.1 492.2 560.8 492.7 560.4 492.9 559.3 493.6 558.5 493.9 557.5 494.2 551.9 494.6 550.3 494.4 546.3 493.3 545.5 493.2 542.7 493.3 541.2 493.6 539.5 494.1 538.7 494.1 537.7 494 532.4 492.6 531.7 492.5 531 492.5 529.9 492.6 529.3 492.9 528.3 493.9 527.6 494.4 526.7 494.7 523.8 495 519 495.1 518 495.3 516.9 495.7 516.2 495.8 513.9 495.9 513.2 496.1 512.6 496.3 511.6 497 510.7 497.3 510 497.2 509 496.7 507.3 495.2 506.2 493.7 505.4 492 499.7 477.7 498.4 476.5 496.7 476.1 489.6 475.5 488.6 475.2 487.7 474.8 486.2 473.7 485.8 473.5 483.8 473.3 482.5 474.6 482.5 475.8 482.8 476.9 482.6 478.1 482.2 478.2 480.8 478.3 480.3 478.7 480 479.4 480.3 480.5 480.3 481.1 479.5 482.3 476.8 485.9 476.7 486.5 476.8 487.2 476.7 487.8 476.2 488.3 475.6 488.2 475.1 487.7 474.7 487.1 474.1 485.7 473.1 485.4 472 485.7 471.2 486.2 470.8 487.3 470.9 488.6 471.5 490.4 470.7 492.6 468.8 494.8 466.5 496.5 465 497.2 463.8 496.2 463.3 495.7 463 495.3 462.5 493.4 462.3 491.9 461.9 490.6 461.7 489.1 461.4 488.3 461.1 488 460 486.8 459.5 486 458.8 483.9 459.1 481.9 459 481.4 451.7 480.4 416.8 479.3 413.9 477.4 412.6 476.3 412.3 475.7 411.9 475 411.5 473.9 411.4 472.9 411.8 467.2 412.1 465.8 412.7 464.2 413.2 463.5 413.4 463.1 415.1 461.8 415.6 461.1 415.9 460.4 416.8 456.1 417.1 455.4 417.4 454.9 418.5 454.3 420.2 453.7 421 453.3 421.4 453 421.8 452.4 422.8 450.1 423.4 449.5 425.3 448.6 425.8 448.1 426.3 447.3 427.2 445.8 427.5 444.8 427.7 444.1 427.8 443.6 427.6 442.1 427.4 441.2 426.4 439.2 426.1 437.8 426.1 436.4 426.3 435.5 426.4 434.9 426.9 434.1 427.8 433.2 432.6 430.2 433.3 429.7 434 428.7 434.6 427.8 435.1 426.5 437.5 416.5 437.1 416.2 436.1 416 435.6 416 433.7 416.3 433.2 416.1 432.7 415.8 432.4 415 432.1 414.6 431.4 414.3 431.1 414 430.8 413.2 430.2 412.5 429.9 412.3 429.2 412.1 427.8 412 427.3 411.9 426.2 411.1 425.8 410.9 423.5 410 422.8 409.4 421.9 408.5 421.1 408 420.2 407.6 419.4 407 419.2 406.4 419.1 406 419.2 405.5 420 404.3 420.8 402.5 421.4 401.2 421.5 400.6 421.1 399.8 419.5 398 418.7 397.5 418.3 397.1 418.1 396.3 417.5 395.4 416.8 394.7 416.4 394.3 416.2 393.5 416.2 393 416.8 392 417.1 391.3 417.9 387.5 418.4 386.4 419.1 385.3 419.7 384.6 420.5 384.2 421.4 384 422.9 383.9 424.2 383.4 424.9 382.9 425.5 382.3 426.3 381.3 427.2 379.7 430.2 375.9 430.9 375.4 431.7 375.1 435.1 374.5 436 374 435.8 373.4 435.1 372.6 434.4 370.6 434.2 370 434.1 369.3 434.1 368.1 434.2 367.4 434.4 366.8 435.1 365.5 435.1 362.8 435 362.3 434 359.2 433.8 358.1 434.1 358 434.5 358 436.5 358.4 438.9 358.6 439.6 358.5 441.3 358.1 442.3 358 453 359.1 453.6 358.9 454.1 358.5 455.2 357.2 455.6 356.8 456.8 356.2 457.1 356 458.4 355.3 459.6 353.9 460 353.5 461.7 352.8 462.4 352.3 463.6 351.2 464.3 350.7 465.9 350.2 466.7 350.8 468 351.6 469.2 352.5 469.2 353 469 353.6 469.3 354.1 471.7 354.5 473 355.2 474.2 353.6 475.5 353.1 475.8 352.9 479.5 350.4 479.8 350.1 480.2 350.5 483.9 354.6 486.3 355.3 490.1 355.7 494 355.5 496.7 354.8 498.3 353.5 499.3 352.3 500.4 351.6 502.5 351.8 504.3 352.5 509.1 355.4 510.4 357 510.7 359.2 511.2 361 513.1 361.6 514.7 361.4 516 361.3 522.2 361.9 523 362.4 523.3 363.1 523.5 364 523.9 364.7 526 366.4 527.2 365.9 528.5 364.6 530.6 364.1 532.3 364.8 533.5 366.1 535 367.1 537.3 367.1 539 366.8 540.7 367 542.3 367.4 543.8 368.3 550.8 374.5 552 376.3 553.7 380.7 554.7 382.6 557.6 385.7 558.5 387.3 558.4 389.6 557.4 391.1 556.1 392.1 555.2 393.3 555.8 395.5 557.6 397.9 559.4 399.8 560.8 401.8 561.1 406.4 562 407.2 563.3 407.2 564.6 406.6 565.4 405.6 566.7 403.1 567.8 402.3 571.8 403.2 575.2 406.7 581 414.3 582.5 415.7 583.1 416.6 583.8 419.8 584.2 420.1 585.3 420.6 585.7 420.9 585.6 421.4 585.2 422.3 585.3 423.1 585.1 424 585.2 424.5 585.6 424.9 586.5 425.2 586.8 425.4 587.6 428.4 588.4 428.9 590.1 429 590.9 429.3 591.9 430.6 594.5 443.6 595.9 447.2 598.5 449.8 599.6 451.1 601 451.4 602.5 451.1 604.1 450.5 605.7 450.5"/><polygon class="e" points="986.4 360 985.7 361.4 983.1 363 982.5 364.4 981.2 364.6 980.8 365.3 980.7 367.4 980 368.5 977.4 369.5 976.4 370.4 975.1 372.4 973.3 374.2 971.4 375.5 969.5 375.9 968.8 375.7 968.1 375.2 967.3 374.8 966.2 374.7 963.9 375.1 963.2 375.4 962.3 376.5 960.8 379.5 959.6 380.4 958.8 380.6 957.4 381.6 956.9 382.1 956.7 382.7 956.2 383.1 955.4 383.1 955 382.7 954 380.8 953.4 380.2 952.6 379.9 951.9 380 950.6 380.4 949.9 380.8 949.1 381.4 948.4 381.8 947.8 381.2 947.4 380.5 947 380 946.4 379.9 945.7 380.2 944.5 381.3 943.6 382.5 941 387.7 937.9 392.3 936.7 394.7 936.4 396.2 936.9 402.7 937.5 403.6 939.8 405.1 941.9 407 942.6 409.1 942.2 411.6 939.9 416.9 938.6 426.6 938.7 428.2 939 429.6 939.7 431.1 941 433.1 941.3 434.1 940.8 435.4 938.3 436.1 936.2 438.8 934.6 442.3 932.3 451.9 930.7 455.3 928.3 456.6 926.7 456.8 926 457.8 925.8 459.2 925.9 460.8 925.5 462.7 924.4 463.5 921.3 464 920.1 464.7 917.8 466.7 916.7 466.9 915.1 466.3 913.9 466.2 913.1 466.9 912.7 468.7 913.7 471.5 916.4 472.1 919.6 472.2 921.8 473.2 925.1 477.8 925.5 478.8 924.8 479.8 921.7 481.3 920.8 482.3 921.2 484.6 923.7 485.7 926.9 486.4 929.5 487.4 930.7 488.5 935 493.7 935.3 495.1 935.5 496.4 936 497.7 936.7 498.3 938.3 498.3 939 498.6 939.4 499.4 939.5 499.8 939.3 500.3 939 504.8 939.5 506.1 941.4 508.7 943 508.3 945.7 503.9 946.8 502.6 948 502 951 501.1 951.8 500.4 952.6 498.1 953.4 497.6 954.7 498.7 957.3 503.7 958.8 505.5 945.1 510.1 934.4 513.8 919.7 518.9 905.3 523.8 875.5 534.1 868.7 535.4 865.4 536.4 859 539.4 839.2 546 827 550 813.2 557.4 805.8 560.1 786 565 777.1 567.1 775.6 567.2 755.1 572 743.2 576.4 735.9 579 726.9 582.4 718.9 586.4 712.6 589.6 705.1 590.5 703.7 590.9 703.6 590.7 703.5 580.2 703.1 577.5 702.7 577.2 701.8 576.3 701.1 575.2 700.3 574.2 699.5 573.7 698.3 573.1 697.3 572.3 694 567.7 693.2 567.1 691.3 566.4 690.7 565.8 690.4 565.2 690.1 564 689.8 563.4 689.4 562.8 687.3 560.3 685.5 558.7 684.9 557.8 685.5 553.3 686.1 550 686.5 549.1 686.8 548.5 687.1 548.3 687.6 546.7 687.8 544.8 688.4 543.2 689.3 542.3 690 541.9 690.9 541.4 691.4 540.8 691.7 540.1 691.9 538.9 692.2 538.1 692.6 537.5 693 537.3 693.5 537.2 694.5 537.4 695.5 537.4 695.9 537.1 696.6 536.4 699.9 531.9 702.4 529.8 703 529.1 703.4 528.5 703.8 527.5 704.1 527 704.5 526.6 705.2 526.2 706.4 524.9 707.1 524.4 709.4 523.2 710.3 522.5 710.9 521.7 711.8 520.2 712.2 519.3 712.6 518.2 712.8 516.8 712.7 515.8 712.4 514.9 711.9 514.2 711.3 513 710.1 512.4 709.2 511.4 708.8 511.2 707.9 510.8 703.9 509.6 701.6 508.7 701.2 508.4 700.8 507.8 698.5 500.8 698.1 499.9 697.7 499.6 697.2 499.5 695.5 499.3 694.5 499 693.7 498.5 693.8 498.2 760 498.1 760.8 497.8 761.6 497.4 762 496.3 762.6 495.6 764 494.3 765.4 492.3 765.4 491.9 767.3 491.3 767.7 489.8 767.6 488.4 768.3 487.7 769.4 487.4 771.7 485.8 772.7 485.3 775.1 485 776 484.3 775.6 482.9 776.9 481.4 777.1 481.3 779.2 479.1 779.8 477.8 781.3 471.5 782.3 469.7 784.6 468.7 785.6 467.4 786.4 467.1 788.7 467.7 789.8 467.5 790.6 465.3 792.2 463.3 792.6 462.1 792.9 461.5 793.6 461.3 794.4 461.4 795 461.8 796.1 460.7 799.6 458 801.4 456.9 805.5 456 807.4 454.6 808.3 454 810.2 453.4 811.6 453.6 813.3 454.1 815 454.3 816.4 453.7 823.2 448.6 825.2 445.8 826.2 442.5 826.9 439 828.4 434 828.9 433.2 830.6 432.8 831.3 432.3 831.8 431.7 832 430.8 832.6 429.1 833.9 427.9 835 426.6 835.3 424.5 835.8 424.5 836 424.9 836.4 425.7 837.8 424.8 839.7 423.9 840.8 423 841.7 421.9 842.2 421.6 844 421.4 844.6 421 845 420.4 845.2 419.6 846.3 420.1 847 419.9 847.7 419.5 848.7 419.1 848.2 417.4 848.1 415.6 848.3 413.8 848.7 412.5 848.8 412 848.6 411.1 848.7 410.7 849.2 410.3 850.1 410.3 850.5 410.1 851.6 409 852 408.5 852.3 407.7 853.2 407.6 855 407.1 856.7 406.4 857.5 405.6 857.7 404 859.1 400 859.9 398.6 860.7 398.1 861.4 397.9 861.9 397.5 862.3 395.7 863.1 393.9 863.3 393 863.3 391.9 863.9 389 863.9 386.1 864.1 385.2 864.5 384.6 864.9 383.9 865.2 381.8 866.1 380.7 867.9 372.2 867.9 368.3 868.1 367.6 869 366.5 869.2 366 869.3 364.7 869.6 364.1 870.2 363.6 871 362.7 871.5 361.8 872.7 359.1 873.7 358 878 354.6 878.2 353.8 879.7 351.9 880.4 350.1 880.9 348.3 881 346.5 888 348 893.1 348 897.4 343.6 898.8 338.5 902.4 334.8 907.4 334.8 918.2 334.1 937.5 328.2 949 324.6 952.6 316.5 958.3 307 958.3 302.8 959.9 300.4 963.3 298.9 967.5 297.8 968.3 309 968 312.2 966.8 315.5 966.9 316.9 967.8 318.8 968.1 320.1 967.9 321.4 967.4 322.8 966.6 327.3 963.2 335.2 962.9 338.1 963 341.1 963.7 342.5 966.1 344.8 967.1 346 968.1 348.9 969.6 355 971.3 357.6 974.3 358.6 980.6 356.7 983.9 357.9 985.3 357.8 986.3 358.2 986.4 360"/><polygon class="f" points="720.7 648.1 720.5 648.3 715.9 650.2 713.4 650.3 709.3 648.5 707.2 648.2 706.4 648.5 705.2 649.6 704.5 650 703.1 650.3 702.1 650 699.9 648.5 696.5 647.7 693.1 648.2 689.7 649.2 686.4 649.7 682.7 649.3 675.4 647.3 671.6 646.9 669.6 647.4 666.1 649 662.4 649.6 657.5 651.2 655.4 651.5 653.7 651.3 652 650.8 650.2 650.6 648.2 651.1 645 653.8 643.5 654.8 636.1 655.5 634.8 655.7 616 664.5 613 667.7 612.2 668.2 610.5 668.6 608.8 669.7 607.5 670.9 606.6 671.8 604.8 675.3 603.7 676.3 601.6 676.7 597.8 676.8 595.9 677.1 595.6 677.3 594.3 676.2 592.4 675 590.5 674.6 589.1 676.1 588.1 675.5 587.2 675.5 586.5 675.9 586.1 676.7 585.2 676.1 584.6 676.4 584.2 677 583.8 677.3 583 677.2 581.7 676.8 581.1 676.7 579.6 676.9 579.1 676.8 578.3 676.4 572.5 671.8 571.4 671.3 569.7 671.3 566.3 671.7 564.6 671.4 563.1 670.5 559.4 666.6 558 665.5 556.7 665 553.5 664.6 552.4 664.2 550.8 662.9 549.8 662.4 548.1 662 539.6 662.5 538.3 663 535.8 664.9 534.9 665 534 664.5 531.4 662.2 530 661.4 521.6 658.1 519.8 657.8 518.2 657.3 517.3 656 516.5 654.4 515.4 653 512.3 651.5 508.8 651.3 505.3 652.1 502.5 653.6 501.7 653.1 501.3 652.6 501.1 652 501.3 651.2 499.7 650.2 497.7 649.9 494 649.9 497.6 642.2 506.7 639.6 508.2 638.4 509 637.3 509.2 636.8 509.2 635.5 508.9 634 507.7 630 505.5 625.6 504.4 624.6 503.2 624.1 498.6 623.4 496.6 622.9 495.4 622.1 494.9 620.8 495.1 619.9 495.8 619 500.1 616 500.9 615.7 501.9 615.5 503 615.5 517.6 617.9 532 622.6 536.9 623.7 539.6 622.7 541.9 618.6 544.1 612.3 546.8 606.9 549.3 605.4 563.3 609.1 570.7 608.9 578.2 608 585 605.7 595.6 596.1 600.2 594.1 604.6 593.3 619.6 588.6 626.7 590.5 633.7 590.3 639.3 589.2 641.7 584.8 642.7 581.1 643 579.1 643.4 578 644.6 576.2 645.4 575.7 646 575.6 646.5 575.7 649.3 575.6 649.7 575.3 650.4 574.7 655.5 571.9 656.2 571.3 656.7 570.7 657.2 570.4 663.9 567.7 664.4 567.6 666.3 567.8 666.8 567.7 667.2 567.4 668.9 566 669.4 565.7 670 565.6 671.4 566 672.1 566.1 672.9 566.1 674.2 566 675 565.7 675.5 565.4 676 564.7 676.2 564.3 676.8 562.6 677.3 561.9 677.7 561.8 678.3 562.4 678.9 562.7 679.7 562.4 680.5 562.3 681.3 561.8 682.4 561.5 683.5 561.5 684.7 562.7 685.5 563.1 689.8 563.4 690.1 564 690.4 565.2 690.7 565.8 691.3 566.4 693.2 567.1 694 567.7 697.3 572.3 698.3 573.1 699.5 573.7 700.3 574.2 701.1 575.2 701.8 576.3 702.7 577.2 703.1 577.5 703.5 580.2 703.6 590.7 703.7 590.9 703.7 591.5 704.3 594.1 704.3 598 704.7 601.9 707.9 612.9 710 617.2 712.8 619 714 619.4 715.1 620.6 716 622.2 716.6 623.8 716.9 625.6 717.2 631.4 717.4 632.4 718.7 634.2 719 635 718.7 635.9 717.2 639 716.6 640.9 716.8 642.2 719.2 644.8 719.7 645.5 720.7 648.1"/><polygon class="g" points="479.8 350.1 479.5 350.4 475.8 352.9 475.5 353.1 474.2 353.6 473 355.2 471.7 354.5 469.3 354.1 469 353.6 469.2 353 469.2 352.5 468 351.6 466.7 350.8 465.9 350.2 464.3 350.7 463.6 351.2 462.4 352.3 461.7 352.8 460 353.5 459.6 353.9 458.4 355.3 457.1 356 456.8 356.2 455.6 356.8 455.2 357.2 454.1 358.5 453.6 358.9 453 359.1 442.3 358 441.3 358.1 439.6 358.5 438.9 358.6 436.5 358.4 434.5 358 434.1 358 433.8 358.1 434 359.2 435 362.3 435.1 362.8 435.1 365.5 434.4 366.8 434.2 367.4 434.1 368.1 434.1 369.3 434.2 370 434.4 370.6 435.1 372.6 435.8 373.4 436 374 435.1 374.5 431.7 375.1 430.9 375.4 430.2 375.9 427.2 379.7 426.3 381.3 425.5 382.3 424.9 382.9 424.2 383.4 422.9 383.9 421.4 384 420.5 384.2 419.7 384.6 419.1 385.3 418.4 386.4 417.9 387.5 417.1 391.3 416.8 392 416.2 393 416.2 393.5 416.4 394.3 416.8 394.7 417.5 395.4 418.1 396.3 418.3 397.1 418.7 397.5 419.5 398 421.1 399.8 421.5 400.6 421.4 401.2 420.8 402.5 420 404.3 419.2 405.5 419.1 406 419.2 406.4 419.4 407 420.2 407.6 421.1 408 421.9 408.5 422.8 409.4 423.5 410 425.8 410.9 426.2 411.1 427.3 411.9 427.8 412 429.2 412.1 429.9 412.3 430.2 412.5 430.8 413.2 431.1 414 431.4 414.3 432.1 414.6 432.4 415 432.7 415.8 433.2 416.1 433.7 416.3 435.6 416 436.1 416 437.1 416.2 437.5 416.5 435.1 426.5 434.6 427.8 434 428.7 433.3 429.7 432.6 430.2 427.8 433.2 426.9 434.1 426.4 434.9 426.3 435.5 426.1 436.4 426.1 437.8 426.4 439.2 427.4 441.2 427.6 442.1 427.8 443.6 427.7 444.1 427.5 444.8 427.2 445.8 426.3 447.3 425.8 448.1 425.3 448.6 423.4 449.5 422.8 450.1 421.8 452.4 421.4 453 421 453.3 420.2 453.7 418.5 454.3 417.4 454.9 417.1 455.4 416.8 456.1 415.9 460.4 415.6 461.1 415.1 461.8 413.4 463.1 413.2 463.5 412.7 464.2 412.1 465.8 411.8 467.2 411.4 472.9 411.5 473.9 411.9 475 412.3 475.7 412.6 476.3 413.9 477.4 416.8 479.3 417.6 479.6 418.2 480.2 418.8 480.8 419.8 482.2 420.1 483.1 420.4 484.4 420.9 485.1 421.4 485.8 421.8 486.1 422.5 486.6 425.1 487.8 425.4 488.1 425.5 488.6 425.4 489.6 425.3 490.1 424.4 491.8 422.6 494.4 421.9 496.3 421.6 498.7 421.5 500.9 421.7 504.3 421.5 505.1 421.1 505.5 420.3 505.9 418.6 506.5 417.7 506.9 417.3 507.6 417.4 507.9 417.8 508.3 421 510.1 422 510.9 426.2 516.4 426.9 517.5 427.6 519.1 427.8 520.1 427.9 521.7 427.6 522.7 427.4 523.1 425.9 525.3 425.4 526.1 425.3 526.5 425.5 527.4 425.7 537.2 425.1 538.6 424.7 539.1 423.2 540.4 412.7 540.8 411.5 541.3 408.5 543.3 406.9 543.8 399.8 543.3 398.9 543.4 398.3 544.3 397.8 544.5 396.7 544.3 395.1 543.5 394.3 543.3 392.8 543.4 391.5 544 390.4 544.8 389.6 545.7 386.1 551.1 380.6 555.4 377.1 559.5 376.2 561.3 375.6 565.9 372.7 567.2 371.8 567.4 370.9 567.1 370.3 566.4 369.8 565.6 369.2 565 365.4 563.1 363.2 562.8 361.9 562.4 361 561.9 360.4 561.1 359.7 559.9 358.9 559 311.7 553.2 310.2 553.2 308.7 553.5 307.6 554.5 305.5 555.8 303.4 555.7 302.3 556 301.9 556.4 300 557.3 298.4 557.4 297.2 557.5 296.5 557.4 296 557.2 295.2 556.7 294.9 556.4 293.9 556 292.3 555.6 286.8 555.1 285.6 555.1 285.2 555.3 283.6 556.1 282.8 556.4 279.1 557.2 277.8 557.6 276.6 558.2 274.9 558.9 271.7 559.7 270.8 559.7 266.8 559.4 266 559.5 265.2 559.6 263.6 560.2 262.2 560.3 261.6 560.2 260.9 560 259.6 559.2 258.9 558.7 257.1 556.6 256.1 555.2 255.6 554 255.4 553 255.8 550.2 255.8 549.7 255.6 547.7 255.7 546.6 256.2 545.8 256.9 545.3 258.8 544.7 261 543.6 262 542.8 262.9 541.8 263.2 540.9 263.4 537.1 263.8 535.1 264.1 534.1 264.9 533 265.6 531.8 265.9 530.9 266.3 529.3 266.3 526.1 266.1 525.4 265.7 524.7 264.8 523.6 264.2 523.1 263.6 523 260.3 523.6 259.4 523.4 257.9 522.9 248.3 518 247.8 517.8 245.7 517.5 243.8 516.9 242.1 516.7 237.7 515.2 237 514.8 236.6 514.4 236.1 513.7 235.6 512.5 235.3 511.6 235.3 511.1 235.4 508.8 235.3 508.3 234.7 506.7 234.5 505.8 234 505 233.6 504.4 232.6 503.5 230.6 501.1 229.8 500.6 229.5 500.6 228.9 501.1 227.6 501.6 227.4 501.9 227.1 502.8 227 503.8 226.7 504.2 226.3 504.3 226 504.1 225.9 503.4 226.1 501.8 226 501.2 224.1 500.8 223.8 501 223.8 501.4 224 502.3 224 502.7 223.8 503.1 223.5 503.2 223.1 503.2 222.2 502.8 221.7 502.7 220.7 502.7 220.2 501.9 219.5 501.1 218.4 500.5 217.4 499.6 217 499.1 215.1 497 214.8 497.1 214.3 497.8 213.9 498.1 213.1 498.3 213 498.6 213.7 499.5 213.8 499.8 213.6 500.1 212.7 500.2 211.5 500.1 210.9 500 210.4 500.1 209.5 501 208.9 501 208.6 500.8 207.9 499.5 207.6 499.6 207.1 500.2 206.4 500.6 206 500.6 202.7 499.6 202 499.2 201.5 498.7 201.5 497.1 201.3 496.5 200.9 495.9 200 495 199.5 494.8 199.1 494.8 198.9 495.6 198.7 495.9 198.2 496.6 198.2 496.9 198.9 497.7 199.2 498.1 199.2 498.5 199 498.8 198.5 498.9 197.8 498.9 196.9 498.7 196.2 498.3 194.6 497.2 193.3 496 192.8 495.9 192.4 496 191.3 496.6 190.4 496.9 190 497.1 189.5 497.8 189 498 188.5 498 187.2 497.9 186.8 498.1 186.5 498.4 185.7 499.6 185.4 499.8 184.7 500.2 183.7 500.4 183 500.3 182.4 500.1 181.8 499.5 181.3 499.4 180.9 499.5 180.3 500.2 179.8 501.7 179.5 502.2 178.9 502.4 178.6 502.2 177.9 501.4 177.5 501.3 177.2 501.4 176.4 502.4 175.5 503.3 174.4 504 173.5 504.3 172.7 504.4 171.7 504.2 170.9 503.9 169.6 503.3 168.9 503.1 168.4 503.2 167.7 503.7 166.8 503.9 166.1 504.3 165.2 504.2 164.5 504.1 162.7 503.4 161.1 503.4 159.8 503.1 159.2 502.1 159.2 500.4 158.3 500.8 156.3 502.8 155.3 503.2 154.4 503.3 153.4 503.6 150.6 505.3 149.1 504.9 147.8 503.9 146.4 503.4 145 503.8 142.1 505.4 138.6 506.3 135.6 508.6 134.1 509.5 125.3 511.8 122.9 513 120.3 515.4 119.4 516 118.3 516.4 117.5 516.3 116.7 516.1 115.6 516 114.1 516.4 112 518.3 110.6 519.1 107.1 519.1 107.5 518.3 107.5 517.7 107.1 516.6 103.6 517.9 104 516.1 105.9 513.2 107 511.8 107.4 511 107.1 510.7 106.6 510.6 100 509.9 99.2 509.7 98 508.9 97.5 508.2 97.1 507.4 96.9 506.5 96.8 505.4 96.8 504.1 96.6 503.6 96.1 503.1 95.1 502.5 94.3 502.3 93.7 502.2 92.7 502.4 90.5 503.4 89 503.7 88.5 503.7 87.9 503.4 87.5 502.8 87.2 501.8 86.7 500.5 86.2 499.8 85.1 498.6 77.6 493.7 75.5 492.8 74.8 492.7 74.2 492.8 73.9 493 71.8 495.2 71 495.6 67 495.8 66.6 495.9 66.2 496.2 66.1 496.7 65.1 501.8 64.9 502.3 64.3 503.2 63.3 503.4 62.2 503.1 61.4 502.7 60.7 502.1 59.8 501.6 57.7 501.2 56.7 500.8 56.2 500.1 56.1 499.4 55.7 498.7 55.2 498.1 54.8 497.9 53.3 497.5 52.6 496.8 50.1 496.6 49.4 496.5 48.9 496.3 46.8 494.9 46.5 494.6 45.8 492.9 45.3 492.5 39.5 488.9 27.1 478.3 26.2 477.7 24.1 476.7 23.3 476.4 22.6 476.2 21.6 476.4 21 476.9 20.1 478.5 19.5 479.1 18.3 479.8 17.8 480.4 17.4 481.2 16.8 481.9 14.3 483 12.9 483.3 11.4 483.3 10.6 483.2 9.6 482.8 8.3 481.7 6.2 479.6 5.1 478.9 2.6 477.6 1 477.4 1 416.5 173.5 416.5 172.4 413.3 171 410.6 169.1 408 164.4 403.2 162.7 400.8 161.9 398 162.5 394.5 164.2 390.6 167.3 378 168.3 375.5 175.1 365.5 175.8 364 176 362.5 175.2 358.6 174.8 353.3 174 351.1 171.8 348.8 170 346.1 169.5 342.2 170.1 329.9 170.6 318.7 172.4 314.4 172.6 313.5 172.2 311.4 171.8 304.9 171.1 302.8 170.2 301.1 169.5 299.4 169.5 297.2 170 295.5 171.5 292 173.9 288.3 174.2 287.3 174.2 285.9 174 283.8 174 282.7 174.2 281.7 175.2 280.4 177.8 278.3 178.7 277.2 178.6 276.1 174.8 267.7 174.4 265.5 174.7 253.1 173 252.8 172.6 251.6 172.9 248.2 172.9 243.4 173.2 241.9 173.7 240.2 173.4 238.9 171.7 236.4 171.2 234.9 170.6 230.6 173.5 230.7 177.5 231.5 181.2 232.8 183.1 234.7 183.2 235.5 182.7 237 182.6 237.8 182.8 238.8 183.4 240.5 183.6 241.5 183.4 244.4 184 245.5 185.7 245.2 187.4 244.7 188.9 244.7 192 245.7 193.7 245.9 196.9 245.9 198.5 246.1 200.4 247 202.9 248.5 205 250.4 206 252.2 205.7 253.2 204.3 254.8 204.3 256.1 204.8 257.1 206.2 258.4 206.8 259.1 207.2 260.6 207.3 262.5 207.2 264.3 206.9 266 206.2 267.4 203.5 271.8 202.4 272.9 198.9 274 197.8 274.9 198.5 276.5 199.9 277.1 203.4 277.2 205 277.4 206.9 278.6 209.8 281.3 211.5 282.1 213.5 282.3 215.3 281.9 218.9 280.6 219.7 280.5 220.7 280.6 221.6 280.4 222.1 279.7 222.4 278.7 222.8 277.9 223.3 277.2 224 276.5 224.8 276.2 226.7 275.8 227.6 275.3 228.4 274.5 230 272.3 230.9 271.5 234.2 270.1 240.6 270.1 244 269.4 250.3 266.2 253.9 265.1 257.1 265.4 269.3 264.3 274.4 263.2 282.5 259.1 285.2 258.7 286.3 259.6 286.4 261.6 286.3 263.8 286.5 265.6 286.5 266.4 285.8 267 284 267.7 283 268.5 283.5 269.2 284.5 270 284.9 270.7 284.2 272.3 283.2 273.1 282.5 274.1 282.5 276.2 283.2 278 285.1 281.4 285.8 282.9 285.7 283.7 284.5 285.1 284.1 286 284.1 286.8 284.4 288.3 286.7 295.4 287.5 296.9 288.2 297.7 288.8 298 289.5 298.1 290.6 298.1 291.7 298.3 292.3 298.9 292.7 299.7 293.4 300.4 298.3 302.7 299.8 304 299.9 304.5 299.9 305.4 299.2 307.6 299.7 308.8 301 309.4 302.7 309.3 303.5 308.9 304 308.3 304.6 307.8 305.7 307.6 306.6 307.4 307 306.5 307.2 305.7 307.9 305.1 311.8 305.2 314.7 307.1 317.4 309.6 320.7 311.5 322.2 311.8 327.1 311.8 328.1 311.7 329.8 310.9 330.4 310.7 331.3 310.9 331.8 311.2 332.1 311.6 336.8 315.4 338.6 316.1 339.8 317 341 319.7 342.5 320.4 343.6 320.6 358.3 320.4 360.2 321.1 361.9 322.2 363.7 323.1 366.7 322.9 368.5 323.7 369.5 323.8 370.5 323.4 372.1 322.2 373 321.8 376.2 321.3 379.5 321.2 381.5 321.8 382.9 323 384.3 324.3 385.8 325.5 388.9 326.5 395.8 327 399 327.6 400.6 328.6 402.1 329.7 403.6 330.4 405.3 330 406.6 328.8 407.6 327.3 408.9 326.2 411.1 326.1 415.1 326.6 418.7 325.8 422 323.9 425 321 426.6 317.6 427 310.4 427.8 307 429.1 305.1 430.4 303.9 431.3 302.5 431.4 300.2 430.3 296.5 430.3 294.8 431.4 293.6 432.2 293.5 434.1 293.8 434.9 293.7 438.1 292.7 441.8 292.4 444.2 291.4 444.8 291.3 446.2 293.4 447.1 297.4 447.5 301.7 447.3 304.6 449.4 312.2 465.3 322.1 469.3 329 469.7 332.5 473.8 344.6 475.2 346.4 479.8 350.1"/><polygon class="h" points="595.6 677.3 594.3 677.9 591.5 680.7 589.6 683.1 589.4 683.7 588.2 685.5 587.9 686.5 588.1 687.3 588.9 688.4 589.1 688.9 588.6 691.9 587.5 695.6 587.1 699.1 588.5 701.7 586.5 706.4 586.2 708.4 586.5 709.9 587.9 713.6 587.9 715.7 585.9 719.1 585.5 719.8 585 723 583.8 724.4 580.4 727 579.7 728.5 579.4 728.5 577.9 729.1 576.9 728.4 575.6 728.5 574.4 728.5 573.2 727.2 573.1 725.9 573.2 724.8 572.8 723.9 571.2 723.7 569.9 724 567.7 725.7 561.4 726.8 560.4 727.2 561.1 727.7 562 727.9 562.9 728 563.9 727.9 563.5 728.9 562.8 729.7 561.5 729.4 560.5 729.8 559.5 730.6 558.4 731 558.2 730.3 558.3 728.9 557.9 727.4 556.3 726.7 555.7 728.4 554.3 729 552.9 729.1 552.2 729.4 551.8 730.7 549.5 733.8 548.7 734.6 548.2 733.8 546.5 733 545.8 732.1 546.6 731.6 546.8 731 546.5 730.6 545.8 730.3 545.1 730.6 543.2 731.4 542.9 731.3 542.4 729.7 541.3 729 539.8 728.8 538.1 729.1 539.4 729.7 539.9 729.7 539.9 730.3 538.7 730.3 538.7 731 540.8 731.4 542.3 732.7 542.8 734 541.9 734.6 539.8 735 538.5 735.8 537.4 736.1 535.8 735.2 535.7 736.8 535.9 738.6 535.6 739.6 534 738.9 533.5 740.1 531.7 737.7 530.6 737.2 528.9 737.7 528.9 738.3 530 739.4 529.7 741.4 529.8 742.6 532.3 741.4 531.9 742.5 530.9 743.3 528.9 744.5 528.1 744.8 527.3 744.9 526.7 745.2 526.5 745.9 526.4 747.5 526.2 748.1 525.9 748.7 524.6 747.7 523.1 747.1 521.8 747.4 521.2 749 521.2 750.9 521 751.4 520.5 751.6 520.2 752 520.7 753 521.3 752.6 522.4 753 520.8 755.1 518.2 756.6 515.3 757.1 513 756.6 511.9 755.5 512 754.7 512.6 753.8 512.5 752.4 511.6 751.5 510.4 751.4 509 751.8 507.7 752.4 508.2 750.7 508.4 749.6 508.4 749.3 507.9 749.2 507.4 749.4 506.6 749.9 504.6 749.5 503.5 749.6 502.5 749.9 503.5 750.7 503.8 751.4 503.7 753.3 502.8 753.9 497.3 752.9 496.7 753.6 496.7 754.2 496.8 755 496.7 755.7 495.7 756 495.7 756.5 498.1 758.5 499 759.1 503 760.1 503.7 760.6 503.1 761.2 501.8 761.7 499.6 762.1 495.3 764.1 492.8 764.4 492 762.7 491.4 762.7 490.8 763.6 489 764.9 488.4 765.8 490.4 765.8 491.7 766.5 492.3 767.5 492 768.9 490.3 770.3 486.8 771.2 485.5 772.5 486.9 772.9 488 773.7 490.2 775.5 487.7 777.3 486.3 777.9 484.9 778 485.8 776.6 485.7 775.7 483.7 773.7 482.7 774.7 480.9 777.4 480.4 777.7 479.3 778 478.8 778.3 478.3 779.1 478.2 780.4 478 781.1 476.5 781.8 476.2 782 476.5 784 476.2 784.8 475.7 785 474.9 785.1 474.2 785.5 473.8 786.3 473.8 787.1 473.6 788 473.3 788.4 473.6 790.3 472.3 791.7 470.6 792.8 469.7 793.7 468.6 793.7 466.3 794.1 465.1 794.9 466.8 796.5 466.6 796.8 466.2 797.7 467.8 798.1 466.5 799.6 462.4 802.9 458.8 807.4 457 808.5 456.3 809.6 456.1 810.8 456.9 811.8 457.5 811.6 458.3 811.1 459.2 810.6 460.4 810.5 461.8 811 462 811.4 461.5 812.2 461 813.6 461 815 461.1 816.2 461.1 817.2 460.4 818.5 459 818 458 818.2 457.9 819 459.2 819.7 459.2 820.4 458.8 820.6 458.6 820.9 456.2 819.8 455.7 819.7 454.8 820.1 454.7 820.6 454.9 821.2 454.2 823.1 454.2 823.8 453.8 824.3 452.8 824.7 452.1 824.6 451.4 824.3 450.4 823.4 450.4 824 450.3 824.7 450.4 825.3 449 825.4 448.9 826.2 448.9 827.2 446.8 828.1 445.5 829.7 444.6 830.2 445 830.8 445 831.1 444.6 832 443.4 831.7 442.6 832.7 442 834.2 441.3 835.4 438.3 839 437 840.1 437.4 840.3 438.1 840.9 438.7 841.3 437 841.9 437 842.5 437.5 842.5 437.1 843 436.5 843.8 436.3 844.8 437 845.5 438 845.5 439.1 844.9 440.1 844.2 441 843.7 440.8 845 440.1 846 439.2 846.8 438.1 847.4 438.4 848.1 437.9 848.6 437.1 849 436.3 849.3 436.3 849.9 436.6 850.6 436.3 851 435.6 850.9 434.7 850.4 434.1 852.5 431.4 855.1 431.3 856 430 856.4 425.9 856.6 425 857 421.9 859.1 419.9 858.4 411.8 862.1 409.8 862.4 408.4 862.7 407.3 863.4 404.8 865.7 403.8 866 402.6 865.8 397.7 864.2 396.4 863.5 395.2 862.5 393.9 861 392.7 860 391.3 859.5 389.1 859.1 385.5 857.9 378.9 854.3 375 853.6 371.9 854 371.2 853.9 370.7 853.3 370 852.8 369.2 852.5 365.3 852 364.5 851.7 364 851.2 363.6 850.3 362.9 849.6 362.2 849.3 361.4 849.7 358.4 852 357.6 852.4 355.6 852.8 354.2 853.6 352.7 854 352.2 854.2 352.1 854.6 352.3 855.7 352.2 856.1 351 856.4 349.4 856.4 348.1 856.8 347.5 857.8 347 857.2 342.2 859.7 341.3 859.8 337.6 859.7 332.4 857.2 331.6 856.2 331 854.7 331.1 853.4 332.4 852.9 331.2 851.4 327.4 849.7 326.6 848.3 325.8 847.4 324.1 846.3 322.2 845.4 319 844.5 318 843.6 316.9 842.9 314.8 843.1 310.3 845.1 304.6 846.2 304 846.4 303.3 847.2 302.8 847.4 302.3 847.3 301.5 846.9 301 846.8 294.6 846.8 293.7 846.6 290.9 845.5 288.2 845.6 287.4 845.5 285.7 844.7 283.1 842.7 281.5 841.9 280.9 841.3 280.4 840.2 279.4 839.2 278.3 838.5 277.1 838.2 275.7 838.1 275 837.8 273.9 836.3 273.5 836 272.5 835.5 272.1 835.1 272 834.6 272.1 833.5 271.8 832.9 270.6 831.6 270 831.6 269.2 832.7 269 832.1 268.6 831.4 268 831 267.2 830.8 267 830.4 266.3 827.7 266 827.6 264.5 826.2 264.2 825.8 263.2 825.8 262.6 825.7 262.2 825.3 261.6 824.7 261.6 824 262.2 822.5 261.9 822.2 261 822.3 259.4 822.9 258.6 822.8 257.3 821.8 256.3 820.4 256.2 820.3 257 814.2 257.5 812.2 258.8 810.7 259.7 809.9 260.1 809.4 260.7 808.5 260.9 807.8 261 807.1 260.9 806.6 260.6 805.7 260.5 805 260.5 800.1 260.7 799.2 260.9 798.5 261.5 797.8 262.9 796.8 263.2 796.5 264.6 794 265.5 793 267.1 790 267.2 789.4 267.2 788.9 266.8 788.2 266.3 787.6 266 786.9 265.9 785.9 266.2 783.6 266.5 782.6 266.9 781.9 267.6 781.3 269.9 780.1 270.4 779.6 271 778.9 272 777.3 272.5 776.2 272.7 775.4 272.7 774.8 272.6 774.4 272.2 773.4 272.1 772.8 272.3 771.5 273 770.9 273.8 770.5 274.6 770.2 279 768.1 279.7 767.4 280.4 766.4 281.9 763.9 282.4 762.7 282.5 761.8 280 753.3 279.6 752.5 279.4 751.5 279.4 750.1 280.2 745.8 280.3 744.7 280.2 743.9 279.9 743.6 279.2 743.1 277.9 742.4 276.9 742.1 267.9 741 267.3 740.8 266.9 740.4 265.8 738.1 265.6 737.2 265.3 735.7 265.1 735.3 264.5 734.7 261.5 732.6 259.2 730.5 258.7 730 258.5 728.9 258.6 728.2 259.1 728.1 260.4 727.8 261.2 727.5 262.3 726.7 270.9 715 271.5 714.4 273.1 713.5 273.4 713.3 274.7 712.1 275.1 711.9 276.5 711.6 276.9 711.4 278 710.7 279.2 709.4 279.8 708.7 280.1 708.4 280.9 708 282.3 707.7 283.5 707.1 284 706.5 284.6 705.4 286.7 700.4 287 700.1 287.8 698.7 288.8 696.3 289.1 695.7 289.7 695.1 290.3 694.4 291 693.2 291.3 692.9 292 692.4 293.1 691.8 293.8 691.2 294 690.8 294.8 690 295.3 689.4 295.3 688.9 295.1 688.6 294.7 688.3 293.7 688 292.6 687.9 291.6 687.6 290.9 687.1 290.3 686.4 288.6 685 288 684.4 287.4 683.2 287.3 681.9 287.3 680.9 287.4 680.3 287.7 680 288.5 679.4 288.9 679 289.3 678.4 289.3 678 288.7 677.2 288.5 676.6 288.5 675.4 288.6 674.7 288.9 674.2 289.3 674 289.8 673.4 290.5 672.5 291.3 670.1 292.6 660.6 292.6 659.5 292.5 659 292.1 658.2 291.6 657.6 290.9 657 290 656.6 289.5 656.6 289.1 656.7 288.8 657 288.2 657.6 287.4 658.7 286.8 659.4 286.1 659.8 285.1 659.9 284 659.8 283.2 659.4 282.5 658.8 281.9 658.1 280.7 656.3 280.5 655.8 280.2 654.3 280.3 653.7 280.6 653.3 281.7 652.6 282.1 652.2 282.4 651.7 282.6 650.5 282.4 649.6 281.9 648.9 281.3 648.4 280.5 648 278.6 646.7 278.2 646.4 278 645.9 277.8 645.1 277.9 644.5 278.2 644.1 280.5 642.2 280.9 641.8 281.3 641.2 281.7 640.1 281.8 639.5 281.7 638.9 281.2 638.2 279.8 636.8 279.5 635.9 279.6 635.4 280.2 634.7 281.8 634.1 282.3 634 283.5 634.4 284.1 633.9 285.3 631.6 285.5 630.9 285.9 629.7 285.9 628.8 285.7 627.5 285.8 626.8 285.9 626.3 286.2 625.9 286.8 625.3 287.6 624.4 288 623.7 288.2 623.1 288.2 622.5 287.9 621.7 286.9 620.2 286.5 618.9 407.8 622.2 412.7 622.8 416.1 623.6 427.4 630.2 428.3 631 428.3 631.6 426.2 633.3 425.9 633.9 426.7 634.1 446.7 635.2 448.8 636.5 453.3 655.8 453.3 656.9 454.3 657.1 455.1 658.4 456.5 657.6 456.8 656.8 463.8 643.9 464.1 643.3 464.4 642.8 464.8 642.7 466.5 643.3 467.8 643.9 468.2 644 468.6 643.8 469 642.9 469.2 642.6 469.6 642.3 470.5 642 471.7 640.9 472.5 640.4 472.9 639.6 473.3 638.1 473.5 637.8 474.6 637.2 474.8 636.8 475 635.6 475.4 635.2 476.1 635 477.3 634.9 477.9 635.1 478 635.6 477.9 636.4 478 636.7 478.5 637 482.9 638.4 483.3 638.8 483.5 639.2 483.6 640.2 483.8 640.6 484.1 640.9 485.5 641.5 485.7 641.9 485.8 642.4 485.7 644.1 485.7 644.6 486.2 645.3 486.2 645.6 486 645.9 485.1 646.8 484.9 647.1 485.2 647.9 486.2 648.9 487.1 649.7 487.6 650.3 487.9 651 488.5 651.8 489.3 650.9 489.8 650.6 490.8 650.5 491.3 650.6 492.2 651.1 492.8 651.2 493.1 651 493.7 650.1 494 649.9 497.7 649.9 499.7 650.2 501.3 651.2 501.1 652 501.3 652.6 501.7 653.1 502.5 653.6 505.3 652.1 508.8 651.3 512.3 651.5 515.4 653 516.5 654.4 517.3 656 518.2 657.3 519.8 657.8 521.6 658.1 530 661.4 531.4 662.2 534 664.5 534.9 665 535.8 664.9 538.3 663 539.6 662.5 548.1 662 549.8 662.4 550.8 662.9 552.4 664.2 553.5 664.6 556.7 665 558 665.5 559.4 666.6 563.1 670.5 564.6 671.4 566.3 671.7 569.7 671.3 571.4 671.3 572.5 671.8 578.3 676.4 579.1 676.8 579.6 676.9 581.1 676.7 581.7 676.8 583 677.2 583.8 677.3 584.2 677 584.6 676.4 585.2 676.1 586.1 676.7 586.5 675.9 587.2 675.5 588.1 675.5 589.1 676.1 590.5 674.6 592.4 675 594.3 676.2 595.6 677.3"/><polygon class="i" points="305.5 555.8 304.9 556 304.3 556.4 303.4 557.4 301.9 559.7 301.4 560.9 300.6 562.9 299.6 564.5 299.4 565.1 299.3 565.9 299.4 567.3 299.9 569.1 299.7 571.9 299.7 573.4 299.6 573.9 299.1 574.2 298.1 574.5 297.7 574.7 297.1 575.4 296.8 576.5 296.7 577.5 296.5 578.3 296 579.1 295.3 580 295 580.7 294.9 581.6 294.8 583.3 294.9 584.2 295.1 584.8 297.6 589.4 297.8 590.4 297.7 594.2 297.4 595 296.9 596 295.7 597.9 294.4 599.2 294.1 599.6 294 600.5 294.2 603 294.1 603.6 293.8 604.1 293.1 604.5 292.5 604.6 291.5 604.4 290.5 604.5 290.1 604.6 289.3 605.6 286.7 608 286.4 608.3 286.2 608.8 286.2 609.6 286.6 612.9 286.5 618.9 286.9 620.2 287.9 621.7 288.2 622.5 288.2 623.1 288 623.7 287.6 624.4 286.8 625.3 286.2 625.9 285.9 626.3 285.8 626.8 285.7 627.5 285.9 628.8 285.9 629.7 285.5 630.9 285.3 631.6 284.1 633.9 283.5 634.4 282.3 634 281.8 634.1 280.2 634.7 279.6 635.4 279.5 635.9 279.8 636.8 281.2 638.2 281.7 638.9 281.8 639.5 281.7 640.1 281.3 641.2 280.9 641.8 280.5 642.2 278.2 644.1 277.9 644.5 277.8 645.1 278 645.9 278.2 646.4 278.6 646.7 280.5 648 281.3 648.4 281.9 648.9 282.4 649.6 282.6 650.5 282.4 651.7 282.1 652.2 281.7 652.6 280.6 653.3 280.3 653.7 280.2 654.3 280.5 655.8 280.7 656.3 281.9 658.1 282.5 658.8 283.2 659.4 284 659.8 285.1 659.9 286.1 659.8 286.8 659.4 287.4 658.7 288.2 657.6 288.8 657 289.1 656.7 289.5 656.6 290 656.6 290.9 657 291.6 657.6 292.1 658.2 292.5 659 292.6 659.5 292.6 660.6 291.3 670.1 290.5 672.5 289.8 673.4 289.3 674 288.9 674.2 288.6 674.7 288.5 675.4 288.5 676.6 288.7 677.2 289.3 678 289.3 678.4 288.9 679 288.5 679.4 287.7 680 287.4 680.3 287.3 680.9 287.3 681.9 287.4 683.2 288 684.4 288.6 685 290.3 686.4 290.9 687.1 291.6 687.6 292.6 687.9 293.7 688 294.7 688.3 295.1 688.6 295.3 688.9 295.3 689.4 294.8 690 294 690.8 293.8 691.2 293.1 691.8 292 692.4 291.3 692.9 291 693.2 290.3 694.4 289.7 695.1 289.1 695.7 288.8 696.3 287.8 698.7 287 700.1 286.7 700.4 284.6 705.4 284 706.5 283.5 707.1 282.3 707.7 280.9 708 280.1 708.4 279.8 708.7 279.2 709.4 278 710.7 276.9 711.4 276.5 711.6 275.1 711.9 274.7 712.1 273.4 713.3 273.1 713.5 271.5 714.4 270.9 715 262.3 726.7 261.2 727.5 260.4 727.8 259.1 728.1 258.6 728.2 258.5 728.9 258.7 730 259.2 730.5 261.5 732.6 264.5 734.7 265.1 735.3 265.3 735.7 265.6 737.2 265.8 738.1 266.9 740.4 267.3 740.8 267.9 741 276.9 742.1 277.9 742.4 279.2 743.1 279.9 743.6 280.2 743.9 280.3 744.7 280.2 745.8 279.4 750.1 279.4 751.5 279.6 752.5 280 753.3 282.5 761.8 282.4 762.7 281.9 763.9 280.4 766.4 279.7 767.4 279 768.1 274.6 770.2 273.8 770.5 273 770.9 272.3 771.5 272.1 772.8 272.2 773.4 272.6 774.4 272.7 774.8 272.7 775.4 272.5 776.2 272 777.3 271 778.9 270.4 779.6 269.9 780.1 267.6 781.3 266.9 781.9 266.5 782.6 266.2 783.6 265.9 785.9 266 786.9 266.3 787.6 266.8 788.2 267.2 788.9 267.2 789.4 267.1 790 265.5 793 264.6 794 263.2 796.5 262.9 796.8 261.5 797.8 260.9 798.5 260.7 799.2 260.5 800.1 260.5 805 260.6 805.7 260.9 806.6 261 807.1 260.9 807.8 260.7 808.5 260.1 809.4 259.7 809.9 258.8 810.7 257.5 812.2 257 814.2 256.2 820.3 255.2 819.6 253.4 820.4 252.3 818.8 250.1 817.7 244.2 816.5 241.4 816.6 240.5 816.4 240 816 239.5 815.6 239.1 815.4 231.8 814.3 228 814.3 227.1 814.5 226.5 815.1 226.1 815.8 225.2 816.3 223.9 817.5 223 817.9 222.1 817.9 221.4 817.8 220 817.3 219.3 816.8 218.8 816.1 218.1 815.6 215.9 815.2 214.3 814.4 211.7 814 208.1 812.7 206.6 812.4 205.1 812.6 201.5 813.6 200.8 813.9 199.9 813.4 195.4 813.2 193.8 813 192.2 813.1 189.7 813.6 178.7 815.9 175.1 816.6 167.8 818.2 153.2 821.2 142.2 823.4 128.7 826.3 127.1 826.3 120.6 827.6 120.1 826.4 120.1 825.3 120.7 824 118.7 822.4 117.1 820.4 115.4 819.1 114.1 818.5 112.9 818.1 110.1 817.9 108.7 818.1 107.2 818.5 105.7 818.6 104.2 818.2 103.2 817.1 103.2 815.8 103.3 814.4 103.1 813 102.2 812 98.4 810.5 96.4 808.9 94.3 806.4 92.7 803.8 92 801.4 91.5 800.3 87.9 796.5 86.7 795.8 82.6 794.6 77.5 792.4 75.2 790.9 71.8 787.8 69.1 786.3 68 785.4 67.2 784.1 66.3 779.9 65.1 777.5 63.3 775.2 59.5 771 58.3 770.1 53.2 768 52.2 768 51.7 767.6 51.3 766.9 51.3 765.3 51.1 764.6 50 763.4 47.3 762.6 46.1 761.8 45.4 760.7 44.5 758.2 38.3 748.3 37.6 747.5 36.8 747 35.5 746.8 35 746.5 34.5 746 33.9 744.9 32.6 743.1 32 741.9 31.2 741.1 28.9 740.7 28.6 740.5 27.9 739.8 27.5 739.5 26.9 740 26.1 740.2 24.8 740.7 24.2 740.8 23 740.4 15.7 734.3 15.1 733.1 14.9 731.6 14.5 730.3 13.6 729.7 11.9 729.5 11.6 728.9 11.8 727.9 11.9 726.7 11.4 725.4 9.9 723 9.5 721.8 9.6 720.4 10.1 718.7 10.8 717.1 11.6 716 11.7 714.9 10.3 714.2 7.5 713.6 7.3 713 7.3 711.1 7.2 710.2 6.9 709.8 5.8 708.9 5.5 708.4 5.1 707.1 4.9 705.9 4.6 704.8 3.7 703.6 6.6 703.6 3.6 698.7 1.3 695.9 1.1 693.9 1.1 629 1 477.4 2.6 477.6 5.1 478.9 6.2 479.6 8.3 481.7 9.6 482.8 10.6 483.2 11.4 483.3 12.9 483.3 14.3 483 16.8 481.9 17.4 481.2 17.8 480.4 18.3 479.8 19.5 479.1 20.1 478.5 21 476.9 21.6 476.4 22.6 476.2 23.3 476.4 24.1 476.7 26.2 477.7 27.1 478.3 39.5 488.9 45.3 492.5 45.8 492.9 46.5 494.6 46.8 494.9 48.9 496.3 49.4 496.5 50.1 496.6 52.6 496.8 53.3 497.5 54.8 497.9 55.2 498.1 55.7 498.7 56.1 499.4 56.2 500.1 56.7 500.8 57.7 501.2 59.8 501.6 60.7 502.1 61.4 502.7 62.2 503.1 63.3 503.4 64.3 503.2 64.9 502.3 65.1 501.8 66.1 496.7 66.2 496.2 66.6 495.9 67 495.8 71 495.6 71.8 495.2 73.9 493 74.2 492.8 74.8 492.7 75.5 492.8 77.6 493.7 85.1 498.6 86.2 499.8 86.7 500.5 87.2 501.8 87.5 502.8 87.9 503.4 88.5 503.7 89 503.7 90.5 503.4 92.7 502.4 93.7 502.2 94.3 502.3 95.1 502.5 96.1 503.1 96.6 503.6 96.8 504.1 96.8 505.4 96.9 506.5 97.1 507.4 97.5 508.2 98 508.9 99.2 509.7 100 509.9 106.6 510.6 107.1 510.7 107.4 511 107 511.8 105.9 513.2 104 516.1 103.6 517.9 107.1 516.6 107.5 517.7 107.5 518.3 107.1 519.1 110.6 519.1 112 518.3 114.1 516.4 115.6 516 116.7 516.1 117.5 516.3 118.3 516.4 119.4 516 120.3 515.4 122.9 513 125.3 511.8 134.1 509.5 135.6 508.6 138.6 506.3 142.1 505.4 145 503.8 146.4 503.4 147.8 503.9 149.1 504.9 150.6 505.3 153.4 503.6 154.4 503.3 155.3 503.2 156.3 502.8 158.3 500.8 159.2 500.4 159.2 502.1 159.8 503.1 161.1 503.4 162.7 503.4 164.5 504.1 165.2 504.2 166.1 504.3 166.8 503.9 167.7 503.7 168.4 503.2 168.9 503.1 169.6 503.3 170.9 503.9 171.7 504.2 172.7 504.4 173.5 504.3 174.4 504 175.5 503.3 176.4 502.4 177.2 501.4 177.5 501.3 177.9 501.4 178.6 502.2 178.9 502.4 179.5 502.2 179.8 501.7 180.3 500.2 180.9 499.5 181.3 499.4 181.8 499.5 182.4 500.1 183 500.3 183.7 500.4 184.7 500.2 185.4 499.8 185.7 499.6 186.5 498.4 186.8 498.1 187.2 497.9 188.5 498 189 498 189.5 497.8 190 497.1 190.4 496.9 191.3 496.6 192.4 496 192.8 495.9 193.3 496 194.6 497.2 196.2 498.3 196.9 498.7 197.8 498.9 198.5 498.9 199 498.8 199.2 498.5 199.2 498.1 198.9 497.7 198.2 496.9 198.2 496.6 198.7 495.9 198.9 495.6 199.1 494.8 199.5 494.8 200 495 200.9 495.9 201.3 496.5 201.5 497.1 201.5 498.7 202 499.2 202.7 499.6 206 500.6 206.4 500.6 207.1 500.2 207.6 499.6 207.9 499.5 208.6 500.8 208.9 501 209.5 501 210.4 500.1 210.9 500 211.5 500.1 212.7 500.2 213.6 500.1 213.8 499.8 213.7 499.5 213 498.6 213.1 498.3 213.9 498.1 214.3 497.8 214.8 497.1 215.1 497 217 499.1 217.4 499.6 218.4 500.5 219.5 501.1 220.2 501.9 220.7 502.7 221.7 502.7 222.2 502.8 223.1 503.2 223.5 503.2 223.8 503.1 224 502.7 224 502.3 223.8 501.4 223.8 501 224.1 500.8 226 501.2 226.1 501.8 225.9 503.4 226 504.1 226.3 504.3 226.7 504.2 227 503.8 227.1 502.8 227.4 501.9 227.6 501.6 228.9 501.1 229.5 500.6 229.8 500.6 230.6 501.1 232.6 503.5 233.6 504.4 234 505 234.5 505.8 234.7 506.7 235.3 508.3 235.4 508.8 235.3 511.1 235.3 511.6 235.6 512.5 236.1 513.7 236.6 514.4 237 514.8 237.7 515.2 242.1 516.7 243.8 516.9 245.7 517.5 247.8 517.8 248.3 518 257.9 522.9 259.4 523.4 260.3 523.6 263.6 523 264.2 523.1 264.8 523.6 265.7 524.7 266.1 525.4 266.3 526.1 266.3 529.3 265.9 530.9 265.6 531.8 264.9 533 264.1 534.1 263.8 535.1 263.4 537.1 263.2 540.9 262.9 541.8 262 542.8 261 543.6 258.8 544.7 256.9 545.3 256.2 545.8 255.7 546.6 255.6 547.7 255.8 549.7 255.8 550.2 255.4 553 255.6 554 256.1 555.2 257.1 556.6 258.9 558.7 259.6 559.2 260.9 560 261.6 560.2 262.2 560.3 263.6 560.2 265.2 559.6 266 559.5 266.8 559.4 270.8 559.7 271.7 559.7 274.9 558.9 276.6 558.2 277.8 557.6 279.1 557.2 282.8 556.4 283.6 556.1 285.2 555.3 285.6 555.1 286.8 555.1 292.3 555.6 293.9 556 294.9 556.4 295.2 556.7 296 557.2 296.5 557.4 297.2 557.5 298.4 557.4 300 557.3 301.9 556.4 302.3 556 303.4 555.7 305.5 555.8"/><polygon class="j" points="999 204.9 997.6 207.1 996.3 208.3 992.9 210.7 991.8 211.2 990.7 211.9 986.5 216.6 985.2 220.1 984.2 221.6 982.5 222.7 981.2 223 979.6 224.5 978.5 225 977.2 225 974.4 224.4 973.2 224.6 972 225.1 969.8 225.5 968.7 225.9 967.7 226.8 966.1 229.3 964.8 230 963.8 230 962.9 229.8 962.1 230 961.3 231.6 961.2 232.8 961.9 233.3 963 233.3 964.2 233.1 965.4 234.2 966 236.9 966.6 242.1 967.4 244.7 968.6 247.1 970.2 249.3 972.1 251.2 974.8 256.1 974.1 258.7 972.9 261.1 966.9 270.4 966.8 271 967.1 271.9 967 272.5 966.5 272.9 965.2 273.4 964.8 273.9 964.7 275.1 964.8 276.3 964.8 277.4 964.1 278.6 961.9 276.8 961.1 278 961.5 285.4 961.4 286.5 960.9 288.1 959.6 290.8 959.9 291.5 961.3 292 962.7 292.1 964.2 291.9 965.6 292.1 966.8 293.4 967.3 294.8 967.5 297.8 963.3 298.9 959.9 300.4 958.3 302.8 958.3 307 952.6 316.5 949 324.6 937.5 328.2 918.2 334.1 907.4 334.8 902.4 334.8 898.8 338.5 897.4 343.6 893.1 348 888 348 881 346.5 880.9 348.3 880.4 350.1 879.7 351.9 878.2 353.8 878 354.6 873.7 358 872.7 359.1 871.5 361.8 871 362.7 870.2 363.6 869.6 364.1 869.3 364.7 869.2 366 869 366.5 868.1 367.6 867.9 368.3 867.9 372.2 866.1 380.7 865.2 381.8 864.9 383.9 864.5 384.6 864.1 385.2 863.9 386.1 863.9 389 863.3 391.9 863.3 393 863.1 393.9 862.3 395.7 861.9 397.5 861.4 397.9 860.7 398.1 859.9 398.6 859.1 400 857.7 404 857.5 405.6 856.7 406.4 855 407.1 853.2 407.6 852.3 407.7 852 408.5 851.6 409 850.5 410.1 850.1 410.3 849.2 410.3 848.7 410.7 848.6 411.1 848.8 412 848.7 412.5 848.3 413.8 848.1 415.6 848.2 417.4 848.7 419.1 847.7 419.5 847 419.9 846.3 420.1 845.2 419.6 845 420.4 844.6 421 844 421.4 842.2 421.6 841.7 421.9 840.8 423 839.7 423.9 837.8 424.8 836.4 425.7 836 424.9 835.8 424.5 835.3 424.5 835 426.6 833.9 427.9 832.6 429.1 832 430.8 831.8 431.7 831.3 432.3 830.6 432.8 828.9 433.2 828.4 434 826.9 439 826.2 442.5 825.2 445.8 823.2 448.6 816.4 453.7 815 454.3 813.3 454.1 811.6 453.6 810.2 453.4 808.3 454 807.4 454.6 807.4 447.3 807.3 445.8 807.1 444.9 806.1 443.5 804.1 441.3 802.5 438.1 801.9 436.4 800.6 417.3 800.3 415.9 799.8 414.8 799.1 414 798.3 413.6 795.4 412.1 794.9 411.9 793.8 411.8 789.5 411.8 787.8 412.4 787 412.8 786.5 413.4 786.3 413.9 786.2 415.5 786.1 416.3 785.2 418.3 784.7 419.1 784.1 419.6 783.2 419.9 782.7 420 781.1 420 780 419.2 773.6 412.9 772.5 412.1 771.1 412.1 770.3 412 768 411.2 766.4 411 763.4 410.1 762.3 410 759.5 410.7 758.5 410.7 758 410.6 757.1 410.1 756.4 409.6 754.7 408.8 749.5 405.1 748.9 404.5 748.6 403.9 749 401.8 749 401.2 748.8 400.3 747.6 395.8 747.6 394.9 748.5 392.7 748.7 392.3 749.9 391 750.4 390.2 750.8 389.4 750.8 388.1 750.6 387.3 749.8 386.5 748.2 385.8 747.2 385.1 746.6 384.5 746 383.6 744.9 381 744.5 380.6 744 380.3 743.6 380.4 743.2 380.6 742.2 382 740.8 383 739.6 383.6 738.8 383.3 737.6 382.7 735.2 380.8 734.2 379.8 733.6 379.1 733.5 378.6 733.6 377.6 734.3 375.8 734.4 375.2 734.4 374.5 734.1 373.4 733.6 372.7 733.2 372.3 732.4 371.8 730.2 370.8 729.1 370.1 728.5 369.6 728.2 369.2 727.9 368.3 727.8 367.3 727.8 366.3 728 365.4 728.9 363.6 729.1 362.6 729.2 358.7 729.2 358 729 357.3 728.6 356.4 728.1 355.9 727.6 355.6 726.7 355.5 725.7 355.6 724.8 355.9 723.7 355.9 722.9 355.5 722.5 355 722 354.4 721.5 353.5 720.7 352.8 720.2 352.7 719.1 352.7 717.7 352.9 717.1 352.9 716.3 352.7 715 352 714.2 351.6 713.5 351.4 712 351.4 711.1 351.1 709.9 350.4 709.5 350.2 707.4 349.9 706.5 349.5 705.3 348.8 703.9 348.3 702.7 347.6 702.2 347.5 701.2 347.3 699.3 346.6 698.8 346.1 698 344.6 697.6 344.1 697 343.9 696 343.7 695.3 343.5 694.5 343.1 693.3 342.3 692.7 341.8 692.1 341.1 691.7 340.4 690.5 338.7 690.2 338.1 689.9 337.2 689.8 335.7 689.6 334.8 688 331.9 686.5 330 685.8 329.3 685.2 328.9 684.8 328.9 682.8 329.2 681 329.6 674.1 332.5 673.4 333.1 673.2 333.4 672.8 334.3 672.4 338.8 672.1 339.8 671.7 340.6 671 341.7 670.7 342 670 342.5 668.3 342.8 668.3 342.5 668.9 342 669.5 341.1 669.8 340.5 669.4 339.7 669.5 338.6 669.8 337.4 669.8 336.4 669.2 335.3 667.5 333.4 666.8 332.2 666.5 330.7 666.8 326.8 666.2 323.9 666.1 322.3 666.6 321 667.5 320.1 669.7 319.8 670.2 319.6 706.4 313.7 707.8 313.1 708.9 312 723.6 293.1 723.7 292.6 723.2 291.9 723 290.9 723.1 289.9 723.8 288 723.9 287.5 723.9 286.6 724 285.9 724.3 285.4 726.8 284.5 730 281.9 730.9 280.1 731.5 278.1 732.3 276.5 733.8 275.9 734.9 275.7 735.6 275.3 736.1 274.7 736.5 273.9 737 272.2 737.5 271.3 738.2 270.5 739 270.1 740 270.2 741.9 270.5 742.4 270.2 743.3 269.1 743.7 268.8 745.7 267 746.2 266.2 746.9 264 748.8 260.3 755.7 251.5 757.3 248.5 757.5 247.6 757.9 246.6 758.7 245.8 759.5 245.5 760.5 246.7 761.7 246.9 762.1 246.1 760.4 244.3 761.7 244.2 762.7 243.8 763.6 243.3 764.2 243.1 765.1 243 767.5 242.1 768.3 241.7 769 239.7 769.8 236.9 770.9 234.8 772.6 234.8 771.7 235.8 772.5 236.8 774 237.3 775.3 236.9 775.4 234.8 775.8 234 776.7 234.8 777.2 235.7 777.3 236.7 777 237.5 776.2 238.4 778.1 238.4 779.4 237.8 783.2 234.5 783.4 233.4 783.9 232.8 784.5 232.3 784.9 231.8 785.4 230.7 785.1 230.2 783.3 228.3 782.9 227.5 783 226.6 783.7 225.8 786.8 225.9 788.2 225.3 787.8 223.4 787.2 222.9 786.5 222.9 785.9 223.2 785.2 223.4 784.2 223.3 783.9 223 783.7 222.4 783.2 221.7 782.1 220.6 781.9 220 785.7 217.2 786.9 216.6 788.5 216.3 789.9 216.4 791.7 216.7 793.3 217.3 794.3 218.1 794.9 217.4 796.6 216.4 797.2 215.7 797.5 214.8 797.2 211.3 797.4 210.7 798 210.4 799.3 210.4 799.7 210.2 799.6 209.6 799 208.9 799.4 208 800.3 207.7 802.5 207.4 804.1 206.9 807 205.3 808.1 205 808.6 204.7 809.3 203.1 810.1 202.6 811.1 202.8 811.7 203.4 812.1 204.1 812.5 204.4 818 203.3 817.7 181.6 814.8 178.7 806.3 175.1 799.8 170.7 797 160.5 793.4 151.1 786.9 140.2 780.5 133.6 786.2 126.4 788.4 121.3 792.7 119.1 797.7 114.8 802 111.9 807.7 115.5 814.1 115 819.8 117.7 822 111.9 828.4 114 834.9 113.3 840.6 109.7 847.7 106.1 857.8 104.6 866.3 105.3 874.9 107.5 884.2 108.2 883.5 99.5 879.2 90.1 875.9 79.8 877.7 80 888.8 79.8 892.3 80.7 895.4 82.8 896.3 84 897.9 87.9 899.2 89.8 900.3 90.6 903.5 90.8 910.9 92.4 917 93 918.1 93.5 919.2 94.8 919.6 95.5 919.8 96.8 920.3 97.4 921 97.7 922.4 97.5 923.1 97.6 927 100.3 933.4 102.7 934.7 103.5 934.9 108.6 935.3 109.8 936.1 110.5 936.7 110.3 937.2 109.9 938.2 109.8 938.8 110.2 940 111.3 940.8 111.7 940.8 114 939.3 120.3 940.3 122.6 941.5 123 942.4 122.6 943.4 121.9 944.5 121.6 945.5 122.1 945.8 123 946 124.1 946.4 124.9 948.3 125.6 949.1 124 949.4 121.4 949.9 119.2 951.8 120.1 956.4 120.4 958.1 121.6 959.4 123.8 959.8 124.9 959.9 126.2 959.6 127.2 959.2 127.9 958.9 128.7 959.2 130 960 131.2 962.1 132.5 963 133.5 964.3 135.9 965 136.9 966 137.8 967.1 138.4 970.2 139.6 970.8 140.2 972.1 143.7 972.7 146.1 972.1 147.9 969.5 151.9 967.9 156 967.5 158.1 967.4 160.4 968.6 162 975.5 165.1 977.3 166.6 978.7 168.1 980.3 169.4 982.5 170.2 984.1 172.3 985.8 173.5 987 174.9 987.2 177.6 986.6 182.5 986.9 184.6 989.2 189.9 989.9 191 992.3 193.1 992.9 193.8 994.6 197.7 995.9 199.3 998.3 199.6 998.3 201.8 998.9 203.4 999 204.9"/><text class="k" transform="translate(263.67 409.22)">NW%</text><text class="k" transform="translate(706.33 169.22)">NO%</text><text class="k" transform="translate(587.67 297.8)"><tspan class="l">L</tspan><tspan x="14.62" y="0">U%</tspan></text><text class="k" transform="translate(807.4 297.8)">MU%</text><text class="k" transform="translate(807.4 507.89)">ES%</text><text class="k" transform="translate(607.35 638.56)">LS%</text><text class="k" transform="translate(366.33 742.45)">SO%</text><text class="k" transform="translate(515.8 550.83)">CE%</text><text class="k" transform="translate(479.8 433.5)">CB%</text><text class="k" transform="translate(111.67 665.22)">WE%</text></svg>