<svg xmlns="http://www.w3.org/2000/svg" viewBox="0 0 495.47 464.68"><title>Asset 1</title><path d="M366.64,352.86,116.79,417.2A33,33,0,0,1,76.6,393.47L1,100A33,33,0,0,1,24.77,59.86L257.21,0l59.5,26.63,73.66,286A33,33,0,0,1,366.64,352.86Z" style="fill:#f2f2f2"/><path d="M27.14,69.06a23.52,23.52,0,0,0-16.9,28.61L85.8,391.1A23.53,23.53,0,0,0,114.42,408l249.85-64.34A23.53,23.53,0,0,0,381.17,315L308.65,33.43,256.36,10Z" style="fill:#fff"/><path d="M316.07,28.15l-38.66,10A11,11,0,0,1,264,30.2L256.67,1.64a.67.67,0,0,1,.49-.83.69.69,0,0,1,.45,0l58.57,26a.69.69,0,0,1,.35.91A.67.67,0,0,1,316.07,28.15Z" style="fill:#f2f2f2"/><path d="M295.73,278.73,182,308a5.49,5.49,0,1,1-2.74-10.64h0L293,268.08a5.5,5.5,0,0,1,2.74,10.65Z" style="fill:#ccc"/><path d="M322.31,291,186.6,326a5.49,5.49,0,0,1-2.74-10.64l135.71-34.95A5.5,5.5,0,0,1,322.31,291Z" style="fill:#ccc"/><circle cx="135.55" cy="323.88" r="19.42" transform="matrix(0.07, -1, 1, 0.07, -197.12, 436.13)" style="fill:#e6e6e6"/><path d="M283.64,227.9,132.56,266.79a17,17,0,0,1-20.7-12.23l-31.66-123a17,17,0,0,1,12.23-20.7L243.5,72A17,17,0,0,1,264.2,84.2l31.66,123A17,17,0,0,1,283.64,227.9Z" style="fill:#fff"/><path d="M283.64,227.9,132.56,266.79a17,17,0,0,1-20.7-12.23l-31.66-123a17,17,0,0,1,12.23-20.7L243.5,72A17,17,0,0,1,264.2,84.2l31.66,123A17,17,0,0,1,283.64,227.9ZM92.92,112.81a15,15,0,0,0-10.78,18.26l31.66,123a15,15,0,0,0,18.26,10.79L283.14,226a15,15,0,0,0,10.78-18.27l-31.66-123A15,15,0,0,0,244,73.92Z" style="fill:#e6e6e6"/><path d="M235.84,113.33,159.59,133a2.73,2.73,0,0,1-3.31-1.72,2.63,2.63,0,0,1,1.72-3.3l.13,0,77.62-20c3.13,1.59,2.31,4.84.09,5.41Z" style="fill:#f2f2f2"/><path d="M239.28,126.71,163,146.33a2.73,2.73,0,0,1-3.31-1.71,2.64,2.64,0,0,1,1.72-3.3l.14,0,77.61-20c3.14,1.59,2.31,4.84.09,5.41Z" style="fill:#f2f2f2"/><path d="M148.51,158.19l-23.27,6a3,3,0,0,1-3.6-2.13l-7.07-27.46a3,3,0,0,1,2.13-3.6L140,125a3,3,0,0,1,3.6,2.13l7.07,27.46a3,3,0,0,1-2.13,3.6Z" style="fill:#e6e6e6"/><path d="M246.11,154.15,129.74,184.1a2.73,2.73,0,0,1-3.31-1.72,2.64,2.64,0,0,1,1.72-3.3l.14,0L246,148.74c3.13,1.59,2.31,4.84.09,5.41Z" style="fill:#f2f2f2"/><path d="M249.55,167.53,133.18,197.48a2.72,2.72,0,0,1-3.3-1.72,2.63,2.63,0,0,1,1.71-3.3l.14,0,117.73-30.3c3.14,1.58,2.31,4.83.09,5.41Z" style="fill:#f2f2f2"/><path d="M253,180.89l-116.36,30a2.73,2.73,0,0,1-3.31-1.72,2.63,2.63,0,0,1,1.71-3.3l.14,0L252.9,175.48c3.14,1.59,2.31,4.84.09,5.41Z" style="fill:#f2f2f2"/><path d="M256.43,194.27l-116.36,30a2.74,2.74,0,0,1-3.31-1.72,2.62,2.62,0,0,1,1.72-3.3l.13,0,117.74-30.31C259.48,190.45,258.66,193.7,256.43,194.27Z" style="fill:#f2f2f2"/><path d="M259.88,207.64l-116.37,30a2.74,2.74,0,0,1-3.31-1.72,2.63,2.63,0,0,1,1.72-3.3l.14,0,117.73-30.31C262.92,203.82,262.1,207.07,259.88,207.64Z" style="fill:#f2f2f2"/><path d="M137,330.69a2,2,0,0,1-1.27-.09h0l-5.29-2.25a2,2,0,1,1,1.58-3.73h0l3.43,1.46,4.49-10.57a2,2,0,0,1,2.66-1.07h0l0,.07,0-.07a2,2,0,0,1,1.08,2.66l-5.29,12.42a2,2,0,0,1-1.37,1.17Z" style="fill:#fff"/><path d="M462.47,464.68h-258a33,33,0,0,1-33-33v-303a33,33,0,0,1,33-33h240l51,40.63V431.68A33,33,0,0,1,462.47,464.68Z" style="fill:#e6e6e6"/><path d="M204.47,105.18a23.52,23.52,0,0,0-23.5,23.5v303a23.54,23.54,0,0,0,23.5,23.5h258a23.53,23.53,0,0,0,23.5-23.5V140.88l-44.8-35.7Z" style="fill:#fff"/><path d="M412.29,193.28H294.83a5.5,5.5,0,0,1,0-11H412.29a5.5,5.5,0,0,1,0,11Z" style="fill:#509d50"/><path d="M435,211.83H294.83a5.5,5.5,0,1,1,0-11H435a5.5,5.5,0,0,1,0,11Z" style="fill:#509d50"/><path d="M412.29,265.41H294.83a5.5,5.5,0,1,0,0,11H412.29a5.5,5.5,0,0,0,0-11Z" style="fill:#ccc"/><path d="M435,284H294.83a5.5,5.5,0,1,0,0,11H435a5.5,5.5,0,0,0,0-11Z" style="fill:#ccc"/><path d="M412.29,359.52H294.83a5.5,5.5,0,0,1,0-11H412.29a5.5,5.5,0,0,1,0,11Z" style="fill:#ccc"/><path d="M435,378.06H294.83a5.5,5.5,0,1,1,0-11H435a5.5,5.5,0,0,1,0,11Z" style="fill:#ccc"/><circle cx="245.91" cy="197.06" r="19.42" style="fill:#509d50"/><path d="M244,204.47a2,2,0,0,1-1.22-.4l0,0-4.56-3.49a2,2,0,1,1,2.46-3.22h0l3,2.27,7-9.12a2,2,0,0,1,2.84-.37h0l0,.06,0-.06a2,2,0,0,1,.38,2.84l-8.22,10.72a2,2,0,0,1-1.61.79Z" style="fill:#fff"/><path d="M267.33,280.18a19.43,19.43,0,0,1-19.41,19.43h0l-.5,0a19.43,19.43,0,1,1,19.92-19.41Z" style="fill:#ccc"/><circle cx="245.91" cy="363.3" r="19.42" style="fill:#ccc"/><path d="M494.48,137.61H454.55a11,11,0,0,1-11-11h0V97.13a.68.68,0,0,1,.69-.68.71.71,0,0,1,.42.14l50.24,39.8a.69.69,0,0,1,.11,1A.67.67,0,0,1,494.48,137.61Z" style="fill:#ccc"/><path d="M267.33,280.18a19.43,19.43,0,0,1-19.41,19.43h0l-.5,0A42.07,42.07,0,0,1,251.18,261,19.42,19.42,0,0,1,267.33,280.18Z" style="fill:#509d50"/><path d="M289.33,270.91a5.51,5.51,0,0,1,5.5-5.5H324.1a41.21,41.21,0,0,1,3.61,11H294.83A5.51,5.51,0,0,1,289.33,270.91Z" style="fill:#509d50"/><path d="M328.39,284a42.1,42.1,0,0,1-1.46,11h-32.1a5.5,5.5,0,1,1,0-11h33.57Z" style="fill:#509d50"/><path d="M435.81,379.46a8.3,8.3,0,0,1-11.41,2.76l-96.85-59.07A8.3,8.3,0,1,1,336.19,309L433,368.05A8.3,8.3,0,0,1,435.81,379.46Z" style="fill:#3f3d56"/><path d="M339,320.38a66.41,66.41,0,1,1-22.12-91.27h0A66.48,66.48,0,0,1,339,320.38Zm-99.22-60.51a49.81,49.81,0,1,0,68.46-16.59A49.81,49.81,0,0,0,239.74,259.87Z" style="fill:#3f3d56"/></svg>