<svg xmlns="http://www.w3.org/2000/svg" viewBox="0 0 418.39 259.47"><title>Asset 1</title><path d="M52.08,243.9H4.83A4.82,4.82,0,0,1,0,239.08V173.93a4.82,4.82,0,0,1,4.83-4.82H52.08a4.82,4.82,0,0,1,4.83,4.82v65.15A4.82,4.82,0,0,1,52.08,243.9Z" style="fill:#e6e6e6"/><path d="M138.26,243.9H91a4.82,4.82,0,0,1-4.83-4.82V112.14A4.82,4.82,0,0,1,91,107.32h47.25a4.82,4.82,0,0,1,4.83,4.82V239.08A4.82,4.82,0,0,1,138.26,243.9Z" style="fill:#e6e6e6"/><path d="M224.44,243.9H177.19a4.82,4.82,0,0,1-4.83-4.82V173.93a4.82,4.82,0,0,1,4.83-4.82h47.25a4.82,4.82,0,0,1,4.83,4.82v65.15A4.82,4.82,0,0,1,224.44,243.9Z" style="fill:#e6e6e6"/><path d="M310.62,243.9H263.37a4.72,4.72,0,0,1-4.83-4.6V87.54a4.72,4.72,0,0,1,4.83-4.61h47.25a4.72,4.72,0,0,1,4.83,4.61V239.3A4.72,4.72,0,0,1,310.62,243.9Z" style="fill:#e6e6e6"/><path d="M396.8,243.9H349.55a4.82,4.82,0,0,1-4.83-4.82V43.85A4.84,4.84,0,0,1,349.55,39H396.8a4.84,4.84,0,0,1,4.83,4.83V239.08A4.82,4.82,0,0,1,396.8,243.9Z" style="fill:#f2f2f2"/><circle cx="28.46" cy="139.84" r="9.76" style="fill:#3f3d56"/><circle cx="114.64" cy="76.42" r="9.76" style="fill:#3f3d56"/><circle cx="200.81" cy="139.84" r="9.76" style="fill:#3f3d56"/><circle cx="286.99" cy="45.53" r="9.76" style="fill:#3f3d56"/><circle cx="373.17" cy="9.76" r="9.76" style="fill:#3f3d56"/><polygon points="201.02 142.02 114.64 77.32 29.43 141.14 27.48 138.54 114.64 73.26 200.61 137.65 286.04 44.16 286.39 44.02 372.57 9.3 373.78 12.31 287.94 46.9 201.02 142.02" style="fill:#3f3d56"/><path d="M413.57,259.47H366.31a4.83,4.83,0,0,1-4.83-4.83V59.42a4.83,4.83,0,0,1,4.83-4.83h47.26a4.82,4.82,0,0,1,4.82,4.83V254.64A4.82,4.82,0,0,1,413.57,259.47Z" style="fill:#509d50"/></svg>