<svg xmlns="http://www.w3.org/2000/svg" viewBox="0 0 355.8 321.71"><title>Asset 1</title><g style="opacity:0.20000000298023224"><path d="M295.17,306.93a19.25,19.25,0,0,1-.37,3.21q-10.44-1.67-21-3v-.86a16.93,16.93,0,0,1,2.5-8.48c2.06-3.26,5.19-5.3,8.64-5.19s6.44,2.34,8.29,5.71A16.86,16.86,0,0,1,295.17,306.93Z" style="fill:#3f3d56"/><ellipse cx="285.04" cy="289.51" rx="14.01" ry="10.7" transform="translate(-13.33 565.26) rotate(-88.19)" style="fill:#3f3d56"/><ellipse cx="285.59" cy="272.39" rx="14.01" ry="10.7" transform="translate(4.31 549.23) rotate(-88.19)" style="fill:#3f3d56"/><ellipse cx="286.12" cy="255.27" rx="14.01" ry="10.7" transform="translate(21.94 533.18) rotate(-88.19)" style="fill:#3f3d56"/><ellipse cx="286.66" cy="238.15" rx="14.01" ry="10.7" transform="translate(39.57 517.14) rotate(-88.19)" style="fill:#3f3d56"/><path d="M250.27,119.69a49.33,49.33,0,0,1-3.8-6L274.73,110l-30.42-.73a51.38,51.38,0,0,1,.31-40.64L284.74,91,248,62.2a51.28,51.28,0,1,1,82.84,60,51,51,0,0,1,5.55,9.53l-37.09,17.8,39.33-11.83a51.34,51.34,0,0,1-9.82,47.91,51.28,51.28,0,1,1-80.56-2.54,51.29,51.29,0,0,1,2-63.38Z" style="fill:#00bfa6"/><path d="M340.8,154.27a51,51,0,0,1-12,31.34,51.28,51.28,0,1,1-80.56-2.54C241.67,174.14,341,148.52,340.8,154.27Z" style="opacity:0.10000000149011612;isolation:isolate"/></g><path d="M263.15,63.71a22.66,22.66,0,0,1,3,1.95,19.52,19.52,0,0,1,3,3.29c4.29,5.55,8.25,12,7.83,19a7.69,7.69,0,0,1-2.23,5.5C273,95,270.44,95,268.12,95c-2.52,0-5.17,0-7.35-1.3s-4-3.83-6.58-3.77a3.38,3.38,0,0,1-1.1,0c-.89-.29-1.07-1.46-1.65-2.2-1-1.33-3.11-1-4.68-.42s-3.31,1.45-4.86.78A5.05,5.05,0,0,1,239.79,86c-3.71-6-4.5-13.21-5.2-20.18-.43-4.24-3.71-18.7,5.34-15.41,4,1.44,7.74,4.32,11.38,6.43Z" style="fill:#3f3d56"/><path d="M254.21,65.14a4.45,4.45,0,0,0,5.49-.22,8.28,8.28,0,0,0,2.67-5.18c1-.31,1.51,1,2.15,1.8,1.12,1.36,3.4,1.34,4.42,2.79.71,1,.55,2.39,1.05,3.52.65,1.46,2.26,2.22,3.36,3.4a11.58,11.58,0,0,1,2.2,4.39l1.64,4.92a24.13,24.13,0,0,1,1.5,6.37,8.22,8.22,0,0,1-1.9,6.09c-2.2,2.37-5.81,2.62-9,2.55a11.63,11.63,0,0,1-3.16-.37c-2.83-.88-4.64-3.73-5.39-6.6s-.67-5.88-1.11-8.82a34.13,34.13,0,0,0-2.5-8.38c-.88-2.08-3.3-5.18-3.26-7.39C253.09,64,253.61,64.67,254.21,65.14Z" style="fill:#3f3d56"/><path d="M257.8,55a16.44,16.44,0,0,1-.81-4.39c0-3,1.37-5.82,2.75-8.5l-11.43,1.55c-1.38.19-2.92.47-3.7,1.62a4,4,0,0,0,0,3.69A19,19,0,0,1,246,52.55a18.25,18.25,0,0,0,.37,3.21,6.9,6.9,0,0,0,1.47,2.07c3.27,3.62,5.72,7.89,8.16,12.12-.07-.12,6.89-5.51,6.61-7.27-.16-1-2.17-2.2-2.81-3.16A16.06,16.06,0,0,1,257.8,55Z" style="fill:#be6f72"/><polygon points="355.8 15.94 355.8 25.79 187.13 58.69 178.38 63.99 148.19 63.99 148.19 58.44 313.91 18.4 355.8 15.94" style="fill:#f1c0c0"/><polygon points="355.8 25.79 187.13 58.69 178.38 63.99 148.19 63.99 315.14 28.26 355.8 25.79" style="opacity:0.10000000149011612;isolation:isolate"/><path d="M220.38,295.56a13.06,13.06,0,0,0-15.9-3.38,4.38,4.38,0,0,0-1.46,1.14c-1,1.4-.36,3.33-.27,5.06.23,4.22-3.13,7.65-6.15,10.6a14.54,14.54,0,0,0-4,5.42c-.73,2.15-.19,4.88,1.77,6a7.33,7.33,0,0,0,2.74.76,29.8,29.8,0,0,0,9.7.27c3.19-.61,6.32-2.42,7.7-5.36a5.75,5.75,0,0,1,1.29-2.13c1.76-1.39,4.46.24,6.46-.75,1.65-.82,1.72-2.11,1.74-3.81C224.06,304.68,223.36,299.36,220.38,295.56Z" style="fill:#00bfa6"/><path d="M244.38,295.38c1.23,3.24,1.4,6.77,1.56,10.23.09,2,.15,4.14-.93,5.83s-3.19,2.58-5.21,3c-4.17.86-9,.05-11.69-3.26-2.06-2.53-2.49-6-2.11-9.28.32-2.69,1-5.84-.93-7.75-.5-.51-1.15-.87-1.61-1.42-1-1.22-.84-3.06-.3-4.56a19.93,19.93,0,0,0,1.57-4.51c.08-.74,13.54.52,14.78,1.13,1.69.83,1.43,2.22,1.94,3.9C242.16,291,243.52,293.14,244.38,295.38Z" style="fill:#00bfa6"/><path d="M246.85,151.72c2.64,1.71,3.66,5.07,4.07,8.19,1.13,8.55-.85,17.19-1,25.82-.14,12.09,3.36,24.4.37,36.11-1.79,7-.27,15-1.95,22.07-.5,2.1-1.42,4.08-1.9,6.18-1,4.55.05,9.31,1.46,13.76a14,14,0,0,1,.85,3.73,13.52,13.52,0,0,1-1.46,5.64l-6,14.19c-.67,1.59-3.31,1.85-5,2.06-3.18.38-6.73.65-9.26-1.32s-3.14-5.27-3.53-8.35a128,128,0,0,1-1-17.83,14.71,14.71,0,0,0-.41-4.63c-.55-1.71-1.76-3.19-2.09-5-.42-2.34.77-4.64,1.21-7a21.08,21.08,0,0,0-.1-6.49c-.39-3.2-.84-6.4-1.35-9.58-.72-4.45.31-8.84,1-13.3.65-4.19-.18-8.46-1-12.62a34.78,34.78,0,0,1-1.25,10c-.53,1.59-1.29,3.11-1.75,4.73-2,7.27,2.32,14.9,1.7,22.43-.29,3.52-1.67,7-1.28,10.47.27,2.54,1.45,4.87,2.26,7.29s1.23,5.19,0,7.45c-3.25,6.14-.82,14.49,2.09,20.79a27.41,27.41,0,0,1,1.54,3.46c.86,2.84.14,5.89.37,8.85a5.56,5.56,0,0,1-4.69-1.41c-.44-.46-.8-1-1.23-1.48a12.29,12.29,0,0,0-4.18-2.61,5.49,5.49,0,0,0-3-.69,6,6,0,0,0-2.85,1.77,27.94,27.94,0,0,1-3.14,2.39,3.79,3.79,0,0,1-1.6.71,1.42,1.42,0,0,1-1.47-.75,1.86,1.86,0,0,1-.11-.52,79.14,79.14,0,0,1-.59-9.1c0-5.23-6.26-8.83-7.05-14-.63-4.17.54-8.42.15-12.62-.19-2.16-.79-4.28-.75-6.44,0-1.4.32-2.77.43-4.16a31.12,31.12,0,0,0-.07-4.63l-.31-4.83c-.3-4.77-.63-9.64-2.51-14a47.51,47.51,0,0,1-3.9-16.08c-.2-3.5-.07-7-.47-10.51-.36-3.17-1.16-6.32-.93-9.5.19-2.46,1-4.84,1.19-7.3.39-4.73-1.41-9.33-2.82-13.86s-2.45-9.55-.6-13.92a4.64,4.64,0,0,1,1.28-1.86,5.6,5.6,0,0,1,2.36-.88,183.1,183.1,0,0,1,52.22-3.33A17.29,17.29,0,0,1,246.85,151.72Z" style="fill:#3f3d56"/><circle cx="190.08" cy="29.49" r="16.02" style="fill:#be6f72"/><path d="M187,49.5a5.73,5.73,0,0,1,0,2.79,6.42,6.42,0,0,1-1,1.76,45.2,45.2,0,0,1-5.13,5.58,9.29,9.29,0,0,0,4.79,4.73,27.74,27.74,0,0,0,6.61,1.89,6.93,6.93,0,0,0,6.48-1.12l8.9-5.33a17.68,17.68,0,0,0,3.7-2.67,9.11,9.11,0,0,0,2.58-6.26,1.71,1.71,0,0,0-.32-1.18,2.05,2.05,0,0,0-1.22-.51c-3.13-.69-5.6-3.23-7-6.11a32.7,32.7,0,0,1-2.43-9.27l-9.49,5c-1.41.75-2.81,1.5-4.27,2.15-.93.42-2.81.77-3.47,1.62C184.4,44.14,186.65,47.61,187,49.5Z" style="fill:#be6f72"/><path d="M180.86,56.72a10.51,10.51,0,0,0-3.07,4.15c-.62,2,0,4.11.56,6.09a181,181,0,0,1,6,25.79c.84,6,1.15,12.09,1.56,18.16.84,12.38,2.06,32.12,3.69,44.42,6,.27,11.85-1.48,17.8-2.12,11.12-1.18,22.57,1.52,33.46-1-2.64-10.43-5.28-28.24-7.92-38.66A73.4,73.4,0,0,1,230.52,101c-.23-3-.09-6.11-.05-9.18.09-6-.24-12-.57-18-.38-7-.76-14-2.42-20.85a3.89,3.89,0,0,0-1.16-2.29c-1-.73-2.3-.47-3.49-.31a15.19,15.19,0,0,1-10.38-2.46c-1.32-.9-3.09-2-4.32-1a4.34,4.34,0,0,0-1,2.13,10.65,10.65,0,0,1-6.26,6.17A31.2,31.2,0,0,1,192,57a4.34,4.34,0,0,1-2.75-.31c-1.42-.87-1.52-4-3.31-4.21C184.38,52.33,181.92,55.71,180.86,56.72Z" style="fill:#3f3d56"/><path d="M204.52,81.14c-3.69-3.53-5.31-8.65-8-13a28.79,28.79,0,0,0-6.91-7.6,20.49,20.49,0,0,1-3.76-3.19c-.95-1.17-1.67-2.73-3.11-3.18a3.75,3.75,0,0,0-3.37.93,33,33,0,0,0-2.5,2.66c-4.24,4.39-11.69,5-15.05,10.08A8.28,8.28,0,0,0,160,71.59a29.07,29.07,0,0,0,5.34,20.9,7.07,7.07,0,0,0,3.7,3,11.61,11.61,0,0,0,.72,5.5,147.07,147.07,0,0,0,6.81,18.55,45.08,45.08,0,0,0-1.34,7.19c-.7,6.11,0,12.31-.71,18.43-.54,5-2,9.87-2.05,14.88,0,.8.07,1.75.76,2.16a2.35,2.35,0,0,0,1.19.25l12.3.37c7.14.21,14.35.42,21.38-.9a9.08,9.08,0,0,0,2.69-.85c2.38-1.33,3.17-4.33,3.55-7a61,61,0,0,0,.59-10.46c1.49,4.71,3.26,9.58,7.76,11.62,2.38,1.08,5.1,1,7.71.93a145.39,145.39,0,0,0,16.79-1.73,2.22,2.22,0,0,0,2.47-1.92,2.35,2.35,0,0,0,0-.65l.06-5.46c.12-11.09-2.63-21.69-3.7-32.73-.34-3.48-.31-7-1.16-10.41-.35-1.43-.86-2.83-1.17-4.27a30.69,30.69,0,0,1-.5-4.27l-.78-11c-.37-5.09-.9-10-1.29-15.08A72.55,72.55,0,0,0,239,54c-.87-3-2.68-6.4-5.81-6.77-1.67-.19-3.29.54-4.88,1a19.74,19.74,0,0,1-12,0,16.66,16.66,0,0,0-3.74-1,3.66,3.66,0,0,0-3.42,1.42,5.11,5.11,0,0,0-.53,2.52C208.14,61.14,207.27,71.43,204.52,81.14Z" style="fill:#00bfa6"/><path d="M188.43,81.44c-4.61-4.86-9.34-9.81-15.28-12.9-2.34-1.22-5-2.14-7.59-1.68s-5,2.71-4.88,5.34c.08,1.63,1.07,3.07,1.38,4.67.36,1.8-.16,3.72.4,5.46a9.36,9.36,0,0,0,2,3.07l7.08,8.39c3,3.5,6,7,9.86,9.47s8.86,3.55,13.1,1.83a16,16,0,0,0,7.18-6.59c1.76-2.8,3-5.86,4.65-8.75a43.48,43.48,0,0,1,10-12.13c-2.08-.54-4.69-1.3-6-3a10.29,10.29,0,0,1-1-1.72l-1.62-3.5a4,4,0,0,0-3,1.13,25.14,25.14,0,0,1-2.23,2.27c-1.41,1.06-3.32,1.35-4.6,2.56A12.82,12.82,0,0,0,196.59,77,11.23,11.23,0,0,1,188.43,81.44Z" style="fill:#3f3d56"/><path d="M216.7,60.53c3.47-6.33,3.31-13.92,4.3-21.07a9.65,9.65,0,0,1,1.91-5.23c2-2.26,5.53-2.29,8.55-2,.89.1,2,.52,1.95,1.41a1.85,1.85,0,0,1-.45.85A23.76,23.76,0,0,0,228,47.61c1.57,1.09,4-1.15,5.51,0,1,.84.54,2.5-.06,3.7q-2.08,4.17-4.31,8.28a26.35,26.35,0,0,1-4.57,6.59c-1.27,1.22-2.76,2.18-4.05,3.38-3,2.81-4.81,6.78-7.91,9.52a1.32,1.32,0,0,1-2,0,15.16,15.16,0,0,1-3.78-4.57c-1.18-2.18-1-2.82.86-4.36C211.14,67.44,214.53,64.49,216.7,60.53Z" style="fill:#be6f72"/><path d="M182.63,77.14c.6.37,1.34.79,2,.48a2.08,2.08,0,0,0,.67-.65A23.54,23.54,0,0,0,188.14,72a1.87,1.87,0,0,0,.21-.8c0-.64-.57-1.11-1.1-1.48a40.74,40.74,0,0,0-9.09-4.32,18.76,18.76,0,0,0-8.2-1.62,7.82,7.82,0,0,0-5.47,2.78c-2,2.57,1.35,3.35,3.45,4.28C172.8,73.08,178.06,74.36,182.63,77.14Z" style="fill:#00bfa6"/><path d="M179.48,94.14a1.48,1.48,0,0,0,.42,1.26c.29-1.42-.09-2.92.21-4.35.44-2.15,2.53-3.77,2.71-5.93C179,84.37,179.51,91.82,179.48,94.14Z" style="opacity:0.10000000149011612;isolation:isolate"/><polygon points="355.8 15.94 355.8 25.79 315.14 28.26 313.91 18.4 355.8 15.94" style="opacity:0.20000000298023224;isolation:isolate"/><path d="M175.66,31.87c2.54-2.07,1.07-6.41,2.79-9.19a8.93,8.93,0,0,1,4.35-3,19.76,19.76,0,0,1,6.35-1.76,7.39,7.39,0,0,1,6,2.21c.65.74,1.09,1.64,1.7,2.41a6.5,6.5,0,0,0,6.3,2.18c1.33-.3,2.71-1.31,2.62-2.67a3.75,3.75,0,0,0-1.2-2.14l-2.86-3.17c-3.25-3.6-6.86-7.42-11.63-8.32-3.32-.63-6.72.26-9.92,1.33-1.29.43-2.74,1.07-3.1,2.38-.24.9.12,1.88-.09,2.79-.41,1.81-2.73,2.42-3.81,3.94s-.75,3.32-1.06,5-1.21,3.32-1.32,5.06c-.07,1,.46,3,1.64,3.38S174.93,30.62,175.66,31.87Z" style="fill:#3f3d56"/><path d="M204.8,20.61a30,30,0,0,0-5.32-12.16A21.26,21.26,0,0,0,190,.93a13.56,13.56,0,0,0-11.79.93,17.18,17.18,0,0,0-5.89,7.43c-2.59,5.58-3.55,12.4-.54,17.76,1.2-1.46,3.26-.8,5.08-1.33,2.28-.65,4.21-2.17,6.38-3.12C189.8,19.71,197.8,22.05,204.8,20.61Z" style="fill:#fed253"/><path d="M173.32,20.3c-.23-1.8-.38-3.89.9-5.17a.65.65,0,0,1,.53-.24.7.7,0,0,1,.41.36A22.38,22.38,0,0,1,177,18.93a3.82,3.82,0,0,0-4,1.55" style="opacity:0.10000000149011612;isolation:isolate"/><path d="M196.69,15.22l-.36-3.57a1.65,1.65,0,0,1,.07-.88,1.13,1.13,0,0,1,1.46-.4A3,3,0,0,1,199,11.54a21.31,21.31,0,0,1,2.06,4.07,12.1,12.1,0,0,0-4.87.06" style="opacity:0.10000000149011612;isolation:isolate"/><polygon points="205.64 160.11 205.64 168.27 198.75 168.73 162.51 168.73 162.51 160.11 205.64 160.11" style="opacity:0.10000000149011612;isolation:isolate"/><polygon points="205.64 160.11 205.64 168.73 162.51 168.73 47.93 25.2 47.93 18.42 71.95 18.42 205.64 160.11" style="fill:#f1c0c0"/><polygon points="205.64 160.11 205.64 168.73 162.51 168.73 47.93 25.2 47.93 18.42 71.95 18.42 205.64 160.11" style="opacity:0.10000000149011612;isolation:isolate"/><polygon points="205.64 160.11 205.64 168.73 162.51 168.73 47.93 25.2 47.93 18.42 163.13 160.11 205.64 160.11" style="opacity:0.10000000149011612;isolation:isolate"/><path d="M63,304a3,3,0,0,1-2.4,3.5l-.22,0c-2.78.94-5.73,1.87-7.7,4s-2.36,6.08,0,7.81a7.53,7.53,0,0,0,4,1.09c4.53.31,9.25.25,13.36-1.67,2.94-1.36,5.71-3.68,8.94-3.47,1.67.1,3.45.88,4.94.12s1.91-2.88,1.92-4.65a34.43,34.43,0,0,0-1.65-10.89c-.15-.48-6.51-.85-7.27-1l-7.71-1c-1.46-.19-4.61-1.29-5.76-.07S63,302.52,63,304Z" style="fill:#00bfa6"/><path d="M109,279a24.55,24.55,0,0,0,1.58,5.24c1.07,2.72,2.44,5.61,5.06,6.93,2.38,1.19,5.3.76,7.72-.37a6.34,6.34,0,0,0,2.57-1.95,7.74,7.74,0,0,0,1-4.49c0-3.87-.23-7.87-2-11.31-1.52-3-4.17-5.58-4.21-8.9l-9.11,1.76a2.62,2.62,0,0,0-1.34.53,2.27,2.27,0,0,0-.58,1.09A29.76,29.76,0,0,0,109,279Z" style="fill:#00bfa6"/><path d="M.17,184c-.38,3.22-.22,6.67,1.46,9.45s5.22,4.62,8.28,3.51a1.2,1.2,0,0,0,.75-.57,1.39,1.39,0,0,0-.13-1,14.76,14.76,0,0,1,.31-11.12c.2-.46.63-1,1.1-.82a1,1,0,0,1,.45.46,5.23,5.23,0,0,1,.7,2.76,10.23,10.23,0,0,0-.08,2.65c.19.86,1.11,1.67,1.91,1.3a2,2,0,0,0,.91-1.29c2.23-6.45,1.22-13.5.2-20.25A1.07,1.07,0,0,0,15,168h-.19c-4.72-.47-7.3-1.6-10,2.79C2.52,174.47.17,179.56.17,184Z" style="fill:#00bfa6"/><path d="M55.35,167.6c-1.4,5.82-2.81,11.71-2.9,17.69a83,83,0,0,0,.84,11.13l1.05,8.66c.36,2.92.71,5.83,1.22,8.72a23.06,23.06,0,0,1,.53,4.53,24.85,24.85,0,0,1-.71,4.45,51.85,51.85,0,0,0-1.05,9.3c-.11,5,.51,10,.9,15A167.05,167.05,0,0,1,54.88,277a11.25,11.25,0,0,0,1.64,7.71A10,10,0,0,1,58,287.09c.75,2.29-1,4.58-1.45,6.93a7,7,0,0,0,5.82,8c8,1,16.22.52,23.43,4.18.76-2.22-.9-4.74-.14-7,.48-1.4,1.8-2.31,2.7-3.49a10.18,10.18,0,0,0,1.72-6.1,22.25,22.25,0,0,0-1.48-8.27c-.85-2.2-2.07-4.37-2-6.73,0-1.16.41-2.38-.06-3.45a5.42,5.42,0,0,0-1.29-1.61A20.36,20.36,0,0,1,80,257.7a54.53,54.53,0,0,1,.42-13.14c.49-4.14,1.15-8.51,3.78-11.74a75.38,75.38,0,0,1,2.11-29.25c.26-.88.67-1.9,1.57-2.11a2.25,2.25,0,0,1,1.92.76c1.57,1.47,2.32,3.6,3,5.64.75,2.21,1.51,4.57.94,6.83-.24,1-.72,1.88-1,2.84a8.42,8.42,0,0,0,.3,5.87,5.59,5.59,0,0,1,.72,2.21,5.89,5.89,0,0,1-.6,1.92,8.84,8.84,0,0,0,.83,7.15,26.28,26.28,0,0,0,4.67,5.73A21.06,21.06,0,0,0,99.3,252a1.44,1.44,0,0,1,.13,1.11c-.18.38-.64.52-1,.79-1,.82-.38,2.37.29,3.44a78.49,78.49,0,0,0,6.07,8.42c2,2.39,1.82,7,4.8,7.86a9,9,0,0,0,3.8,0c2.94-.45,6.22-1.3,7.66-3.9.59-1.07.83-2.37,1.75-3.17s2.11-.94,2.62-1.9-.06-2.22.11-3.33,1.14-2,1.45-3.17c.74-2.7-2.41-4.92-2.84-7.68-.62-4,4.42-7,4.21-11-.44-8.69-.72-17.42-1.17-26.11a190.15,190.15,0,0,1-.24-23.39c.35-4.85,1-9.93-.78-14.44-2.56-6.36-9.62-9.93-16.45-10.61s-13.64.94-20.41,2A129.09,129.09,0,0,1,55.35,167.6Z" style="fill:#3f3d56"/><circle cx="75.65" cy="56" r="16.02" style="fill:#fbbebe"/><path d="M69.13,75a6.83,6.83,0,0,1-6.53,4.13c-.58,2.4.81,4.82,2.4,6.71A28.48,28.48,0,0,0,92.26,95.2,13.48,13.48,0,0,0,97.63,93a11.91,11.91,0,0,0,4.1-7.1,35.38,35.38,0,0,0,.39-8.35,2.14,2.14,0,0,0-.44-1.54,2.2,2.2,0,0,0-1.4-.46c-3.38-.3-6.91-.43-9.88-2.09S85.32,68,86.75,64.93c-.23.48-6.07.71-6.84.81-2.41.34-4.82.72-7.22,1.16a13.1,13.1,0,0,0-3.39.64c-1.45.75-.91.38-.57,1.74C69.24,71.36,70,72.85,69.13,75Z" style="fill:#fbbebe"/><path d="M81.32,84.75A26.58,26.58,0,0,1,74.91,84a9,9,0,0,1-5.26-3.51c-.74-1.12-1.22-2.53-2.4-3.16-1.93-1-4.13.69-5.67,2.24a20.5,20.5,0,0,1-4.82,3.88c-2.14,1.13-4.64,1.53-6.66,2.86a16.79,16.79,0,0,0-4,4.32L31.93,110c-5.69,7.76-10.64,16.09-15.71,24.28-4.39,7.09-6.69,15.25-10,22.9a2.59,2.59,0,0,0-.31,1.54c.12.52.75.94,1.19.64-1.49,1.48-.18,4-.53,6.08a7.45,7.45,0,0,1-2.38,3.73,18.78,18.78,0,0,1,6.6.31,20.11,20.11,0,0,1,6.24,3c1.21-.19,1.1-2.34,2-3.14.54-.47,1.34-.41,2-.55,2.67-.52,3.73-3.73,5.78-5.54,1.71-1.51,4.13-2,5.94-3.42,2.94-2.31,3.57-6.42,5.11-9.83,1.31-2.89,3.37-5.41,4.52-8.37.75-1.92,1.11-4,2.18-5.77,1.71-2.86,4.93-4.38,8-5.75,1.94-.87,4-1.77,6.09-1.63-.11,4.65-.7,9.23.31,13.77.35,1.6.84,3.16,1.26,4.75,1.91,7.16,2.36,14.62,2.45,22a67.39,67.39,0,0,1,14-1.68c3.71-.11,7.41.37,11.12.3,4.4-.08,8.75-.93,13.15-1.23s9,0,12.89,2a121.77,121.77,0,0,1,.53-19l1.06-9.94a60.5,60.5,0,0,1,1.33-8.58c.58-2.28,1.42-4.48,2.06-6.75,2.25-8,1.84-16.54,1.41-24.87-.22-4.28-1.87-8.49-3.81-12.3a32.07,32.07,0,0,0-2.4-4.08,23.6,23.6,0,0,0-20.66-9.7,4.18,4.18,0,0,0-1.48.32A5,5,0,0,0,90,75.71,24.52,24.52,0,0,1,81.32,84.75Z" style="fill:#3f3d56"/><path d="M61.56,61.31c.45-1,1.66-1.37,2.4-2.17,1.42-1.52.78-4,1-6,.36-3,2.85-5.51,5.7-6.58a18.44,18.44,0,0,1,9-.57,8.75,8.75,0,0,1,4.06,1.35c.52.38,1,.87,1.49,1.22a4,4,0,0,0,5.44-1.27C87.11,43,83.19,38.53,77.81,37.22a26.41,26.41,0,0,0-5.61-.53c-2.49,0-5.06-.09-7.36.86-3.13,1.29-5.33,4.26-6.46,7.46a36.06,36.06,0,0,0-1.57,10,38.61,38.61,0,0,0,0,6.8,18.8,18.8,0,0,0,3.34,8.57,2.56,2.56,0,0,0,1,.93C65.71,73.31,61.19,62.14,61.56,61.31Z" style="fill:#3f3d56"/><path d="M90.13,44.82c-.55-4.71-3.91-8.6-7.48-11.73A27.58,27.58,0,0,0,72.6,27c-3.77-1.11-8.11-.87-11.34,1.38C58.66,30.23,57,33.11,55.74,36a23.91,23.91,0,0,0-2.41,11c.25,3.78,2.09,7.61,5.37,9.52,1.18-1.74,3.23-2.64,5.2-3.35A253.77,253.77,0,0,1,90.13,44.82Z" style="fill:#fed253"/><path d="M59.8,42.86c.32,0,.53.33.69.6a26.22,26.22,0,0,1,2.09,4c-1.17.25-3.18.53-3.76-.5C58.51,46.44,58.88,42.81,59.8,42.86Z" style="opacity:0.10000000149011612;isolation:isolate"/><path d="M82.59,40.6c-.24.23-.52-.24-.52-.58V36.14a.55.55,0,0,1,.07-.31.46.46,0,0,1,.33-.16c.81-.09,1.48.6,2,1.26a20.7,20.7,0,0,1,2,3.41l-4.23-.13" style="opacity:0.10000000149011612;isolation:isolate"/><path d="M135.38,104.85a26.17,26.17,0,0,1,2.94-2.41c2.77-1.85,6.12-2.58,9.23-3.76s6.27-3.09,7.48-6.19a14.68,14.68,0,0,0,.58-6,6,6,0,0,0-.44-2.47,4.91,4.91,0,0,0-1.58-1.72c-4.22-3.12-9.88-3.37-15.12-3a94.77,94.77,0,0,0-33.41,8.34A2.12,2.12,0,0,0,103.39,90a23,23,0,0,0,1.13,8.71c1.38,3.56,4.22,6.43,5.41,10.06.54,1.63.72,3.36,1.19,5a7.05,7.05,0,0,0,2.81,4.18c3.95,2.36,7.68-.81,10.42-3.27Z" style="fill:#3f3d56"/><path d="M83.65,118.7l-5.07-11.06a39.68,39.68,0,0,1-1.92-4.73C76.08,101,75.8,99,75.26,97,73.48,90.58,69,85.2,66.8,78.87A3.46,3.46,0,0,0,66,77.34a2.68,2.68,0,0,0-2.23-.4c-3.06.53-5.45,2.86-8.25,4.18-1.3.6-2.7,1-4,1.69A5,5,0,0,0,48.82,86c-.31,1.53.45,3,1.09,4.49,2.72,6.14,3.34,13,3.46,19.72.09,4.52-.14,9.37-2.81,13-5.13,7-1.85,17.28.07,25.75.23,1,.5,2.08.66,3.14a28.16,28.16,0,0,1,.23,4c0,4.49-.25,9.12-2.13,13.19a14.69,14.69,0,0,0,6,1.7q8.72,1.11,17.49,1.56a19.09,19.09,0,0,0,5.49-.28,10,10,0,0,0,7.39-9.8c.32,2.77.91,5.78,2.92,7.7s4.94,2.21,7.67,2.36a142.57,142.57,0,0,0,23.1-.65,3.88,3.88,0,0,0,1.42-.33c1.48-.74,1.56-2.78,1.44-4.42-.22-3.07-.45-6.14-.82-9.19a38.54,38.54,0,0,1-.48-5.88,33.86,33.86,0,0,1,1-6c1.34-6.24,2.4-12.61,1.95-19a31.94,31.94,0,0,1-.19-4.69c.26-3.53,2.12-6.89,1.77-10.4-1-10.32-1.81-20.91-4.69-30.87-.52-1.78-1.18-3.69-2.73-4.71-2-1.34-4.81-.64-7.1-1.49a18,18,0,0,1-3-1.81A13.93,13.93,0,0,0,101.08,71c-1.84-.07-3.89.34-5,1.82a7.37,7.37,0,0,0-1,2.73c-1.45,6.1-3.15,12.13-4.85,18.16L88.6,99.46,84.23,115C83.8,116.63,84.09,117.14,83.65,118.7Z" style="fill:#00bfa6"/><polyline points="109.22 58.15 205.95 159.8 205.95 168.42 162.82 168.42 90.13 73.55" style="fill:#f1c0c0"/><polyline points="109.22 58.15 205.95 159.8 205.95 168.42 162.82 168.42 90.13 73.55" style="opacity:0.10000000149011612;isolation:isolate"/><polygon points="91.67 72.21 91.98 72.32 163.44 159.8 205.95 159.8 205.95 168.42 162.82 168.42 90.13 73.55 91.67 72.21" style="opacity:0.10000000149011612;isolation:isolate"/><path d="M102.8,74.35c-3.5,1.53-7.39,3.49-8.44,7.17a3.59,3.59,0,0,0,3.54,4.81,12,12,0,0,0,4.81-.88l20.65-6.82c.56-.18,1.2-.45,1.34-1a1.66,1.66,0,0,0-.2-1c-.64-1.56-1.27-4.75-2.61-5.84-1.1-.88-3.28-.57-4.61-.55C112.16,70.28,107.35,72.35,102.8,74.35Z" style="fill:#00bfa6"/><path d="M121.21,79.44A33.31,33.31,0,0,1,131.46,81a18.24,18.24,0,0,1,8.49,5.8,6.35,6.35,0,0,1,1.34,2.62c.2,1,3.46,1.6,2.74,2.28,2.19-.35,1.67.68,3.89.66s4.62-.59,6-2.36A7.73,7.73,0,0,0,155,85.14a8.36,8.36,0,0,0-.66-3.46c-1-2.1-3.3-3.23-5.42-4.2L131.1,69.31a11.81,11.81,0,0,0-3.3-1.17,12.31,12.31,0,0,0-2.91.07l-8.09.93a12.14,12.14,0,0,1,5.53,10.67" style="fill:#3f3d56"/></svg>