<?xml version="1.0" encoding="utf-8"?>
<!-- Generator: Adobe Illustrator 23.1.0, SVG Export Plug-In . SVG Version: 6.00 Build 0)  -->
<svg version="1.1" id="Layer_1" xmlns="http://www.w3.org/2000/svg" xmlns:xlink="http://www.w3.org/1999/xlink" x="0px" y="0px"
	 viewBox="0 0 1000 867" style="enable-background:new 0 0 1000 867;" xml:space="preserve">
<style type="text/css">
	.st0{fill:#ED1C24;stroke:#FFFFFF;stroke-width:2;stroke-linecap:round;stroke-linejoin:round;}
	.st1{fill:#FDE92B;stroke:#FFFFFF;stroke-width:2;stroke-linecap:round;stroke-linejoin:round;}
	.st2{fill:#00A055;stroke:#FFFFFF;stroke-width:2;stroke-linecap:round;stroke-linejoin:round;}
	.st3{fill:#F7941D;stroke:#FFFFFF;stroke-width:2;stroke-linecap:round;stroke-linejoin:round;}
	.st4{fill:#DB9C94;stroke:#FFFFFF;stroke-width:2;stroke-linecap:round;stroke-linejoin:round;}
	.st5{fill:#00A8DE;stroke:#FFFFFF;stroke-width:2;stroke-linecap:round;stroke-linejoin:round;}
	.st6{fill:#507282;stroke:#FFFFFF;stroke-width:2;stroke-linecap:round;stroke-linejoin:round;}
	.st7{fill:#6E2405;stroke:#FFFFFF;stroke-width:2;stroke-linecap:round;stroke-linejoin:round;}
	.st8{fill:#FEC77C;stroke:#FFFFFF;stroke-width:2;stroke-linecap:round;stroke-linejoin:round;}
	.st9{fill:#702C8D;stroke:#FFFFFF;stroke-width:2;stroke-linecap:round;stroke-linejoin:round;}
	.st10{fill:#7C7C7C;stroke:#FFFFFF;stroke-width:2;stroke-linecap:round;stroke-linejoin:round;}
</style>
<path id="ZMB514" class="st0" d="M724.3,285.4l-0.3,0.5l-0.1,0.7v0.9l-0.1,0.5l-0.7,1.9l-0.1,1l0.2,1l0.5,0.7l-0.1,0.5L708.9,312
	l-1.1,1.1l-1.4,0.6l-36.2,5.9l-0.5,0.2l-2.2,0.3l-0.9,0.9l-0.5,1.3l0.1,1.6l0.6,2.9l-0.3,3.9l0.3,1.5l0.7,1.2l1.7,1.9l0.6,1.1v1
	l-0.3,1.2l-0.1,1.1l0.4,0.8l-0.3,0.6l-0.6,0.9l-0.6,0.5v-0.1l-3.7,0.3l-1.8,0.6l-2.9,2.1l-4.4,2.1l-1.5,0.3l-0.9-0.5l-1.5-1.6
	l-1.1-0.4h-1.2l-0.8,0.3l-1.2,1.2l-1.7,1l-3.7,1.3l-1.3,1l-0.6,1.1l-1,3.4l-0.3,2.1l-0.4,0.8l-0.1,0.7l0.3,0.7l2.6,3.3l1.3,0.5h1.3
	l1.1,0.5l0.4,1.6l-0.3,1.6l-0.9,1.3l-1.3,0.8l-1.6,0.2l-0.6-0.3l-0.7-0.7l-0.5-0.2l-0.5-0.1l-1.2,0.1H637l-2.3-0.9l-3.5-1.9
	l-0.7-0.2l-3.4-0.1l-1-0.1l-0.8-0.4l-1-0.9l-1.6-1.7l-0.8-0.4l-7,0.1l-2.1,0.6l-1.8,0.8l-1.4,0.9l-0.9-1.7l-1.4,0.2l-1.5,0.7
	l-1.2-0.1l-0.9-0.4h-0.6l-0.4-0.2l-0.2-1.2l-0.2-0.9l-6.9-12.8l-2.2-2.8l-5.1-2.8l-0.8-1l-0.3-1.7l-1-1.7l-1.1-1.4l-1.1-1l-3-1.6
	l-1.2-0.9l-0.5-1.3l-0.2-2.5l-0.8-0.7l-3,0.5l-1.8-0.5l-4.2-2.3l-1.1-0.9l-1.5-3.2l-1.2-0.9l-2,1.2l-0.2-0.8l-1-1.7l-0.4-0.5
	l-0.8-0.7l-0.8-0.5h-0.9l-1.1,0.6l-0.9-1.4l-0.7-4.2l-1-0.9l-1.4-0.4l-0.7-1.1l-0.9-6.1l-0.2-0.9l-1.3-1.1l-0.5-0.8l0.3-0.4v-0.9
	l-1.4-5.2l-0.5-0.8l-1.3-1.2l-0.6-0.9l-1-2.6l-0.5-0.7l-0.4-1.3l-0.1-4.7l0.2-1.6l4.4-6.4l0.3-0.4l1.9-1.5l0.5-0.3l-0.7-3.2l0.4-1.9
	l0.8-1.3l0.8-0.9l1.6-3.3l-0.1-3l0.1-0.9l0.2-0.5l0.7-1.1l0.2-0.8V254l-0.9-4.6l0.1-0.9l1.2-1.7l1.1-2.1l0.3-0.9l0.1-0.9L558,241
	l0.1-0.8l0.5-0.8l1.5-1.6l0.3-0.9l0.2-0.9l0.9-1.8l0.2-0.9v-3.9l0.4-2l0.8-2l1.1-1.9l1.4-1.5l0.6-0.9l0.7-1.9l1.2-2.1l0.4-0.5
	l0.5-0.2l1.1,0.1l0.5-0.1l1.2-1l1.3-1.3l1.1-1.7l0.5-1.7l-0.5-0.6l-2-1.5l-0.4-0.9l0.1-1l0.5-1.8l-0.1-1.1l-2-2.3l-1.2-1.6v-1.2
	l0.4-0.8l-0.7-1.3l0.3-0.8l0.5-0.8l0.4-1l0.1-1.1l-0.1-1l-0.6-1.7l-0.8-1.4l-0.7-1.6l-0.2-2.1l0.2-1.8l0.5-1.4l0.3-1.4l-0.5-1.7
	l-1.1-0.6l-0.2-0.5l-0.2-0.9l-0.2-0.4l-2.9-2.5l0.8-1.6l2.1-2.5l1.3-2.6l0.8-3.4l0.2-7l-0.6-6.2l0.3-1.9l2.7-5.6l0.8-3.7l0.8-1.6
	l1.6-0.6l0.2-0.4l-2.3-2.3l-0.2-1.2l-0.5-0.6l-0.7-0.2l-0.9-0.6l-1.2-1.7l-0.5-1.7l-0.1-4.1l-0.2-0.9l-0.7-1.8l-0.2-0.8l-0.4-1.2
	l-1.6-1.9l-0.3-0.8l0.4-0.4l1.9-0.7l0.6-0.6h-2.7l-1-0.4l-0.5-1.1v-1.5l-0.2-1.1l-0.3-1l-0.6-0.9l-2.1-1.5l-1-1l-0.4-1.4l0.3-2.8
	l-0.2-1.6l0.7,1.1l0.2,1.7l-0.5,1.3l1.8-0.3l3.3-1.6l2.3-0.6l0.7-0.4l0.8-0.1l0.8,0.4l0.6,0.5l0.5,0.4l0.6-0.1l0.9-0.5l3.2,3.3
	l1.5,0.7l1.1-2.3l-1.6-0.5v-1.3l1.1-2.9l-0.3-1.5l-0.9-1.3v-1.4l0.5-1.1l0.7-0.9l1.7-1.5l0.7-0.9l0.9-2.1l0.7-1.1l2.4-1.8l1.2-1.1
	l1.2-3.7l1.6-1.7l3.6-3l1-1.7l0.7-2l0.7-1.6l1.4-0.6l1.5-0.5l3.7-2.3l1-0.8l1.3-2.4l1.9-5.7l3.5-5.8l5.1-13.1l0.2-1.6l-0.5-1.4
	l-1.3-1.7l-1.8-1.7l-5.5-3.4l-3.5-2.6l-1.8-1.1l-2-0.4l-1.5-0.6l-2.6-2.1l-1.3-0.2l1.9-0.7l10.2-1.6l28.2-4.3l17.9-2.8l-0.6,1.9
	l-2.6,5l-0.9,1.5l-0.3,0.3l-1.2,1.1l-1.1,0.8l-2.6,0.6l-3.3,1.2l-1.1,0.7l-0.8,0.9l-1.1,1.4l-2.4,5l-0.9,1.5l-0.9,0.9l-0.5,0.7
	l-2.7,6.6l-1.9,8.4l-2.8,7.2l-0.5,0.8l-1.1,1.3l-0.3,0.2l-0.8,0.4l-2.6,0.8l-1.1,0.6l-0.5,0.7l-1.9,6.9l-0.3,0.4l-0.4,0.1h-1
	l-0.5,0.1l-0.2,0.3l-0.2,0.5l-0.3,1l-0.1,0.5l-0.2,1.8l0.4,0.9l0.5,0.5l1.1,0.8l1.6,0.7l0.8,0.3l0.8,0.5l0.6,0.5l0.6,0.6l0.7,0.5
	l0.8,0.4h0.8l0.7-0.2l0.5-0.2h0.5l1,0.5l0.4,0.2l1,1.4l0.6,1.1l0.6,0.7l0.4,0.2l1.4,0.4l0.3,0.2l0.8,0.9l0.4,0.2l0.4-0.1l0.8-0.4
	h0.3l0.3,0.3l0.2,0.5l0.1,1l0.5,1.3l0.2,0.6l-0.4,2.1l-0.1,0.5l0.1,0.9l1.5,5.2l-0.2,0.8l-0.4,1l-0.2,0.4l-0.4,0.3l-0.9,0.3
	l-0.3,0.2L628,103l-0.2,2.1l0.2,1.5l0.2,0.7l0.7,1.4l1.8,4.9l0.4,0.7l0.5,0.4l1,0.8l0.3,0.2l0.9-0.1l0.8-0.4l1-0.1l1,0.1l0.9,0.3
	l1.3,1.1l0.2,0.4l1.4,2.7l0.5,0.6l1,0.5l0.3,0.3l0.5,0.6l0.5,0.3l1,0.1l0.4,0.3l0.4,0.5l0.5,1l0.4,0.4l0.6,0.3l1,0.1l0.4,0.2
	l1.1,0.6l0.5,0.1l1.4-0.3l0.4,0.1l1.8,0.5l1.5,0.3l0.9,0.3l1.5,0.9l2.7,0.9l1.6,0.1l0.8,0.4l0.6,0.6l0.3,0.2l1.5-0.2l1.5,0.2h0.5
	l1-0.2l0.9,0.2l0.6,0.5l0.2,0.4l0.9,1.5l1,1.5l1.1,1.2l1,0.7l0.4,0.6l0.2,0.7l0.4,1.4l0.3,0.7l0.4,0.4l0.8,0.3l1,0.3l1.2,0.5
	l0.7,0.5l0.4,0.8l1,3l0.1,0.8l-0.4,2l-2.2,5.6l-0.1,0.5v0.6l0.3,1.5l1.4,3.3l0.9,1.5l0.1,0.7l-0.3,0.4l-1.4,1.1l-0.6,0.7l-0.5,0.7
	l-0.5,0.8l-0.3,0.9l-1.4,6.5l-0.3,0.9l-0.5,0.6l-1.4,1.1l-0.7,0.4l-0.5,0.1l-0.9,0.1l-1.7-0.2l-0.5-0.1l-1.3-0.6l-0.9-0.4l-0.5-0.1
	l-3.9-0.2l-1.9,0.2l-0.5,0.2l-1.6,0.7l-0.7,0.5l-1.3,1.1l-2.7,2.7l-1,0.7l-2.1,0.8l-3,1.6l-2.7,0.6l-1.1,0.5l-0.8,0.6l-0.4,0.6
	l-1.1,1.2l-0.5,0.4l-2.5,1.4l-0.6,0.6l-0.2,0.7l-0.2,2.8l-0.3,0.8l-0.3,0.5l-0.7,0.5l-0.5,0.7l-1.4,2.4l-0.1,0.5l0.1,0.7l0.5,1
	l0.3,0.6l0.6,0.8l0.2,0.4l-0.5,1.1l-3.4,4.6l-0.4,0.8l-0.2,0.5l-0.4,2l-0.4,0.5l-0.5,0.2l-0.5,0.1l-1.8-0.2h-0.5l-0.5,0.3l-0.6,0.9
	l-0.9,0.8l-10.4,6.6l-0.4,0.5l-0.2,0.6l0.1,10.2l-0.1,0.6l-0.3,0.4l-3.8,3.4l-1.6,2l-0.8,1.2l-0.1,0.4l0.1,0.3l0.7,0.4l6.5,2.3
	l0.9,0.6l7.6,7.6l0.4,0.3l0.9,0.2h1l1.4-0.2l0.9,0.2l4,2.2l1,0.1l0.4-0.2l0.2-0.4l0.1-0.5l0.2-2.3l0.4-2.2l0.1-0.5l-0.1-0.6
	l-0.8-1.1l-0.6-0.7l-1-1.4l-0.3-0.6l-0.3-0.9l-0.1-0.9l0.1-0.7l0.2-1l-0.2-0.6l-1.6-2.4l-0.5-1.4l1-1.1l1.4-1l23.5-12.6l0.7-0.1
	l0.5,0.1l0.4,0.2l1.4,1l2.8,1.6l3.3,1.1l0.8,0.4l1.6,0.9l0.4,0.4l0.5,0.7l2.3,4.5l0.5,0.7l0.3,0.2l1.9,1.3l0.5,0.4l0.5,0.6l2.3,3.9
	l0.3,0.9l0.2,0.9l0.3,4.7l-5,32.7l0.6-0.5l0.8-1.5l2.5-0.9l0.4-0.6l0.1-0.8l0.3-1.1l0.5-0.9l0.6-0.7l2.9-2.1l1-1.2l0.4-1.9l0.6-0.7
	l0.6-0.3l1.2-0.2l10.6,0.1l1.4,0.3l1.4,0.8l26.6,19.2l0.3,0.4l0.3,0.9v0.6L724.3,285.4L724.3,285.4z"/>
<path id="ZMB515" class="st1" d="M875.9,79.8l3.3,10.3l4.3,9.4l0.7,8.7l-9.3-0.7l-8.6-2.2l-8.5-0.7l-10.1,1.5l-7.1,3.6l-5.7,3.6
	l-6.5,0.7l-6.4-2.1l-2.2,5.8l-5.7-2.7l-6.4,0.5l-5.7-3.6l-4.3,2.9l-5,4.3l-4.3,2.2l-2.2,5.1l-5.7,7.2l6.4,6.6l6.5,10.9l3.6,9.4
	l2.8,10.2l6.5,4.4l8.5,3.6l2.9,2.9l0.3,21.7l-5.5,1.1l-0.4-0.3l-0.4-0.7l-0.6-0.6l-1-0.2l-0.8,0.5l-0.7,1.6l-0.5,0.3l-1.1,0.3
	l-2.9,1.6l-1.6,0.5l-2.2,0.3l-0.9,0.3l-0.4,0.9l0.6,0.7l0.1,0.6l-0.4,0.2H798l-0.6,0.3l-0.2,0.6l0.3,3.5l-0.3,0.9l-0.6,0.7l-1.7,1
	l-0.6,0.7l-1-0.8l-1.6-0.6l-1.8-0.3l-1.4-0.1l-1.6,0.3l-1.2,0.6l-3.8,2.8l0.2,0.6l1.1,1.1l0.5,0.7l0.2,0.6l0.3,0.3l1,0.1l0.7-0.2
	l0.6-0.3h0.7l0.6,0.5l0.4,1.9l-1.4,0.6l-3.1-0.1l-0.7,0.8l-0.1,0.9l0.4,0.8l1.8,1.9l0.3,0.5l-0.5,1.1l-0.4,0.5l-0.6,0.5l-0.5,0.6
	l-0.2,1.1l-3.8,3.3l-1.3,0.6h-1.9l0.8-0.9l0.3-0.8l-0.1-1l-0.5-0.9l-0.9-0.8l-0.4,0.8l-0.1,2.1l-1.3,0.4l-1.5-0.5l-0.8-1l0.9-1h-1.7
	l-1.1,2.1l-0.8,2.8l-0.7,2l-0.8,0.4l-2.4,0.9l-0.9,0.1l-0.6,0.2l-0.9,0.5l-1,0.4l-1.3,0.1l1.7,1.8l-0.4,0.8l-1.2-0.2l-1-1.2
	l-0.8,0.3l-0.8,0.8l-0.4,1l-0.2,0.9l-1.6,3l-6.9,8.8l-1.9,3.7l-0.7,2.2l-0.5,0.8l-2,1.8l-0.4,0.3l-0.9,1.1l-0.5,0.3l-1.9-0.3l-1-0.1
	l-0.8,0.4l-0.7,0.8l-0.5,0.9l-0.5,1.7l-0.4,0.8l-0.5,0.6l-0.7,0.4l-1.1,0.2l-1.5,0.6l-0.8,1.6l-0.6,2l-0.9,1.8l-3.2,2.6l-2.5,0.9
	l0.1-0.4v-0.6l-0.3-0.9l-0.3-0.4l-26.6-19.2l-1.4-0.8l-1.4-0.3l-10.6-0.1l-1.2,0.2l-0.6,0.3l-0.6,0.7l-0.4,1.9l-1,1.2l-2.9,2.1
	l-0.6,0.7l-0.5,0.9l-0.3,1.1l-0.1,0.8l-0.4,0.6l-2.5,0.9l-0.8,1.5l-0.6,0.5l5-32.7l-0.3-4.7l-0.2-0.9l-0.3-0.9l-2.3-3.9l-0.5-0.6
	l-0.5-0.4l-1.9-1.3l-0.3-0.2l-0.5-0.7l-2.3-4.5l-0.5-0.7l-0.4-0.4l-1.6-0.9l-0.8-0.4l-3.3-1.1l-2.8-1.6l-1.4-1L656,219l-0.5-0.1
	l-0.7,0.1l-23.5,12.6l-1.4,1l-1,1.1l0.5,1.4l1.6,2.4l0.2,0.6l-0.2,1l-0.1,0.7l0.1,0.9l0.3,0.9l0.3,0.6l1,1.4l0.6,0.7l0.8,1.1
	l0.1,0.6l-0.1,0.5l-0.4,2.2l-0.2,2.3l-0.1,0.5l-0.2,0.4l-0.4,0.2l-1-0.1l-4-2.2l-0.9-0.2l-1.4,0.2h-1l-0.9-0.2l-0.4-0.3l-7.6-7.6
	l-0.9-0.6l-6.5-2.3l-0.7-0.4l-0.1-0.3l0.1-0.4l0.8-1.2l1.6-2l3.8-3.4l0.3-0.4l0.1-0.6l-0.1-10.2l0.2-0.6l0.4-0.5l10.4-6.6l0.9-0.8
	l0.6-0.9l0.5-0.3h0.5l1.8,0.2l0.5-0.1l0.5-0.2l0.4-0.5l0.4-2l0.2-0.5l0.4-0.8l3.4-4.6l0.5-1.1l-0.2-0.4l-0.6-0.8l-0.3-0.6l-0.5-1
	l-0.1-0.7l0.1-0.5l1.4-2.4l0.5-0.7l0.7-0.5l0.3-0.5l0.3-0.8l0.2-2.8l0.2-0.7l0.6-0.6l2.5-1.4l0.5-0.4l1.1-1.2l0.4-0.6l0.8-0.6
	l1.1-0.5l2.7-0.6l3-1.6l2.1-0.8l1-0.7l2.7-2.7l1.3-1.1l0.7-0.5l1.6-0.7l0.5-0.2l1.9-0.2l3.9,0.2l0.5,0.1l0.9,0.4l1.3,0.6l0.5,0.1
	l1.7,0.2l0.9-0.1l0.5-0.1l0.7-0.4l1.4-1.1l0.5-0.6l0.3-0.9l1.4-6.5l0.3-0.9l0.5-0.8l0.5-0.7l0.6-0.7l1.4-1.1l0.3-0.4l-0.1-0.7
	l-0.9-1.5l-1.4-3.3l-0.3-1.5v-0.6l0.1-0.5l2.2-5.6l0.4-2l-0.1-0.8l-1-3l-0.4-0.8l-0.7-0.5l-1.2-0.5l-1-0.3l-0.8-0.3l-0.4-0.4
	l-0.3-0.7l-0.4-1.4l-0.2-0.7l-0.4-0.6l-1-0.7l-1.1-1.2l-1-1.5l-0.9-1.5l-0.2-0.4l-0.6-0.5l-0.9-0.2l-1,0.2H666l-1.5-0.2l-1.5,0.2
	l-0.3-0.2l-0.6-0.6l-0.8-0.4l-1.6-0.1l-2.7-0.9l-1.5-0.9l-0.9-0.3l-1.5-0.3l-1.8-0.5l-0.4-0.1l-1.4,0.3l-0.5-0.1l-1.1-0.6l-0.4-0.2
	l-1-0.1l-0.6-0.3l-0.4-0.4l-0.5-1l-0.4-0.5l-0.4-0.3l-1-0.1l-0.5-0.3l-0.5-0.6l-0.3-0.3l-1-0.5l-0.5-0.6L639,117l-0.2-0.4l-1.3-1.1
	l-0.9-0.3l-1-0.1l-1,0.1l-0.8,0.4l-0.9,0.1l-0.3-0.2l-1-0.8l-0.5-0.4l-0.4-0.7l-1.8-4.9l-0.7-1.4l-0.2-0.7l-0.2-1.5l0.2-2.1l0.3-0.9
	l0.3-0.2l0.9-0.3l0.4-0.3l0.2-0.4l0.4-1l0.2-0.8l-1.5-5.2l-0.1-0.9l0.1-0.5l0.4-2.1l-0.2-0.6l-0.5-1.3l-0.1-1l-0.2-0.5l-0.3-0.3H628
	l-0.8,0.4l-0.4,0.1l-0.4-0.2l-0.8-0.9l-0.3-0.2l-1.4-0.4l-0.4-0.2l-0.6-0.7l-0.6-1.1l-1-1.4l-0.4-0.2l-1-0.5h-0.5l-0.5,0.2l-0.7,0.2
	h-0.8l-0.8-0.4l-0.7-0.5l-0.6-0.6l-0.6-0.5l-0.8-0.5l-0.8-0.3l-1.6-0.7l-1.1-0.8l-0.5-0.5l-0.4-0.9l0.2-1.8l0.1-0.5l0.3-1l0.2-0.5
	l0.2-0.3l0.5-0.1h1l0.4-0.1l0.3-0.4l1.9-6.9l0.5-0.7l1.1-0.6l2.6-0.8l0.8-0.4l0.3-0.2l1.1-1.3l0.5-0.8l2.8-7.2l1.9-8.4l2.7-6.6
	l0.5-0.7l0.9-0.9l0.9-1.5l2.4-5l1.1-1.4l0.8-0.9l1.1-0.7l3.3-1.2l2.6-0.6l1.1-0.8l1.2-1.1l0.3-0.3l0.9-1.5l2.6-5l0.6-1.9l24.1-3.7
	l39.9-6.1L734.1,1v2.8L733.7,5l-0.4,1v0.9l0.8,1.1l-2.2,0.6l-2.5,1.2l-2.4,1.5l-1.7,2L724,16l-0.8,3.3l0.3,2.8l2.4,1.8l-0.3,1.9
	l1.4,0.7l2.2-0.3l3.2-1.4l1.4,0.4l0.6,1.2l-1,1.7l0.3,0.3l0.4,0.8l-1.1,0.6l-1.4,1l-1,1l0.2,0.4l1.4-0.1l1.1-0.3l1.9-0.8l1.7-0.9
	l1.8-1.3l1.7-1.7l1.2-2l-0.7,0.3l-0.5,0.1l-1-0.4l0.5-1.2l0.6-0.3l0.8-0.2h1.8l0.7,0.3l0.1,0.6l-0.5,1.7l0.3,1.2l0.8,0.2l1-0.2
	l0.9,0.3l0.4,0.5l0.3,0.7l0.3,0.6l0.7,0.6l1.7,0.2l1.9-0.1l1.6,0.2l1.2,2.1l4.2,2.9l14.2,15.7l1.6,0.1l1.9-0.9l1.8-1.3l1.4-0.6
	l-0.1-0.8l0.1-0.8l0.3-0.5l1.2-0.5l0.6-1.1l0.3-0.4l1-0.9l0.5-0.2l0.5,1.6l1.3,1l0.3,0.9l1.1-0.8l0.7-1.4l0.3-1.5l0.1-1.4l-0.1-0.7
	l-0.8-1.4l-0.2-0.6l0.2-0.6l0.8-1.3l0.1-0.7l-0.4-1.4l-2-1.2l-0.4-0.8l1.4-0.7h2l1,0.7l1.6,2.2l1,0.7l1,0.1l0.8-0.2l0.6-0.5l4.4-1.5
	l1-0.3l0.6-0.2l0.3-0.3l0.2-0.1l0.8,0.4l0.3,0.5l0.3,1.6l0.3,0.6l1.1,0.8l1.1,0.1l1.2-0.1l1.3,0.1l1.3,0.6l1.8,2.2l1.4,0.8l3.3,1
	l1.7,1.4l0.6,2.2V48l0.6,3.7l2,2.7l8.2,6.3l1.4,0.6h1.8l1.7-0.6l2.9-1.6l2-0.2l12.7,3.5l-1.6,3.5v4.3l1.7,3.4l3.7,0.9l1.7-0.8
	l1.3-0.9l1.3-0.6l2.2,0.3l2.5,1.5l0.9,0.2l0.8-0.1l1.6-0.4l0.8,0.1l1.7,0.9l3.2,3.2l1.7,1.3L875.9,79.8L875.9,79.8z"/>
<path id="ZMB516" class="st2" d="M807.4,454.6l-1.9,1.4l-4.1,0.9l-1.8,1.1l-3.5,2.7l-0.8,0.8l-0.3,0.3l-0.6-0.4l-0.8-0.1l-0.7,0.2
	l-0.3,0.6l-0.4,1.2l-1.6,2l-0.8,2.2l-1.1,0.2l-2.3-0.6l-0.8,0.3l-1,1.3l-2.3,1l-1,1.8l-1.5,6.3l-0.6,1.3l-2.1,2.2l-0.2,0.1l-1.3,1.5
	l0.4,1.4l-0.9,0.7l-2.4,0.3l-1,0.5l-2.3,1.6l-1.1,0.3l-0.7,0.7l0.1,1.4l-0.4,1.5l-1.9,0.6v0.4l-1.4,2l-1.4,1.3l-0.6,0.7l-0.4,1.1
	l-0.8,0.4l-0.8,0.3l-66.2,0.1l-0.1,0.3l0.8,0.5l1,0.3l1.7,0.2l0.5,0.1l0.4,0.3l0.4,0.9l2.3,7l0.4,0.6l0.4,0.3l2.3,0.9l4,1.2l0.9,0.4
	l0.4,0.2l0.9,1l1.2,0.6l0.6,1.2l0.5,0.7l0.3,0.9l0.1,1l-0.2,1.4l-0.4,1.1l-0.4,0.9l-0.9,1.5l-0.6,0.8l-0.9,0.7l-2.3,1.2l-0.7,0.5
	l-1.2,1.3l-0.7,0.4l-0.4,0.4l-0.3,0.5l-0.4,1l-0.4,0.6l-0.6,0.7l-2.5,2.1l-3.3,4.5l-0.7,0.7l-0.4,0.3H695h-0.5l-1-0.2l-0.5,0.1
	l-0.4,0.2l-0.4,0.6l-0.3,0.8l-0.2,1.2l-0.3,0.7l-0.5,0.6l-0.9,0.5l-0.7,0.4l-0.9,0.9l-0.6,1.6l-0.2,1.9l-0.5,1.6l-0.3,0.2l-0.3,0.6
	l-0.4,0.9l-0.6,3.3l-0.6,4.5l0.6,0.9l1.8,1.6l2.1,2.5l0.4,0.6l-4.3-0.3l-0.8-0.4l-0.9-0.9l-0.3-0.3h-1.1l-1.1,0.3l-0.8,0.5l-0.8,0.1
	l-0.8,0.3l-0.6-0.3l-0.6-0.6l-0.4,0.1l-0.5,0.7l-0.6,1.7l-0.2,0.4l-0.5,0.7l-0.5,0.3l-0.8,0.3l-1.3,0.1h-0.8l-0.7-0.1l-1.4-0.4
	l-0.6,0.1l-0.5,0.3l-1.7,1.4l-0.4,0.3l-0.5,0.1l-1.9-0.2l-0.5,0.1l-6.7,2.7l-0.5,0.3l-0.5,0.6l-0.7,0.6l-5.1,2.8l-0.7,0.6l-0.4,0.3
	l-2.8,0.1l-0.5-0.1l-0.6,0.1l-0.8,0.5l-1.2,1.8l-0.4,1.1l-0.3,2l-1,3.7l-2.4,4.4l-5.6,1.1l-7,0.2l-7.1-1.9l-15,4.7l-4.4,0.8l-4.6,2
	l-10.6,9.6l-6.8,2.3l-7.5,0.9l-7.4,0.2l-14-3.7l-2.5,1.5l-2.7,5.4l-2.2,6.3l-2.3,4.1l-2.7,1l-4.9-1.1l-14.4-4.7l-14.6-2.4h-1.1
	l-1,0.2l-0.8,0.3l-4.3,3l-0.7,0.9l-0.2,0.9l0.5,1.3l1.2,0.8l2,0.5l4.6,0.7l1.2,0.5l1.1,1l2.2,4.4l1.2,4l0.3,1.5v1.3l-0.2,0.5
	l-0.8,1.1l-1.5,1.2l-9.1,2.6l-3.6,7.7l-0.3,0.2l-0.6,0.9l-0.3,0.2l-0.6-0.1l-0.9-0.5l-0.5-0.1l-1,0.1l-0.5,0.3l-0.8,0.9l-0.6-0.8
	l-0.3-0.7l-0.5-0.6l-0.9-0.8l-1-1l-0.3-0.8l0.2-0.3l0.9-0.9l0.2-0.3v-0.3l-0.5-0.7v-0.5l0.1-1.7l-0.1-0.5l-0.2-0.4l-1.4-0.6
	l-0.3-0.3l-0.2-0.4l-0.1-1l-0.2-0.4l-0.4-0.4l-4.4-1.4l-0.5-0.3l-0.1-0.3l0.1-0.8l-0.1-0.5l-0.6-0.2l-1.2,0.1l-0.7,0.2l-0.4,0.4
	l-0.2,1.2l-0.2,0.4l-1.1,0.6l-0.2,0.3l-0.4,1.5l-0.4,0.8l-0.8,0.5l-1.2,1.1l-0.9,0.3l-0.4,0.3l-0.2,0.3l-0.4,0.9l-0.4,0.2l-0.4-0.1
	l-1.3-0.6l-1.7-0.6l-0.4,0.1l-0.3,0.5l-0.3,0.6l-7,12.9l-0.3,0.8l-1.4,0.8l-0.8-1.3l-1-0.2v-1.1l-4.5-19.3l-2.1-1.3l-20-1.1
	l-0.8-0.2l0.3-0.6l2.1-1.7V631l-0.9-0.8l-11.3-6.6l-3.4-0.8l-4.9-0.6l-121.3-3.3l0.1-6l-0.4-3.3v-0.8l0.2-0.5l0.3-0.3l2.6-2.4l0.8-1
	l0.4-0.1l1-0.1l1,0.2l0.6-0.1l0.7-0.4l0.3-0.5l0.1-0.6l-0.2-2.5l0.1-0.9l0.3-0.4l1.3-1.3l1.2-1.9l0.5-1l0.3-0.8l0.1-3.8l-0.2-1
	l-2.5-4.6l-0.2-0.6l-0.1-0.9l0.1-1.7l0.1-0.9l0.3-0.7l0.7-0.9l0.5-0.8l0.2-0.8l0.1-1l0.3-1.1l0.6-0.7l0.4-0.2l1-0.3l0.5-0.3l0.1-0.5
	v-1.5l0.2-2.8l-0.5-1.8l-0.1-1.4l0.1-0.8l0.2-0.6l1-1.6l0.8-2l0.5-1.2l1.5-2.3l0.9-1l0.6-0.4l0.6-0.2l2.1-1.3l1.1-1l1.5-0.3h1.5
	l47.2,5.8l0.8,0.9l0.7,1.2l0.6,0.8l0.9,0.5l1.3,0.4l2.2,0.3l3.8,1.9l0.6,0.6l0.5,0.8l0.6,0.7l0.9,0.3l0.9-0.2l2.9-1.3l0.6-4.6
	l0.9-1.8l3.5-4.1l5.5-4.3l3.5-5.4l0.8-0.9l1.1-0.8l1.3-0.6l1.5-0.1l0.8,0.2l1.6,0.8l1.1,0.2l0.5-0.2l0.6-0.9l0.9-0.1l7.1,0.5
	l1.6-0.5l3-2l1.2-0.5l10.5-0.4l1.5-1.3l0.4-0.5l0.6-1.4l-0.2-9.8l-0.2-0.9l0.1-0.4l0.5-0.8l1.5-2.2l0.2-0.4l0.3-1l-0.1-1.6l-0.2-1
	l-0.7-1.6l-0.7-1.1l-4.2-5.5l-1-0.8l-3.2-1.8l-0.4-0.4l-0.1-0.3l0.4-0.7l0.9-0.4l1.7-0.6l0.8-0.4l0.4-0.4l0.2-0.8l-0.2-3.4l0.1-2.2
	l0.3-2.4l0.7-1.9l1.8-2.6l0.9-1.7l0.1-0.5l0.1-1l-0.1-0.5l-0.3-0.3l-2.6-1.2l-0.7-0.5l-0.4-0.3l-0.5-0.7l-0.5-0.7l-0.3-1.3l-0.3-0.9
	l-0.5-0.7l-0.5-0.7l-0.6-0.6l-0.6-0.6l-0.8-0.3l34.9,1.1l7.3,1l0.1,0.5l-0.3,2l0.7,2.1l0.5,0.8l1.1,1.2l0.3,0.3l0.3,0.8l0.2,1.5
	l0.4,1.3l0.2,1.5l0.5,1.9l0.3,0.4l0.5,0.5l1.2,1l1.5-0.7l2.3-1.7l1.9-2.2l0.8-2.2l-0.6-1.8l-0.1-1.3l0.4-1.1l0.8-0.5l1.1-0.3l1,0.3
	l0.6,1.4l0.4,0.6l0.5,0.5l0.6,0.1l0.5-0.5l0.1-0.6l-0.1-0.7l0.1-0.6l2.7-3.6l0.8-1.2v-0.6l-0.3-1.1l0.3-0.7l0.5-0.4l1.4-0.1l0.4-0.1
	l0.2-1.2l-0.3-1.1v-1.2l1.3-1.3l2,0.2l0.4,0.2l1.5,1.1l0.9,0.4l1,0.3l7.1,0.6l1.7,0.4l1.3,1.2l5.7,14.3l0.8,1.7l1.1,1.5l1.7,1.5
	l1,0.5l0.7,0.1l0.9-0.3l1-0.7l0.6-0.2l0.7-0.2l2.3-0.1l0.7-0.1l1.1-0.4l1-0.2l4.8-0.1l2.9-0.3l0.9-0.3l0.7-0.5l1-1l0.6-0.3l1.1-0.1
	h0.7l0.7,0.1l5.3,1.4l1,0.1h0.8l1.7-0.5l1.5-0.3l2.8-0.1l0.8,0.1l4,1.1l1.6,0.2l5.6-0.4l1-0.3l0.8-0.3l1.1-0.7l0.4-0.2l3.3-0.5
	l6.9-0.3l0.9-0.3l0.4-0.5l-0.6-9.7l0.1-0.5l0.6-0.6l12.2-9.5l0.6-0.6l1.5-2.2l1.8-1.9l0.7-0.5l2.9-1.8l3.4-1.3l0.7-0.5l5.5-6.9
	l3.3-3.3l0.5-0.7l0.2-0.6h0.6l2.2-0.4h2l1.9,0.9l0.8,1.1l0.6,1.3l0.7,1.1l1.3,0.2l0.9-0.5l1.7-2l1.1-0.6l2-0.9l4.9-3.3l12.1-4.7
	l1.7-1.1l5-4.7l1.9-0.8l2,0.1l1.6,0.9l1.4,1.2l1.7,1l1,0.1l0.8-0.2h0.6l0.8,1l0.2,0.9l-0.1,0.9l-0.4,0.9l-0.4,0.6l-0.6,0.5l-1.5,0.4
	l-0.6,0.6l-0.2,0.8l0.2,1.7l-0.1,0.8l-0.6,0.3l-0.8,0.2l-0.7,0.4v1.3l0.4,1l0.4,1l0.6,0.9l0.7,0.7l1.3,0.8l1.9,0.7l3.4,0.9l5.5,0.1
	l1.3-0.2l1.3-2.8v-22.8v-25.5l0.1-15.3v-13.1v-14.6v-19.5l1.7-0.3l0.7-0.5l0.3-0.3l0.7-1.1l0.4-0.8l0.3-1l0.4-4.5l0.4-0.9l0.2-0.3
	l0.7-0.6l6.9-2.9l1.8-0.4l2-0.3h0.4l0.6,0.4l0.7,0.7l1.5,1.9l1.6,2.9l0.2,0.9l0.1,1.5l0.3,0.9l0.3,0.6l1.2,1.7l0.4,0.7l0.6,0.7
	l0.6,0.5l1.2,0.8l0.8,0.4l0.7,0.2l1,0.2l0.6,0.2l0.4,0.5l0.8,1.5l0.5,0.5l1.9,0.7l1,0.2l0.5,0.1l1.2,0.7l1.4,0.5l1.2,0.7l0.9,0.4
	l2.1,0.3l0.4,0.2l1.2,0.7l0.9,0.3h1.5l0.7,0.2l0.8,0.4l1.3,0.7l0.8,0.2h0.6l1.4-0.2h1.1l0.5,0.1l0.8,0.7l0.5,0.9l0.5,0.6l0.4,0.5
	l0.8,0.4h0.6h0.5l0.9-0.3l1-0.1l0.9,0.1l0.5,0.3l0.5,0.5l0.4,0.9l0.2,0.7v0.7l-0.1,3.9l-0.2,1l-0.9,1.8l-0.2,0.9v1l0.1,1l0.3,0.9
	l0.3,0.4l0.6,0.5l1.1,0.7l2.2,1l0.8,0.5l0.4,0.4l0.5,0.7l0.3,1.1v0.7l-0.1,0.6l-0.7,1.8l-0.1,1l0.1,0.5l0.6,0.7l1,1l2.4,1.9l1.2,0.6
	l0.8,0.3l1.2-0.6l0.7-0.5l0.7-0.5l1-1.4l0.4-0.2l0.4-0.1l0.5,0.3l0.4,0.4l1.1,2.6l0.6,0.9l0.6,0.6l1,0.7l1.6,0.7l0.4,0.4l0.4,0.4
	l0.2,0.8v1.3l-0.4,0.8l-0.5,0.8l-1.2,1.3l-0.2,0.4l-0.9,2.2v0.9l1.2,4.5l0.2,0.9v0.6l-0.4,2.1l0.3,0.6l0.6,0.6l5.2,3.7l1.7,0.8
	l0.7,0.5l0.9,0.5l0.5,0.1h1l2.8-0.7l1.1,0.1l3,0.9l1.6,0.2l2.3,0.8l0.8,0.1h1.4l1.1,0.8l6.4,6.3l1.1,0.8h0.6h1l0.5-0.1l0.9-0.3
	l0.6-0.5l0.5-0.8l0.9-2l0.1-0.8l0.1-1.6l0.2-0.5l0.5-0.6l0.8-0.4l1.7-0.6h0.5h3.8l1.1,0.1l0.5,0.2l2.9,1.5l0.8,0.4l0.7,0.8l0.5,1.1
	l0.3,1.4l1.3,19.1l0.6,1.7l1.6,3.2l2,2.2l1,1.4l0.2,0.9l0.1,1.5v2.9L807.4,454.6L807.4,454.6z"/>
<path id="ZMB517" class="st3" d="M605.7,450.5l-0.2,0.6l-0.5,0.7l-3.3,3.3l-5.5,6.9l-0.7,0.5l-3.4,1.3l-2.9,1.8l-0.7,0.5l-1.8,1.9
	l-1.5,2.2l-0.6,0.6l-12.2,9.5l-0.6,0.6l-0.1,0.5l0.6,9.7l-0.4,0.5l-0.9,0.3l-6.9,0.3l-3.3,0.5l-0.4,0.2l-1.1,0.7l-0.8,0.3l-1,0.3
	l-5.6,0.4l-1.6-0.2l-4-1.1l-0.8-0.1l-2.8,0.1l-1.5,0.3l-1.7,0.5h-0.8l-1-0.1l-5.3-1.4l-0.7-0.1H531l-1.1,0.1l-0.6,0.3l-1,1l-0.7,0.5
	l-0.9,0.3l-2.9,0.3l-4.8,0.1l-1,0.2l-1.1,0.4l-0.7,0.1l-2.3,0.1l-0.7,0.2l-0.6,0.2l-1,0.7l-0.9,0.3l-0.7-0.1l-1-0.5l-1.7-1.5
	l-1.1-1.5l-0.8-1.7l-5.7-14.3l-1.3-1.2l-1.7-0.4l-7.1-0.6l-1-0.3l-0.9-0.4l-1.5-1.1l-0.4-0.2l-2-0.2l-1.3,1.3v1.2l0.3,1.1l-0.2,1.2
	l-0.4,0.1l-1.4,0.1l-0.5,0.4l-0.3,0.7l0.3,1.1v0.6l-0.8,1.2l-2.7,3.6l-0.1,0.6l0.1,0.7l-0.1,0.6l-0.5,0.5l-0.6-0.1l-0.5-0.5
	l-0.4-0.6l-0.6-1.4l-1-0.3l-1.1,0.3l-0.8,0.5l-0.4,1.1l0.1,1.3l0.6,1.8l-0.8,2.2l-1.9,2.2l-2.3,1.7l-1.5,0.7l-1.2-1l-0.5-0.5
	l-0.3-0.4l-0.5-1.9l-0.2-1.5l-0.4-1.3l-0.2-1.5l-0.3-0.8l-0.3-0.3l-1.1-1.2l-0.5-0.8l-0.7-2.1l0.3-2l-0.1-0.5l-7.3-1l-34.9-1.1
	l-2.9-1.9l-1.3-1.1l-0.3-0.6l-0.4-0.7l-0.4-1.1l-0.1-1l0.4-5.7l0.3-1.4l0.6-1.6l0.5-0.7l0.2-0.4l1.7-1.3l0.5-0.7l0.3-0.7l0.9-4.3
	l0.3-0.7l0.3-0.5l1.1-0.6l1.7-0.6l0.8-0.4l0.4-0.3l0.4-0.6l1-2.3l0.6-0.6l1.9-0.9l0.5-0.5l0.5-0.8l0.9-1.5l0.3-1l0.2-0.7l0.1-0.5
	l-0.2-1.5l-0.2-0.9l-1-2l-0.3-1.4v-1.4l0.2-0.9l0.1-0.6l0.5-0.8l0.9-0.9l4.8-3l0.7-0.5l0.7-1l0.6-0.9l0.5-1.3l2.4-10l-0.4-0.3
	l-1-0.2h-0.5l-1.9,0.3l-0.5-0.2l-0.5-0.3l-0.3-0.8l-0.3-0.4l-0.7-0.3l-0.3-0.3l-0.3-0.8l-0.6-0.7l-0.3-0.2l-0.7-0.2l-1.4-0.1
	l-0.5-0.1l-1.1-0.8l-0.4-0.2l-2.3-0.9l-0.7-0.6l-0.9-0.9l-0.8-0.5l-0.9-0.4l-0.8-0.6l-0.2-0.6l-0.1-0.4l0.1-0.5l0.8-1.2l0.8-1.8
	l0.6-1.3l0.1-0.6l-0.4-0.8l-1.6-1.8l-0.8-0.5l-0.4-0.4l-0.2-0.8l-0.6-0.9l-0.7-0.7l-0.4-0.4l-0.2-0.8V393l0.6-1l0.3-0.7l0.8-3.8
	l0.5-1.1l0.7-1.1l0.6-0.7l0.8-0.4l0.9-0.2l1.5-0.1l1.3-0.5l0.7-0.5l0.6-0.6l0.8-1l0.9-1.6l3-3.8l0.7-0.5l0.8-0.3l3.4-0.6l0.9-0.5
	l-0.2-0.6l-0.7-0.8l-0.7-2l-0.2-0.6l-0.1-0.7v-1.2l0.1-0.7l0.2-0.6l0.7-1.3v-2.7l-0.1-0.5l-1-3.1l-0.2-1.1l0.3-0.1h0.4l2,0.4
	l2.4,0.2l0.7-0.1l1.7-0.4l1-0.1l10.7,1.1l0.6-0.2l0.5-0.4l1.1-1.3l0.4-0.4l1.2-0.6l0.3-0.2l1.3-0.7l1.2-1.4l0.4-0.4l1.7-0.7l0.7-0.5
	l1.2-1.1l0.7-0.5l1.6-0.5l0.8,0.6l1.3,0.8l1.2,0.9v0.5l-0.2,0.6l0.3,0.5l2.4,0.4l1.3,0.7l1.2-1.6l1.3-0.5l0.3-0.2l3.7-2.5l0.3-0.3
	l0.4,0.4l3.7,4.1l2.4,0.7l3.8,0.4l3.9-0.2l2.7-0.7l1.6-1.3l1-1.2l1.1-0.7l2.1,0.2l1.8,0.7l4.8,2.9l1.3,1.6l0.3,2.2l0.5,1.8l1.9,0.6
	l1.6-0.2l1.3-0.1l6.2,0.6l0.8,0.5l0.3,0.7l0.2,0.9l0.4,0.7l2.1,1.7l1.2-0.5l1.3-1.3l2.1-0.5l1.7,0.7l1.2,1.3l1.5,1h2.3l1.7-0.3
	l1.7,0.2l1.6,0.4l1.5,0.9l7,6.2l1.2,1.8l1.7,4.4l1,1.9l2.9,3.1l0.9,1.6l-0.1,2.3l-1,1.5l-1.3,1l-0.9,1.2l0.6,2.2l1.8,2.4l1.8,1.9
	l1.4,2l0.3,4.6l0.9,0.8h1.3l1.3-0.6l0.8-1l1.3-2.5l1.1-0.8l4,0.9l3.4,3.5l5.8,7.6l1.5,1.4l0.6,0.9l0.7,3.2l0.4,0.3l1.1,0.5l0.4,0.3
	l-0.1,0.5l-0.4,0.9l0.1,0.8l-0.2,0.9l0.1,0.5l0.4,0.4l0.9,0.3l0.3,0.2l0.8,3l0.8,0.5l1.7,0.1l0.8,0.3l1,1.3l2.6,13l1.4,3.6l2.6,2.6
	l1.1,1.3l1.4,0.3l1.5-0.3l1.6-0.6H605.7L605.7,450.5z"/>
<path id="ZMB518" class="st4" d="M703.7,590.9l-0.1-0.2l-0.1-10.5l-0.4-2.7l-0.4-0.3l-0.9-0.9l-0.7-1.1l-0.8-1l-0.8-0.5l-1.2-0.6
	l-1-0.8l-3.3-4.6l-0.8-0.6l-1.9-0.7l-0.6-0.6l-0.3-0.6l-0.3-1.2l-0.3-0.6l-0.4-0.6l-2.1-2.5l-1.8-1.6l-0.6-0.9l0.6-4.5l0.6-3.3
	l0.4-0.9l0.3-0.6l0.3-0.2l0.5-1.6l0.2-1.9l0.6-1.6l0.9-0.9l0.7-0.4l0.9-0.5l0.5-0.6l0.3-0.7l0.2-1.2l0.3-0.8l0.4-0.6l0.4-0.2
	l0.5-0.1l1,0.2h0.5h0.5l0.4-0.3l0.7-0.7l3.3-4.5l2.5-2.1l0.6-0.7l0.4-0.6l0.4-1l0.3-0.5l0.4-0.4l0.7-0.4l1.2-1.3l0.7-0.5l2.3-1.2
	l0.9-0.7l0.6-0.8l0.9-1.5l0.4-0.9l0.4-1.1l0.2-1.4l-0.1-1l-0.3-0.9l-0.5-0.7l-0.6-1.2l-1.2-0.6l-0.9-1l-0.4-0.2l-0.9-0.4l-4-1.2
	l-2.3-0.9l-0.4-0.3l-0.4-0.6l-2.3-7l-0.4-0.9l-0.4-0.3l-0.5-0.1l-1.7-0.2l-1-0.3l-0.8-0.5l0.1-0.3l66.2-0.1l0.8-0.3l0.8-0.4l0.4-1.1
	l0.6-0.7l1.4-1.3l1.4-2v-0.4l1.9-0.6l0.4-1.5l-0.1-1.4l0.7-0.7l1.1-0.3l2.3-1.6l1-0.5l2.4-0.3l0.9-0.7l-0.4-1.4l1.3-1.5l0.2-0.1
	l2.1-2.2l0.6-1.3l1.5-6.3l1-1.8l2.3-1l1-1.3l0.8-0.3l2.3,0.6l1.1-0.2l0.8-2.2l1.6-2l0.4-1.2l0.3-0.6l0.7-0.2l0.8,0.1l0.6,0.4
	l0.3-0.3l0.8-0.8l3.5-2.7l1.8-1.1l4.1-0.9l1.9-1.4l0.9-0.6l1.9-0.6l1.4,0.2l1.7,0.5l1.7,0.2l1.4-0.6l6.8-5.1l2-2.8l1-3.3l0.7-3.5
	l1.5-5l0.5-0.8l1.7-0.4l0.7-0.5l0.5-0.6l0.2-0.9l0.6-1.7l1.3-1.2l1.1-1.3l0.3-2.1h0.5l0.2,0.4l0.4,0.8l1.4-0.9l1.9-0.9l1.1-0.9
	l0.9-1.1l0.5-0.3l1.8-0.2l0.6-0.4l0.4-0.6l0.2-0.8l1.1,0.5l0.7-0.2l0.7-0.4l1-0.4l-0.5-1.7l-0.1-1.8l0.2-1.8l0.4-1.3l0.1-0.5
	l-0.2-0.9l0.1-0.4l0.5-0.4h0.9l0.4-0.2l1.1-1.1l0.4-0.5l0.3-0.8l0.9-0.1l1.8-0.5l1.7-0.7l0.8-0.8l0.2-1.6l1.4-4l0.8-1.4l0.8-0.5
	l0.7-0.2l0.5-0.4l0.4-1.8l0.8-1.8l0.2-0.9v-1.1l0.6-2.9v-2.9l0.2-0.9l0.4-0.6l0.4-0.7l0.3-2.1l0.9-1.1l1.8-8.5v-3.9l0.2-0.7l0.9-1.1
	l0.2-0.5l0.1-1.3l0.3-0.6l0.6-0.5l0.8-0.9l0.5-0.9l1.2-2.7l1-1.1l4.3-3.4l0.2-0.8l1.5-1.9l0.7-1.8l0.5-1.8l0.1-1.8l7,1.5h5.1
	l4.3-4.4l1.4-5.1l3.6-3.7h5l10.8-0.7l19.3-5.9l11.5-3.6l3.6-8.1l5.7-9.5v-4.2l1.6-2.4l3.4-1.5l4.2-1.1l0.8,11.2l-0.3,3.2l-1.2,3.3
	l0.1,1.4l0.9,1.9l0.3,1.3l-0.2,1.3l-0.5,1.4l-0.8,4.5l-3.4,7.9l-0.3,2.9l0.1,3l0.7,1.4l2.4,2.3l1,1.2l1,2.9l1.5,6.1l1.7,2.6l3,1
	l6.3-1.9l3.3,1.2l1.4-0.1l1,0.4l0.1,1.8l-0.7,1.4l-2.6,1.6l-0.6,1.4l-1.3,0.2l-0.4,0.7l-0.1,2.1l-0.7,1.1l-2.6,1l-1,0.9l-1.3,2
	l-1.8,1.8l-1.9,1.3l-1.9,0.4l-0.7-0.2l-0.7-0.5l-0.8-0.4l-1.1-0.1l-2.3,0.4l-0.7,0.3l-0.9,1.1l-1.5,3l-1.2,0.9l-0.8,0.2l-1.4,1
	l-0.5,0.5l-0.2,0.6l-0.5,0.4h-0.8l-0.4-0.4l-1-1.9l-0.6-0.6l-0.8-0.3l-0.7,0.1l-1.3,0.4l-0.7,0.4l-0.8,0.6l-0.7,0.4l-0.6-0.6
	l-0.4-0.7L947,380l-0.6-0.1l-0.7,0.3l-1.2,1.1l-0.9,1.2l-2.6,5.2l-3.1,4.6l-1.2,2.4l-0.3,1.5l0.5,6.5l0.6,0.9l2.3,1.5l2.1,1.9
	l0.7,2.1l-0.4,2.5l-2.3,5.3l-1.3,9.7l0.1,1.6l0.3,1.4l0.7,1.5l1.3,2l0.3,1l-0.5,1.3l-2.5,0.7l-2.1,2.7l-1.6,3.5l-2.3,9.6l-1.6,3.4
	l-2.4,1.3l-1.6,0.2l-0.7,1l-0.2,1.4l0.1,1.6l-0.4,1.9l-1.1,0.8l-3.1,0.5l-1.2,0.7l-2.3,2l-1.1,0.2l-1.6-0.6l-1.2-0.1l-0.8,0.7
	l-0.4,1.8l1,2.8l2.7,0.6l3.2,0.1l2.2,1l3.3,4.6l0.4,1l-0.7,1l-3.1,1.5l-0.9,1l0.4,2.3l2.5,1.1l3.2,0.7l2.6,1l1.2,1.1l4.3,5.2
	l0.3,1.4l0.2,1.3l0.5,1.3l0.7,0.6h1.6l0.7,0.3l0.4,0.8l0.1,0.4l-0.2,0.5l-0.3,4.5l0.5,1.3l1.9,2.6l1.6-0.4l2.7-4.4l1.1-1.3l1.2-0.6
	l3-0.9l0.8-0.7l0.8-2.3l0.8-0.5l1.3,1.1l2.6,5l1.5,1.8l-13.7,4.6l-10.7,3.7l-14.7,5.1l-14.4,4.9l-29.8,10.3l-6.8,1.3l-3.3,1l-6.4,3
	l-19.8,6.6l-12.2,4l-13.8,7.4l-7.4,2.7L786,565l-8.9,2.1l-1.5,0.1l-20.5,4.8l-11.9,4.4l-7.3,2.6l-9,3.4l-8,4l-6.3,3.2l-7.5,0.9
	L703.7,590.9L703.7,590.9z"/>
<path id="ZMB520" class="st5" d="M689.8,563.4l0.3,0.6l0.3,1.2l0.3,0.6l0.6,0.6l1.9,0.7l0.8,0.6l3.3,4.6l1,0.8l1.2,0.6l0.8,0.5
	l0.8,1l0.7,1.1l0.9,0.9l0.4,0.3l0.4,2.7l0.1,10.5l0.1,0.2v0.6l0.6,2.6v3.9l0.4,3.9l3.2,11l2.1,4.3l2.8,1.8l1.2,0.4l1.1,1.2l0.9,1.6
	l0.6,1.6l0.3,1.8l0.3,5.8l0.2,1l1.3,1.8l0.3,0.8l-0.3,0.9l-1.5,3.1l-0.6,1.9l0.2,1.3l2.4,2.6l0.5,0.7l1,2.6l-0.2,0.2l-4.6,1.9
	l-2.5,0.1l-4.1-1.8l-2.1-0.3l-0.8,0.3l-1.2,1.1l-0.7,0.4l-1.4,0.3l-1-0.3l-2.2-1.5l-3.4-0.8l-3.4,0.5l-3.4,1l-3.3,0.5l-3.7-0.4
	l-7.3-2l-3.8-0.4l-2,0.5l-3.5,1.6l-3.7,0.6l-4.9,1.6l-2.1,0.3l-1.7-0.2l-1.7-0.5l-1.8-0.2l-2,0.5l-3.2,2.7l-1.5,1l-7.4,0.7l-1.3,0.2
	l-18.8,8.8l-3,3.2l-0.8,0.5l-1.7,0.4l-1.7,1.1l-1.3,1.2l-0.9,0.9l-1.8,3.5l-1.1,1l-2.1,0.4l-3.8,0.1l-1.9,0.3l-0.3,0.2l-1.3-1.1
	l-1.9-1.2l-1.9-0.4l-1.4,1.5l-1-0.6h-0.9l-0.7,0.4l-0.4,0.8l-0.9-0.6l-0.6,0.3l-0.4,0.6l-0.4,0.3l-0.8-0.1l-1.3-0.4l-0.6-0.1
	l-1.5,0.2l-0.5-0.1l-0.8-0.4l-5.8-4.6l-1.1-0.5h-1.7l-3.4,0.4l-1.7-0.3l-1.5-0.9l-3.7-3.9l-1.4-1.1l-1.3-0.5l-3.2-0.4l-1.1-0.4
	l-1.6-1.3l-1-0.5l-1.7-0.4l-8.5,0.5l-1.3,0.5l-2.5,1.9l-0.9,0.1l-0.9-0.5l-2.6-2.3l-1.4-0.8l-8.4-3.3l-1.8-0.3l-1.6-0.5l-0.9-1.3
	l-0.8-1.6l-1.1-1.4l-3.1-1.5l-3.5-0.2l-3.5,0.8l-2.8,1.5l-0.8-0.5l-0.4-0.5l-0.2-0.6l0.2-0.8l-1.6-1l-2-0.3H494l3.6-7.7l9.1-2.6
	l1.5-1.2l0.8-1.1l0.2-0.5v-1.3l-0.3-1.5l-1.2-4l-2.2-4.4l-1.1-1l-1.2-0.5l-4.6-0.7l-2-0.5l-1.2-0.8l-0.5-1.3l0.2-0.9l0.7-0.9l4.3-3
	l0.8-0.3l1-0.2h1.1l14.6,2.4l14.4,4.7l4.9,1.1l2.7-1l2.3-4.1l2.2-6.3l2.7-5.4l2.5-1.5l14,3.7l7.4-0.2l7.5-0.9l6.8-2.3l10.6-9.6
	l4.6-2l4.4-0.8l15-4.7l7.1,1.9l7-0.2l5.6-1.1l2.4-4.4l1-3.7l0.3-2l0.4-1.1l1.2-1.8l0.8-0.5l0.6-0.1l0.5,0.1l2.8-0.1l0.4-0.3l0.7-0.6
	l5.1-2.8l0.7-0.6l0.5-0.6l0.5-0.3l6.7-2.7l0.5-0.1l1.9,0.2l0.5-0.1l0.4-0.3l1.7-1.4l0.5-0.3l0.6-0.1l1.4,0.4l0.7,0.1h0.8l1.3-0.1
	l0.8-0.3l0.5-0.3l0.5-0.7l0.2-0.4l0.6-1.7l0.5-0.7l0.4-0.1l0.6,0.6l0.6,0.3l0.8-0.3l0.8-0.1l0.8-0.5l1.1-0.3h1.1l0.3,0.3l0.9,0.9
	l0.8,0.4L689.8,563.4L689.8,563.4z"/>
<path id="ZMB521" class="st6" d="M479.8,350.1l-0.3,0.3l-3.7,2.5l-0.3,0.2l-1.3,0.5l-1.2,1.6l-1.3-0.7l-2.4-0.4l-0.3-0.5l0.2-0.6
	v-0.5l-1.2-0.9l-1.3-0.8l-0.8-0.6l-1.6,0.5l-0.7,0.5l-1.2,1.1l-0.7,0.5l-1.7,0.7l-0.4,0.4l-1.2,1.4l-1.3,0.7l-0.3,0.2l-1.2,0.6
	l-0.4,0.4l-1.1,1.3l-0.5,0.4l-0.6,0.2l-10.7-1.1l-1,0.1l-1.7,0.4l-0.7,0.1l-2.4-0.2l-2-0.4h-0.4l-0.3,0.1l0.2,1.1l1,3.1l0.1,0.5v2.7
	l-0.7,1.3l-0.2,0.6l-0.1,0.7v1.2l0.1,0.7l0.2,0.6l0.7,2l0.7,0.8l0.2,0.6l-0.9,0.5l-3.4,0.6l-0.8,0.3l-0.7,0.5l-3,3.8l-0.9,1.6
	l-0.8,1l-0.6,0.6l-0.7,0.5l-1.3,0.5l-1.5,0.1l-0.9,0.2l-0.8,0.4l-0.6,0.7l-0.7,1.1l-0.5,1.1l-0.8,3.8l-0.3,0.7l-0.6,1v0.5l0.2,0.8
	l0.4,0.4l0.7,0.7l0.6,0.9l0.2,0.8l0.4,0.4l0.8,0.5l1.6,1.8l0.4,0.8l-0.1,0.6l-0.6,1.3l-0.8,1.8l-0.8,1.2l-0.1,0.5l0.1,0.4l0.2,0.6
	l0.8,0.6l0.9,0.4l0.8,0.5l0.9,0.9l0.7,0.6l2.3,0.9l0.4,0.2l1.1,0.8l0.5,0.1l1.4,0.1l0.7,0.2l0.3,0.2l0.6,0.7l0.3,0.8l0.3,0.3
	l0.7,0.3l0.3,0.4l0.3,0.8l0.5,0.3l0.5,0.2l1.9-0.3h0.5l1,0.2l0.4,0.3l-2.4,10l-0.5,1.3l-0.6,0.9l-0.7,1l-0.7,0.5l-4.8,3l-0.9,0.9
	l-0.5,0.8l-0.1,0.6l-0.2,0.9v1.4l0.3,1.4l1,2l0.2,0.9l0.2,1.5l-0.1,0.5l-0.2,0.7l-0.3,1l-0.9,1.5l-0.5,0.8l-0.5,0.5l-1.9,0.9
	l-0.6,0.6l-1,2.3l-0.4,0.6l-0.4,0.3l-0.8,0.4l-1.7,0.6l-1.1,0.6l-0.3,0.5l-0.3,0.7l-0.9,4.3l-0.3,0.7l-0.5,0.7l-1.7,1.3l-0.2,0.4
	l-0.5,0.7l-0.6,1.6l-0.3,1.4l-0.4,5.7l0.1,1l0.4,1.1l0.4,0.7l0.3,0.6l1.3,1.1l2.9,1.9l0.8,0.3l0.6,0.6l0.6,0.6l0.5,0.7l0.5,0.7
	l0.3,0.9l0.3,1.3l0.5,0.7l0.5,0.7l0.4,0.3l0.7,0.5l2.6,1.2l0.3,0.3l0.1,0.5l-0.1,1l-0.1,0.5l-0.9,1.7l-1.8,2.6l-0.7,1.9l-0.3,2.4
	l-0.1,2.2l0.2,3.4l-0.2,0.8l-0.4,0.4l-0.8,0.4l-1.7,0.6l-0.9,0.4l-0.4,0.7l0.1,0.3l0.4,0.4l3.2,1.8l1,0.8l4.2,5.5l0.7,1.1l0.7,1.6
	l0.2,1l0.1,1.6l-0.3,1l-0.2,0.4l-1.5,2.2l-0.5,0.8l-0.1,0.4l0.2,0.9l0.2,9.8l-0.6,1.4l-0.4,0.5l-1.5,1.3l-10.5,0.4l-1.2,0.5l-3,2
	l-1.6,0.5l-7.1-0.5l-0.9,0.1l-0.6,0.9l-0.5,0.2l-1.1-0.2l-1.6-0.8l-0.8-0.2l-1.5,0.1l-1.3,0.6l-1.1,0.8l-0.8,0.9l-3.5,5.4l-5.5,4.3
	l-3.5,4.1l-0.9,1.8l-0.6,4.6l-2.9,1.3l-0.9,0.2l-0.9-0.3l-0.6-0.7l-0.5-0.8l-0.6-0.6l-3.8-1.9l-2.2-0.3l-1.3-0.4l-0.9-0.5l-0.6-0.8
	l-0.7-1.2l-0.8-0.9l-47.2-5.8h-1.5l-1.5,0.3l-1.1,1l-2.1,1.3l-2.1-0.1l-1.1,0.3l-0.4,0.4l-1.9,0.9l-1.6,0.1l-1.2,0.1l-0.7-0.1
	l-0.5-0.2l-0.8-0.5l-0.3-0.3l-1-0.4l-1.6-0.4l-5.5-0.5h-1.2l-0.4,0.2l-1.6,0.8l-0.8,0.3l-3.7,0.8l-1.3,0.4l-1.2,0.6l-1.7,0.7
	l-3.2,0.8h-0.9l-4-0.3l-0.8,0.1l-0.8,0.1l-1.6,0.6l-1.4,0.1l-0.6-0.1l-0.7-0.2l-1.3-0.8l-0.7-0.5l-1.8-2.1l-1-1.4l-0.5-1.2l-0.2-1
	l0.4-2.8v-0.5l-0.2-2l0.1-1.1l0.5-0.8l0.7-0.5l1.9-0.6l2.2-1.1l1-0.8l0.9-1l0.3-0.9l0.2-3.8l0.4-2l0.3-1l0.8-1.1l0.7-1.2l0.3-0.9
	l0.4-1.6v-3.2l-0.2-0.7l-0.4-0.7l-0.9-1.1l-0.6-0.5l-0.6-0.1l-3.3,0.6l-0.9-0.2l-1.5-0.5l-9.6-4.9l-0.5-0.2l-2.1-0.3l-1.9-0.6
	l-1.7-0.2l-4.4-1.5l-0.7-0.4l-0.4-0.4l-0.5-0.7l-0.5-1.2l-0.3-0.9v-0.5l0.1-2.3l-0.1-0.5l-0.6-1.6l-0.2-0.9L234,505l-0.4-0.6l-1-0.9
	l-2-2.4l-0.8-0.5h-0.3l-0.6,0.5l-1.3,0.5l-0.2,0.3l-0.3,0.9l-0.1,1l-0.3,0.4l-0.4,0.1l-0.3-0.2l-0.1-0.7l0.2-1.6l-0.1-0.6l-1.9-0.4
	l-0.3,0.2v0.4l0.2,0.9v0.4l-0.2,0.4l-0.3,0.1h-0.4l-0.9-0.4l-0.5-0.1h-1l-0.5-0.8l-0.7-0.8l-1.1-0.6l-1-0.9l-0.4-0.5l-1.9-2.1
	l-0.3,0.1l-0.5,0.7l-0.4,0.3l-0.8,0.2l-0.1,0.3l0.7,0.9l0.1,0.3l-0.2,0.3l-0.9,0.1l-1.2-0.1l-0.6-0.1l-0.5,0.1l-0.9,0.9h-0.6
	l-0.3-0.2l-0.7-1.3l-0.3,0.1l-0.5,0.6l-0.7,0.4H206l-3.3-1l-0.7-0.4l-0.5-0.5v-1.6l-0.2-0.6l-0.4-0.6L200,495l-0.5-0.2h-0.4
	l-0.2,0.8l-0.2,0.3l-0.5,0.7v0.3l0.7,0.8l0.3,0.4v0.4l-0.2,0.3l-0.5,0.1h-0.7l-0.9-0.2l-0.7-0.4l-1.6-1.1l-1.3-1.2l-0.5-0.1
	l-0.4,0.1l-1.1,0.6l-0.9,0.3l-0.4,0.2l-0.5,0.7L189,498h-0.5l-1.3-0.1l-0.4,0.2l-0.3,0.3l-0.8,1.2l-0.3,0.2l-0.7,0.4l-1,0.2
	l-0.7-0.1l-0.6-0.2l-0.6-0.6l-0.5-0.1l-0.4,0.1l-0.6,0.7l-0.5,1.5l-0.3,0.5l-0.6,0.2l-0.3-0.2l-0.7-0.8l-0.4-0.1l-0.3,0.1l-0.8,1
	l-0.9,0.9l-1.1,0.7l-0.9,0.3l-0.8,0.1l-1-0.2l-0.8-0.3l-1.3-0.6l-0.7-0.2l-0.5,0.1l-0.7,0.5l-0.9,0.2l-0.7,0.4l-0.9-0.1l-0.7-0.1
	l-1.8-0.7h-1.6l-1.3-0.3l-0.6-1v-1.7l-0.9,0.4l-2,2l-1,0.4l-0.9,0.1l-1,0.3l-2.8,1.7l-1.5-0.4l-1.3-1l-1.4-0.5l-1.4,0.4l-2.9,1.6
	l-3.5,0.9l-3,2.3l-1.5,0.9l-8.8,2.3l-2.4,1.2l-2.6,2.4l-0.9,0.6l-1.1,0.4l-0.8-0.1l-0.8-0.2l-1.1-0.1l-1.5,0.4l-2.1,1.9l-1.4,0.8
	h-3.5l0.4-0.8v-0.6l-0.4-1.1l-3.5,1.3l0.4-1.8l1.9-2.9l1.1-1.4l0.4-0.8l-0.3-0.3l-0.5-0.1l-6.6-0.7l-0.8-0.2l-1.2-0.8l-0.5-0.7
	l-0.4-0.8l-0.2-0.9l-0.1-1.1v-1.3l-0.2-0.5l-0.5-0.5l-1-0.6l-0.8-0.2l-0.6-0.1l-1,0.2l-2.2,1l-1.5,0.3h-0.5l-0.6-0.3l-0.4-0.6
	l-0.3-1l-0.5-1.3l-0.5-0.7l-1.1-1.2l-7.5-4.9l-2.1-0.9l-0.7-0.1l-0.6,0.1l-0.3,0.2l-2.1,2.2l-0.8,0.4l-4,0.2l-0.4,0.1l-0.4,0.3
	l-0.1,0.5l-1,5.1l-0.2,0.5l-0.6,0.9l-1,0.2l-1.1-0.3l-0.8-0.4l-0.7-0.6l-0.9-0.5l-2.1-0.4l-1-0.4l-0.5-0.7l-0.1-0.7l-0.4-0.7
	l-0.5-0.6l-0.4-0.2l-1.5-0.4l-0.7-0.7l-2.5-0.2l-0.7-0.1l-0.5-0.2l-2.1-1.4l-0.3-0.3l-0.7-1.7l-0.5-0.4l-5.8-3.6l-12.4-10.6
	l-0.9-0.6l-2.1-1l-0.8-0.3l-0.7-0.2l-1,0.2l-0.6,0.5l-0.9,1.6l-0.6,0.6l-1.2,0.7l-0.5,0.6l-0.4,0.8l-0.6,0.7l-2.5,1.1l-1.4,0.3h-1.5
	l-0.8-0.1l-1-0.4l-1.3-1.1l-2.1-2.1l-1.1-0.7l-2.5-1.3L1,477.4v-60.9h172.5l-1.1-3.2l-1.4-2.7l-1.9-2.6l-4.7-4.8l-1.7-2.4l-0.8-2.8
	l0.6-3.5l1.7-3.9l3.1-12.6l1-2.5l6.8-10l0.7-1.5l0.2-1.5l-0.8-3.9l-0.4-5.3l-0.8-2.2l-2.2-2.3l-1.8-2.7l-0.5-3.9l0.6-12.3l0.5-11.2
	l1.8-4.3l0.2-0.9l-0.4-2.1l-0.4-6.5l-0.7-2.1l-0.9-1.7l-0.7-1.7v-2.2l0.5-1.7l1.5-3.5l2.4-3.7l0.3-1v-1.4l-0.2-2.1v-1.1l0.2-1l1-1.3
	l2.6-2.1l0.9-1.1l-0.1-1.1l-3.8-8.4l-0.4-2.2l0.3-12.4l-1.7-0.3l-0.4-1.2l0.3-3.4v-4.8l0.3-1.5l0.5-1.7l-0.3-1.3l-1.7-2.5l-0.5-1.5
	l-0.6-4.3l2.9,0.1l4,0.8l3.7,1.3l1.9,1.9l0.1,0.8l-0.5,1.5l-0.1,0.8l0.2,1l0.6,1.7l0.2,1l-0.2,2.9l0.6,1.1l1.7-0.3l1.7-0.5h1.5
	l3.1,1l1.7,0.2h3.2l1.6,0.2l1.9,0.9l2.5,1.5l2.1,1.9l1,1.8l-0.3,1L205,254l-0.7,0.8v1.3l0.5,1l1.4,1.3l0.6,0.7l0.4,1.5l0.1,1.9
	l-0.1,1.8l-0.3,1.7l-0.7,1.4l-2.7,4.4l-1.1,1.1l-3.5,1.1l-1.1,0.9l0.7,1.6l1.4,0.6l3.5,0.1l1.6,0.2l1.9,1.2l2.9,2.7l1.7,0.8l2,0.2
	l1.8-0.4l3.6-1.3l0.8-0.1l1,0.1l0.9-0.2l0.5-0.7l0.3-1l0.4-0.8l0.5-0.7l0.7-0.7l0.8-0.3l1.9-0.4l0.9-0.5l0.8-0.8l1.6-2.2l0.9-0.8
	l3.3-1.4h6.4l3.4-0.7l6.3-3.2l3.6-1.1l3.2,0.3l12.2-1.1l5.1-1.1l8.1-4.1l2.7-0.4l1.1,0.9l0.1,2l-0.1,2.2l0.2,1.8v0.8l-0.7,0.6
	l-1.8,0.7l-1,0.8l0.5,0.7l1,0.8l0.4,0.7l-0.7,1.6l-1,0.8l-0.7,1v2.1l0.7,1.8l1.9,3.4l0.7,1.5l-0.1,0.8l-1.2,1.4l-0.4,0.9v0.8
	l0.3,1.5l2.3,7.1l0.8,1.5l0.7,0.8l0.6,0.3l0.7,0.1h1.1l1.1,0.2l0.6,0.6l0.4,0.8l0.7,0.7l4.9,2.3l1.5,1.3l0.1,0.5v0.9l-0.7,2.2
	l0.5,1.2l1.3,0.6l1.7-0.1l0.8-0.4l0.5-0.6l0.6-0.5l1.1-0.2l0.9-0.2l0.4-0.9l0.2-0.8l0.7-0.6l3.9,0.1l2.9,1.9l2.7,2.5l3.3,1.9
	l1.5,0.3h4.9l1-0.1l1.7-0.8l0.6-0.2l0.9,0.2l0.5,0.3l0.3,0.4l4.7,3.8l1.8,0.7l1.2,0.9l1.2,2.7l1.5,0.7l1.1,0.2l14.7-0.2l1.9,0.7
	l1.7,1.1l1.8,0.9l3-0.2l1.8,0.8l1,0.1l1-0.4l1.6-1.2l0.9-0.4l3.2-0.5l3.3-0.1l2,0.6l1.4,1.2l1.4,1.3l1.5,1.2l3.1,1l6.9,0.5l3.2,0.6
	l1.6,1l1.5,1.1l1.5,0.7l1.7-0.4l1.3-1.2l1-1.5l1.3-1.1l2.2-0.1l4,0.5l3.6-0.8l3.3-1.9l3-2.9l1.6-3.4l0.4-7.2l0.8-3.4l1.3-1.9
	l1.3-1.2l0.9-1.4l0.1-2.3l-1.1-3.7v-1.7l1.1-1.2l0.8-0.1l1.9,0.3l0.8-0.1l3.2-1l3.7-0.3l2.4-1l0.6-0.1l1.4,2.1l0.9,4l0.4,4.3
	l-0.2,2.9l2.1,7.6l15.9,9.9l4,6.9l0.4,3.5l4.1,12.1l1.4,1.8L479.8,350.1L479.8,350.1z"/>
<path id="ZMB522" class="st7" d="M494,649.9h3.7l2,0.3l1.6,1l-0.2,0.8l0.2,0.6l0.4,0.5l0.8,0.5l2.8-1.5l3.5-0.8l3.5,0.2l3.1,1.5
	l1.1,1.4l0.8,1.6l0.9,1.3l1.6,0.5l1.8,0.3l8.4,3.3l1.4,0.8l2.6,2.3l0.9,0.5l0.9-0.1l2.5-1.9l1.3-0.5l8.5-0.5l1.7,0.4l1,0.5l1.6,1.3
	l1.1,0.4l3.2,0.4l1.3,0.5l1.4,1.1l3.7,3.9l1.5,0.9l1.7,0.3l3.4-0.4h1.7l1.1,0.5l5.8,4.6l0.8,0.4l0.5,0.1l1.5-0.2l0.6,0.1l1.3,0.4
	l0.8,0.1l0.4-0.3l0.4-0.6l0.6-0.3l0.9,0.6l0.4-0.8l0.7-0.4h0.9l1,0.6l1.4-1.5l1.9,0.4l1.9,1.2l1.3,1.1l-1.3,0.6l-2.8,2.8l-1.9,2.4
	l-0.2,0.6l-1.2,1.8l-0.3,1l0.2,0.8l0.8,1.1l0.2,0.5l-0.5,3l-1.1,3.7l-0.4,3.5l1.4,2.6l-2,4.7l-0.3,2l0.3,1.5l1.4,3.7v2.1l-2,3.4
	l-0.4,0.7L585,723l-1.2,1.4l-3.4,2.6l-0.7,1.5h-0.3l-1.5,0.6l-1-0.7l-1.3,0.1h-1.2l-1.2-1.3l-0.1-1.3l0.1-1.1l-0.4-0.9l-1.6-0.2
	l-1.3,0.3l-2.2,1.7l-6.3,1.1l-1,0.4l0.7,0.5l0.9,0.2l0.9,0.1l1-0.1l-0.4,1l-0.7,0.8l-1.3-0.3l-1,0.4l-1,0.8l-1.1,0.4l-0.2-0.7
	l0.1-1.4l-0.4-1.5l-1.6-0.7l-0.6,1.7l-1.4,0.6l-1.4,0.1l-0.7,0.3l-0.4,1.3l-2.3,3.1l-0.8,0.8l-0.5-0.8l-1.7-0.8l-0.7-0.9l0.8-0.5
	l0.2-0.6l-0.3-0.4l-0.7-0.3l-0.7,0.3l-1.9,0.8l-0.3-0.1l-0.5-1.6l-1.1-0.7l-1.5-0.2l-1.7,0.3l1.3,0.6h0.5v0.6h-1.2v0.7l2.1,0.4
	l1.5,1.3l0.5,1.3l-0.9,0.6l-2.1,0.4l-1.3,0.8l-1.1,0.3l-1.6-0.9l-0.1,1.6l0.2,1.8l-0.3,1l-1.6-0.7l-0.5,1.2l-1.8-2.4l-1.1-0.5
	l-1.7,0.5v0.6l1.1,1.1l-0.3,2l0.1,1.2l2.5-1.2l-0.4,1.1l-1,0.8l-2,1.2l-0.8,0.3l-0.8,0.1l-0.6,0.3l-0.2,0.7l-0.1,1.6l-0.2,0.6
	l-0.3,0.6l-1.3-1l-1.5-0.6l-1.3,0.3l-0.6,1.6v1.9l-0.2,0.5l-0.5,0.2l-0.3,0.4l0.5,1l0.6-0.4l1.1,0.4l-1.6,2.1l-2.6,1.5l-2.9,0.5
	l-2.3-0.5l-1.1-1.1l0.1-0.8l0.6-0.9l-0.1-1.4l-0.9-0.9l-1.2-0.1l-1.4,0.4l-1.3,0.6l0.5-1.7l0.2-1.1v-0.3l-0.5-0.1l-0.5,0.2l-0.8,0.5
	l-2-0.4l-1.1,0.1l-1,0.3l1,0.8l0.3,0.7l-0.1,1.9l-0.9,0.6l-5.5-1l-0.6,0.7v0.6l0.1,0.8l-0.1,0.7l-1,0.3v0.5l2.4,2l0.9,0.6l4,1
	l0.7,0.5l-0.6,0.6l-1.3,0.5l-2.2,0.4l-4.3,2l-2.5,0.3l-0.8-1.7h-0.6l-0.6,0.9l-1.8,1.3l-0.6,0.9h2l1.3,0.7l0.6,1l-0.3,1.4l-1.7,1.4
	l-3.5,0.9l-1.3,1.3l1.4,0.4l1.1,0.8l2.2,1.8l-2.5,1.8l-1.4,0.6l-1.4,0.1l0.9-1.4l-0.1-0.9l-2-2l-1,1l-1.8,2.7l-0.5,0.3l-1.1,0.3
	l-0.5,0.3l-0.5,0.8l-0.1,1.3l-0.2,0.7l-1.5,0.7l-0.3,0.2l0.3,2l-0.3,0.8l-0.5,0.2l-0.8,0.1l-0.7,0.4l-0.4,0.8v0.8l-0.2,0.9l-0.3,0.4
	l0.3,1.9l-1.3,1.4l-1.7,1.1l-0.9,0.9h-1.1l-2.3,0.4l-1.2,0.8l1.7,1.6l-0.2,0.3l-0.4,0.9l1.6,0.4l-1.3,1.5l-4.1,3.3l-3.6,4.5
	l-1.8,1.1l-0.7,1.1l-0.2,1.2l0.8,1l0.6-0.2l0.8-0.5l0.9-0.5l1.2-0.1l1.4,0.5l0.2,0.4l-0.5,0.8l-0.5,1.4v1.4l0.1,1.2v1l-0.7,1.3
	L459,818l-1,0.2l-0.1,0.8l1.3,0.7v0.7l-0.4,0.2l-0.2,0.3l-2.4-1.1l-0.5-0.1l-0.9,0.4l-0.1,0.5l0.2,0.6l-0.7,1.9v0.7l-0.4,0.5l-1,0.4
	l-0.7-0.1l-0.7-0.3l-1-0.9v0.6l-0.1,0.7l0.1,0.6l-1.4,0.1l-0.1,0.8v1l-2.1,0.9l-1.3,1.6l-0.9,0.5l0.4,0.6v0.3l-0.4,0.9l-1.2-0.3
	l-0.8,1l-0.6,1.5l-0.7,1.2l-3,3.6l-1.3,1.1l0.4,0.2l0.7,0.6l0.6,0.4l-1.7,0.6v0.6h0.5l-0.4,0.5l-0.6,0.8l-0.2,1l0.7,0.7h1l1.1-0.6
	l1-0.7l0.9-0.5l-0.2,1.3l-0.7,1l-0.9,0.8l-1.1,0.6l0.3,0.7l-0.5,0.5l-0.8,0.4l-0.8,0.3v0.6l0.3,0.7l-0.3,0.4l-0.7-0.1l-0.9-0.5
	l-0.6,2.1l-2.7,2.6l-0.1,0.9l-1.3,0.4l-4.1,0.2L425,857l-3.1,2.1l-2-0.7l-8.1,3.7l-2,0.3l-1.4,0.3l-1.1,0.7l-2.5,2.3l-1,0.3
	l-1.2-0.2l-4.9-1.6l-1.3-0.7l-1.2-1l-1.3-1.5l-1.2-1l-1.4-0.5l-2.2-0.4l-3.6-1.2l-6.6-3.6l-3.9-0.7l-3.1,0.4l-0.7-0.1l-0.5-0.6
	l-0.7-0.5l-0.8-0.3l-3.9-0.5l-0.8-0.3l-0.5-0.5l-0.4-0.9l-0.7-0.7l-0.7-0.3l-0.8,0.4l-3,2.3l-0.8,0.4l-2,0.4l-1.4,0.8l-1.5,0.4
	l-0.5,0.2l-0.1,0.4l0.2,1.1l-0.1,0.4l-1.2,0.3h-1.6l-1.3,0.4l-0.6,1l-0.5-0.6l-4.8,2.5l-0.9,0.1l-3.7-0.1l-5.2-2.5l-0.8-1l-0.6-1.5
	l0.1-1.3l1.3-0.5l-1.2-1.5l-3.8-1.7l-0.8-1.4l-0.8-0.9l-1.7-1.1l-1.9-0.9l-3.2-0.9l-1-0.9l-1.1-0.7l-2.1,0.2l-4.5,2l-5.7,1.1
	l-0.6,0.2l-0.7,0.8l-0.5,0.2l-0.5-0.1l-0.8-0.4l-0.5-0.1h-6.4l-0.9-0.2l-2.8-1.1l-2.7,0.1l-0.8-0.1l-1.7-0.8l-2.6-2l-1.6-0.8
	l-0.6-0.6l-0.5-1.1l-1-1l-1.1-0.7l-1.2-0.3l-1.4-0.1l-0.7-0.3l-1.1-1.5l-0.4-0.3l-1-0.5l-0.4-0.4l-0.1-0.5l0.1-1.1l-0.3-0.6
	l-1.2-1.3H270l-0.8,1.1l-0.2-0.6l-0.4-0.7L268,831l-0.8-0.2l-0.2-0.4l-0.7-2.7l-0.3-0.1l-1.5-1.4l-0.3-0.4h-1l-0.6-0.1l-0.4-0.4
	l-0.6-0.6V824l0.6-1.5l-0.3-0.3l-0.9,0.1l-1.6,0.6l-0.8-0.1l-1.3-1l-1-1.4l-0.1-0.1l0.8-6.1l0.5-2l1.3-1.5l0.9-0.8l0.4-0.5l0.6-0.9
	l0.2-0.7l0.1-0.7l-0.1-0.5l-0.3-0.9l-0.1-0.7v-4.9l0.2-0.9l0.2-0.7l0.6-0.7l1.4-1l0.3-0.3l1.4-2.5l0.9-1l1.6-3l0.1-0.6v-0.5
	l-0.4-0.7l-0.5-0.6l-0.3-0.7l-0.1-1l0.3-2.3l0.3-1l0.4-0.7l0.7-0.6l2.3-1.2l0.5-0.5l0.6-0.7l1-1.6l0.5-1.1l0.2-0.8v-0.6l-0.1-0.4
	l-0.4-1l-0.1-0.6l0.2-1.3l0.7-0.6l0.8-0.4l0.8-0.3l4.4-2.1l0.7-0.7l0.7-1l1.5-2.5l0.5-1.2l0.1-0.9l-2.5-8.5l-0.4-0.8l-0.2-1v-1.4
	l0.8-4.3l0.1-1.1l-0.1-0.8l-0.3-0.3l-0.7-0.5l-1.3-0.7l-1-0.3l-9-1.1l-0.6-0.2l-0.4-0.4l-1.1-2.3l-0.2-0.9l-0.3-1.5l-0.2-0.4
	l-0.6-0.6l-3-2.1l-2.3-2.1l-0.5-0.5l-0.2-1.1l0.1-0.7l0.5-0.1l1.3-0.3l0.8-0.3l1.1-0.8l8.6-11.7l0.6-0.6l1.6-0.9l0.3-0.2l1.3-1.2
	l0.4-0.2l1.4-0.3l0.4-0.2l1.1-0.7l1.2-1.3l0.6-0.7l0.3-0.3l0.8-0.4l1.4-0.3l1.2-0.6l0.5-0.6l0.6-1.1l2.1-5l0.3-0.3l0.8-1.4l1-2.4
	l0.3-0.6l0.6-0.6l0.6-0.7l0.7-1.2l0.3-0.3l0.7-0.5l1.1-0.6l0.7-0.6l0.2-0.4l0.8-0.8l0.5-0.6v-0.5l-0.2-0.3l-0.4-0.3l-1-0.3l-1.1-0.1
	l-1-0.3l-0.7-0.5l-0.6-0.7l-1.7-1.4l-0.6-0.6l-0.6-1.2l-0.1-1.3v-1l0.1-0.6l0.3-0.3l0.8-0.6l0.4-0.4l0.4-0.6V678l-0.6-0.8l-0.2-0.6
	v-1.2l0.1-0.7l0.3-0.5l0.4-0.2l0.5-0.6l0.7-0.9l0.8-2.4l1.3-9.5v-1.1l-0.1-0.5l-0.4-0.8l-0.5-0.6l-0.7-0.6l-0.9-0.4h-0.5l-0.4,0.1
	l-0.3,0.3l-0.6,0.6l-0.8,1.1l-0.6,0.7l-0.7,0.4l-1,0.1l-1.1-0.1l-0.8-0.4l-0.7-0.6l-0.6-0.7l-1.2-1.8l-0.2-0.5l-0.3-1.5l0.1-0.6
	l0.3-0.4l1.1-0.7l0.4-0.4l0.3-0.5l0.2-1.2l-0.2-0.9l-0.5-0.7l-0.6-0.5l-0.8-0.4l-1.9-1.3l-0.4-0.3l-0.2-0.5l-0.2-0.8l0.1-0.6
	l0.3-0.4l2.3-1.9l0.4-0.4l0.4-0.6l0.4-1.1l0.1-0.6l-0.1-0.6l-0.5-0.7l-1.4-1.4l-0.3-0.9l0.1-0.5l0.6-0.7l1.6-0.6l0.5-0.1l1.2,0.4
	l0.6-0.5l1.2-2.3l0.2-0.7l0.4-1.2v-0.9l-0.2-1.3l0.1-0.7l0.1-0.5l0.3-0.4l0.6-0.6l0.8-0.9l0.4-0.7l0.2-0.6v-0.6l-0.3-0.8l-1-1.5
	l-0.4-1.3l121.3,3.3l4.9,0.6l3.4,0.8l11.3,6.6l0.9,0.8v0.6l-2.1,1.7l-0.3,0.6l0.8,0.2l20,1.1l2.1,1.3l4.5,19.3v1.1l1,0.2l0.8,1.3
	l1.4-0.8l0.3-0.8l7-12.9l0.3-0.6l0.3-0.5l0.4-0.1l1.7,0.6l1.3,0.6l0.4,0.1l0.4-0.2l0.4-0.9l0.2-0.3l0.4-0.3l0.9-0.3l1.2-1.1l0.8-0.5
	l0.4-0.8l0.4-1.5l0.2-0.3l1.1-0.6l0.2-0.4l0.2-1.2l0.4-0.4l0.7-0.2l1.2-0.1l0.6,0.2l0.1,0.5l-0.1,0.8l0.1,0.3l0.5,0.3l4.4,1.4
	l0.4,0.4l0.2,0.4l0.1,1l0.2,0.4l0.3,0.3l1.4,0.6l0.2,0.4l0.1,0.5l-0.1,1.7v0.5l0.5,0.7v0.3l-0.2,0.3l-0.9,0.9l-0.2,0.3l0.3,0.8l1,1
	l0.9,0.8l0.5,0.6l0.3,0.7l0.6,0.8l0.8-0.9l0.5-0.3l1-0.1l0.5,0.1l0.9,0.5l0.6,0.1l0.3-0.2l0.6-0.9L494,649.9L494,649.9z"/>
<path id="ZMB523" class="st8" d="M305.5,555.8l-0.6,0.2l-0.6,0.4l-0.9,1l-1.5,2.3l-0.5,1.2l-0.8,2l-1,1.6l-0.2,0.6l-0.1,0.8l0.1,1.4
	l0.5,1.8l-0.2,2.8v1.5l-0.1,0.5l-0.5,0.3l-1,0.3l-0.4,0.2l-0.6,0.7l-0.3,1.1l-0.1,1l-0.2,0.8l-0.5,0.8l-0.7,0.9l-0.3,0.7l-0.1,0.9
	l-0.1,1.7l0.1,0.9l0.2,0.6l2.5,4.6l0.2,1l-0.1,3.8l-0.3,0.8l-0.5,1l-1.2,1.9l-1.3,1.3l-0.3,0.4l-0.1,0.9l0.2,2.5l-0.1,0.6l-0.3,0.5
	l-0.7,0.4l-0.6,0.1l-1-0.2l-1,0.1l-0.4,0.1l-0.8,1l-2.6,2.4l-0.3,0.3l-0.2,0.5v0.8l0.4,3.3l-0.1,6l0.4,1.3l1,1.5l0.3,0.8v0.6
	l-0.2,0.6l-0.4,0.7l-0.8,0.9l-0.6,0.6l-0.3,0.4l-0.1,0.5l-0.1,0.7l0.2,1.3v0.9l-0.4,1.2l-0.2,0.7l-1.2,2.3l-0.6,0.5l-1.2-0.4
	l-0.5,0.1l-1.6,0.6l-0.6,0.7l-0.1,0.5l0.3,0.9l1.4,1.4l0.5,0.7l0.1,0.6l-0.1,0.6l-0.4,1.1l-0.4,0.6l-0.4,0.4l-2.3,1.9l-0.3,0.4
	l-0.1,0.6l0.2,0.8l0.2,0.5l0.4,0.3l1.9,1.3l0.8,0.4l0.6,0.5l0.5,0.7l0.2,0.9l-0.2,1.2l-0.3,0.5l-0.4,0.4l-1.1,0.7l-0.3,0.4l-0.1,0.6
	l0.3,1.5l0.2,0.5l1.2,1.8l0.6,0.7l0.7,0.6l0.8,0.4l1.1,0.1l1-0.1l0.7-0.4l0.6-0.7l0.8-1.1l0.6-0.6l0.3-0.3l0.4-0.1h0.5l0.9,0.4
	l0.7,0.6l0.5,0.6l0.4,0.8l0.1,0.5v1.1l-1.3,9.5l-0.8,2.4l-0.7,0.9l-0.5,0.6l-0.4,0.2l-0.3,0.5l-0.1,0.7v1.2l0.2,0.6l0.6,0.8v0.4
	l-0.4,0.6l-0.4,0.4l-0.8,0.6l-0.3,0.3l-0.1,0.6v1l0.1,1.3l0.6,1.2l0.6,0.6l1.7,1.4l0.6,0.7l0.7,0.5l1,0.3l1.1,0.1l1,0.3l0.4,0.3
	l0.2,0.3v0.5l-0.5,0.6l-0.8,0.8l-0.2,0.4l-0.7,0.6l-1.1,0.6l-0.7,0.5l-0.3,0.3l-0.7,1.2l-0.6,0.7l-0.6,0.6l-0.3,0.6l-1,2.4l-0.8,1.4
	l-0.3,0.3l-2.1,5l-0.6,1.1l-0.5,0.6l-1.2,0.6l-1.4,0.3l-0.8,0.4l-0.3,0.3l-0.6,0.7l-1.2,1.3l-1.1,0.7l-0.4,0.2l-1.4,0.3l-0.4,0.2
	l-1.3,1.2l-0.3,0.2l-1.6,0.9l-0.6,0.6l-8.6,11.7l-1.1,0.8l-0.8,0.3l-1.3,0.3l-0.5,0.1l-0.1,0.7l0.2,1.1l0.5,0.5l2.3,2.1l3,2.1
	l0.6,0.6l0.2,0.4l0.3,1.5l0.2,0.9l1.1,2.3l0.4,0.4l0.6,0.2l9,1.1l1,0.3l1.3,0.7l0.7,0.5l0.3,0.3l0.1,0.8l-0.1,1.1l-0.8,4.3v1.4
	l0.2,1l0.4,0.8l2.5,8.5l-0.1,0.9l-0.5,1.2l-1.5,2.5l-0.7,1l-0.7,0.7l-4.4,2.1l-0.8,0.3l-0.8,0.4l-0.7,0.6l-0.2,1.3l0.1,0.6l0.4,1
	l0.1,0.4v0.6l-0.2,0.8l-0.5,1.1l-1,1.6l-0.6,0.7l-0.5,0.5l-2.3,1.2l-0.7,0.6l-0.4,0.7l-0.3,1l-0.3,2.3l0.1,1l0.3,0.7l0.5,0.6
	l0.4,0.7v0.5l-0.1,0.6l-1.6,3l-0.9,1l-1.4,2.5l-0.3,0.3l-1.4,1l-0.6,0.7l-0.2,0.7l-0.2,0.9v4.9l0.1,0.7l0.3,0.9l0.1,0.5l-0.1,0.7
	l-0.2,0.7l-0.6,0.9l-0.4,0.5l-0.9,0.8l-1.3,1.5l-0.5,2l-0.8,6.1l-1-0.7l-1.8,0.8l-1.1-1.6l-2.2-1.1l-5.9-1.2l-2.8,0.1l-0.9-0.2
	L240,816l-0.5-0.4l-0.4-0.2l-7.3-1.1H228l-0.9,0.2l-0.6,0.6l-0.4,0.7l-0.9,0.5l-1.3,1.2l-0.9,0.4h-0.9l-0.7-0.1l-1.4-0.5l-0.7-0.5
	l-0.5-0.7l-0.7-0.5l-2.2-0.4l-1.6-0.8l-2.6-0.4l-3.6-1.3l-1.5-0.3l-1.5,0.2l-3.6,1l-0.7,0.3l-0.9-0.5l-4.5-0.2l-1.6-0.2l-1.6,0.1
	l-2.5,0.5l-11,2.3l-3.6,0.7l-7.3,1.6l-14.6,3l-11,2.2l-13.5,2.9h-1.6l-6.5,1.3l-0.5-1.2v-1.1l0.6-1.3l-2-1.6l-1.6-2l-1.7-1.3
	l-1.3-0.6l-1.2-0.4l-2.8-0.2l-1.4,0.2l-1.5,0.4l-1.5,0.1l-1.5-0.4l-1-1.1v-1.3l0.1-1.4l-0.2-1.4l-0.9-1l-3.8-1.5l-2-1.6l-2.1-2.5
	l-1.6-2.6l-0.7-2.4l-0.5-1.1l-3.6-3.8l-1.2-0.7l-4.1-1.2l-5.1-2.2l-2.3-1.5l-3.4-3.1l-2.7-1.5l-1.1-0.9l-0.8-1.3l-0.9-4.2l-1.2-2.4
	l-1.8-2.3l-3.8-4.2l-1.2-0.9l-5.1-2.1h-1l-0.5-0.4l-0.4-0.7v-1.6l-0.2-0.7l-1.1-1.2l-2.7-0.8l-1.2-0.8l-0.7-1.1l-0.9-2.5l-6.2-9.9
	l-0.7-0.8l-0.8-0.5l-1.3-0.2l-0.5-0.3l-0.5-0.5l-0.6-1.1l-1.3-1.8l-0.6-1.2l-0.8-0.8l-2.3-0.4l-0.3-0.2l-0.7-0.7l-0.4-0.3l-0.6,0.5
	l-0.8,0.2l-1.3,0.5l-0.6,0.1l-1.2-0.4l-7.3-6.1l-0.6-1.2l-0.2-1.5l-0.4-1.3l-0.9-0.6l-1.7-0.2l-0.3-0.6l0.2-1l0.1-1.2l-0.5-1.3
	L9.9,723l-0.4-1.2l0.1-1.4l0.5-1.7l0.7-1.6l0.8-1.1l0.1-1.1l-1.4-0.7l-2.8-0.6L7.3,713v-1.9l-0.1-0.9l-0.3-0.4l-1.1-0.9l-0.3-0.5
	l-0.4-1.3l-0.2-1.2l-0.3-1.1l-0.9-1.2h0.7h2.2l-3-4.9l-2.3-2.8l-0.2-2v-12.4v-0.3v-4v-9.1v-9V650v-9v-12L1,477.4l1.6,0.2l2.5,1.3
	l1.1,0.7l2.1,2.1l1.3,1.1l1,0.4l0.8,0.1h1.5l1.4-0.3l2.5-1.1l0.6-0.7l0.4-0.8l0.5-0.6l1.2-0.7l0.6-0.6l0.9-1.6l0.6-0.5l1-0.2
	l0.7,0.2l0.8,0.3l2.1,1l0.9,0.6l12.4,10.6l5.8,3.6l0.5,0.4l0.7,1.7l0.3,0.3l2.1,1.4l0.5,0.2l0.7,0.1l2.5,0.2l0.7,0.7l1.5,0.4
	l0.4,0.2l0.5,0.6l0.4,0.7l0.1,0.7l0.5,0.7l1,0.4l2.1,0.4l0.9,0.5l0.7,0.6l0.8,0.4l1.1,0.3l1-0.2l0.6-0.9l0.2-0.5l1-5.1l0.1-0.5
	l0.4-0.3l0.4-0.1l4-0.2l0.8-0.4l2.1-2.2l0.3-0.2l0.6-0.1l0.7,0.1l2.1,0.9l7.5,4.9l1.1,1.2l0.5,0.7l0.5,1.3l0.3,1l0.4,0.6l0.6,0.3H89
	l1.5-0.3l2.2-1l1-0.2l0.6,0.1l0.8,0.2l1,0.6l0.5,0.5l0.2,0.5v1.3l0.1,1.1l0.2,0.9l0.4,0.8l0.5,0.7l1.2,0.8l0.8,0.2l6.6,0.7l0.5,0.1
	l0.3,0.3l-0.4,0.8l-1.1,1.4l-1.9,2.9l-0.4,1.8l3.5-1.3l0.4,1.1v0.6l-0.4,0.8h3.5l1.4-0.8l2.1-1.9l1.5-0.4l1.1,0.1l0.8,0.2l0.8,0.1
	l1.1-0.4l0.9-0.6l2.6-2.4l2.4-1.2l8.8-2.3l1.5-0.9l3-2.3l3.5-0.9l2.9-1.6l1.4-0.4l1.4,0.5l1.3,1l1.5,0.4l2.8-1.7l1-0.3l0.9-0.1
	l1-0.4l2-2l0.9-0.4v1.7l0.6,1l1.3,0.3h1.6l1.8,0.7l0.7,0.1l0.9,0.1l0.7-0.4l0.9-0.2l0.7-0.5l0.5-0.1l0.7,0.2l1.3,0.6l0.8,0.3l1,0.2
	l0.8-0.1l0.9-0.3l1.1-0.7l0.9-0.9l0.8-1l0.3-0.1l0.4,0.1l0.7,0.8l0.3,0.2l0.6-0.2l0.3-0.5l0.5-1.5l0.6-0.7l0.4-0.1l0.5,0.1l0.6,0.6
	l0.6,0.2l0.7,0.1l1-0.2l0.7-0.4l0.3-0.2l0.8-1.2l0.3-0.3l0.4-0.2l1.3,0.1h0.5l0.5-0.2l0.5-0.7l0.4-0.2l0.9-0.3l1.1-0.6l0.4-0.1
	l0.5,0.1l1.3,1.2l1.6,1.1l0.7,0.4l0.9,0.2h0.7l0.5-0.1l0.2-0.3v-0.4l-0.3-0.4l-0.7-0.8v-0.3l0.5-0.7l0.2-0.3l0.2-0.8h0.4l0.5,0.2
	l0.9,0.9l0.4,0.6l0.2,0.6v1.6l0.5,0.5l0.7,0.4l3.3,1h0.4l0.7-0.4l0.5-0.6l0.3-0.1l0.7,1.3l0.3,0.2h0.6l0.9-0.9l0.5-0.1l0.6,0.1
	l1.2,0.1l0.9-0.1l0.2-0.3l-0.1-0.3l-0.7-0.9l0.1-0.3l0.8-0.2l0.4-0.3l0.5-0.7l0.3-0.1l1.9,2.1l0.4,0.5l1,0.9l1.1,0.6l0.7,0.8
	l0.5,0.8h1l0.5,0.1l0.9,0.4h0.4l0.3-0.1l0.2-0.4v-0.4l-0.2-0.9V501l0.3-0.2l1.9,0.4l0.1,0.6l-0.2,1.6l0.1,0.7l0.3,0.2l0.4-0.1
	l0.3-0.4l0.1-1l0.3-0.9l0.2-0.3l1.3-0.5l0.6-0.5h0.3l0.8,0.5l2,2.4l1,0.9l0.4,0.6l0.5,0.8l0.2,0.9l0.6,1.6l0.1,0.5l-0.1,2.3v0.5
	l0.3,0.9l0.5,1.2l0.5,0.7l0.4,0.4l0.7,0.4l4.4,1.5l1.7,0.2l1.9,0.6l2.1,0.3l0.5,0.2l9.6,4.9l1.5,0.5l0.9,0.2l3.3-0.6l0.6,0.1
	l0.6,0.5l0.9,1.1l0.4,0.7l0.2,0.7v3.2l-0.4,1.6l-0.3,0.9l-0.7,1.2l-0.8,1.1l-0.3,1l-0.4,2l-0.2,3.8l-0.3,0.9l-0.9,1l-1,0.8l-2.2,1.1
	l-1.9,0.6l-0.7,0.5l-0.5,0.8l-0.1,1.1l0.2,2v0.5l-0.4,2.8l0.2,1l0.5,1.2l1,1.4l1.8,2.1l0.7,0.5l1.3,0.8l0.7,0.2l0.6,0.1l1.4-0.1
	l1.6-0.6l0.8-0.1l0.8-0.1l4,0.3h0.9l3.2-0.8l1.7-0.7l1.2-0.6l1.3-0.4l3.7-0.8l0.8-0.3l1.6-0.8l0.4-0.2h1.2l5.5,0.5l1.6,0.4l1,0.4
	l0.3,0.3l0.8,0.5l0.5,0.2l0.7,0.1l1.2-0.1l1.6-0.1l1.9-0.9l0.4-0.4l1.1-0.3L305.5,555.8L305.5,555.8z"/>
<path id="ZMB5511" class="st9" d="M967.5,297.8l-4.2,1.1l-3.4,1.5l-1.6,2.4v4.2l-5.7,9.5l-3.6,8.1l-11.5,3.6l-19.3,5.9l-10.8,0.7h-5
	l-3.6,3.7l-1.4,5.1l-4.3,4.4H888l-7-1.5l-0.1,1.8l-0.5,1.8l-0.7,1.8l-1.5,1.9l-0.2,0.8l-4.3,3.4l-1,1.1l-1.2,2.7l-0.5,0.9l-0.8,0.9
	l-0.6,0.5l-0.3,0.6l-0.1,1.3l-0.2,0.5l-0.9,1.1l-0.2,0.7v3.9l-1.8,8.5l-0.9,1.1l-0.3,2.1l-0.4,0.7l-0.4,0.6l-0.2,0.9v2.9l-0.6,2.9
	v1.1l-0.2,0.9l-0.8,1.8l-0.4,1.8l-0.5,0.4l-0.7,0.2l-0.8,0.5l-0.8,1.4l-1.4,4l-0.2,1.6l-0.8,0.8l-1.7,0.7l-1.8,0.5l-0.9,0.1
	l-0.3,0.8l-0.4,0.5l-1.1,1.1l-0.4,0.2h-0.9l-0.5,0.4l-0.1,0.4l0.2,0.9l-0.1,0.5l-0.4,1.3l-0.2,1.8l0.1,1.8l0.5,1.7l-1,0.4l-0.7,0.4
	l-0.7,0.2l-1.1-0.5l-0.2,0.8l-0.4,0.6l-0.6,0.4l-1.8,0.2l-0.5,0.3l-0.9,1.1l-1.1,0.9l-1.9,0.9l-1.4,0.9l-0.4-0.8l-0.2-0.4h-0.5
	l-0.3,2.1l-1.1,1.3l-1.3,1.2l-0.6,1.7l-0.2,0.9l-0.5,0.6l-0.7,0.5l-1.7,0.4l-0.5,0.8l-1.5,5l-0.7,3.5l-1,3.3l-2,2.8l-6.8,5.1
	l-1.4,0.6l-1.7-0.2l-1.7-0.5l-1.4-0.2l-1.9,0.6l-0.9,0.6v-4.4v-2.9l-0.1-1.5l-0.2-0.9l-1-1.4l-2-2.2l-1.6-3.2l-0.6-1.7l-1.3-19.1
	l-0.3-1.4l-0.5-1.1l-0.7-0.8l-0.8-0.4l-2.9-1.5l-0.5-0.2l-1.1-0.1H790h-0.5l-1.7,0.6l-0.8,0.4l-0.5,0.6l-0.2,0.5l-0.1,1.6l-0.1,0.8
	l-0.9,2l-0.5,0.8l-0.6,0.5l-0.9,0.3l-0.5,0.1h-1h-0.6l-1.1-0.8l-6.4-6.3l-1.1-0.8h-1.4l-0.8-0.1l-2.3-0.8l-1.6-0.2l-3-0.9l-1.1-0.1
	l-2.8,0.7h-1l-0.5-0.1l-0.9-0.5l-0.7-0.5l-1.7-0.8l-5.2-3.7l-0.6-0.6l-0.3-0.6l0.4-2.1v-0.6l-0.2-0.9l-1.2-4.5v-0.9l0.9-2.2l0.2-0.4
	l1.2-1.3l0.5-0.8l0.4-0.8v-1.3l-0.2-0.8l-0.4-0.4l-0.4-0.4l-1.6-0.7l-1-0.7l-0.6-0.6l-0.6-0.9l-1.1-2.6l-0.4-0.4l-0.5-0.3l-0.4,0.1
	l-0.4,0.2l-1,1.4l-0.7,0.5l-0.7,0.5l-1.2,0.6l-0.8-0.3l-1.2-0.6l-2.4-1.9l-1-1l-0.6-0.7l-0.1-0.5l0.1-1l0.7-1.8l0.1-0.6v-0.7
	l-0.3-1.1l-0.5-0.7l-0.4-0.4l-0.8-0.5l-2.2-1l-1.1-0.7l-0.6-0.5l-0.3-0.4l-0.3-0.9l-0.1-1v-1l0.2-0.9l0.9-1.8l0.2-1l0.1-3.9V358
	l-0.2-0.7l-0.4-0.9l-0.5-0.5l-0.5-0.3l-0.9-0.1l-1,0.1l-0.9,0.3h-0.5h-0.6l-0.8-0.4l-0.4-0.5l-0.5-0.6l-0.5-0.9l-0.8-0.7l-0.5-0.1
	h-1.1l-1.4,0.2h-0.6l-0.8-0.2L715,352l-0.8-0.4l-0.7-0.2H712l-0.9-0.3l-1.2-0.7l-0.4-0.2l-2.1-0.3l-0.9-0.4l-1.2-0.7l-1.4-0.5
	l-1.2-0.7l-0.5-0.1l-1-0.2l-1.9-0.7l-0.5-0.5l-0.8-1.5l-0.4-0.5l-0.6-0.2l-1-0.2l-0.7-0.2l-0.8-0.4l-1.2-0.8l-0.6-0.5l-0.6-0.7
	l-0.4-0.7l-1.2-1.7l-0.3-0.6l-0.3-0.9l-0.1-1.5l-0.2-0.9l-1.6-2.9l-1.5-1.9l-0.7-0.7l-0.6-0.4h-0.4l-2,0.3l-1.8,0.4l-6.9,2.9
	l-0.7,0.6l-0.2,0.3l-0.4,0.9l-0.4,4.5l-0.3,1l-0.4,0.8l-0.7,1.1l-0.3,0.3l-0.7,0.5l-1.7,0.3v-0.3l0.6-0.5l0.6-0.9l0.3-0.6l-0.4-0.8
	l0.1-1.1l0.3-1.2v-1l-0.6-1.1l-1.7-1.9l-0.7-1.2l-0.3-1.5l0.3-3.9l-0.6-2.9l-0.1-1.6l0.5-1.3l0.9-0.9l2.2-0.3l0.5-0.2l36.2-5.9
	l1.4-0.6l1.1-1.1l14.7-18.9l0.1-0.5l-0.5-0.7l-0.2-1l0.1-1l0.7-1.9l0.1-0.5v-0.9l0.1-0.7l0.3-0.5l2.5-0.9l3.2-2.6l0.9-1.8l0.6-2
	l0.8-1.6l1.5-0.6l1.1-0.2l0.7-0.4l0.5-0.6l0.4-0.8l0.5-1.7l0.5-0.9l0.7-0.8l0.8-0.4l1,0.1l1.9,0.3l0.5-0.3l0.9-1.1l0.4-0.3l2-1.8
	l0.5-0.8l0.7-2.2l1.9-3.7l6.9-8.8l1.6-3l0.2-0.9l0.4-1l0.8-0.8l0.8-0.3l1,1.2l1.2,0.2l0.4-0.8l-1.7-1.8l1.3-0.1l1-0.4l0.9-0.5
	l0.6-0.2l0.9-0.1l2.4-0.9l0.8-0.4l0.7-2l0.8-2.8l1.1-2.1h1.7l-0.9,1l0.8,1l1.5,0.5l1.3-0.4l0.1-2.1l0.4-0.8l0.9,0.8l0.5,0.9l0.1,1
	l-0.3,0.8l-0.8,0.9h1.9l1.3-0.6l3.8-3.3l0.2-1.1l0.5-0.6l0.6-0.5l0.4-0.5l0.5-1.1l-0.3-0.5l-1.8-1.9l-0.4-0.8l0.1-0.9l0.7-0.8
	l3.1,0.1l1.4-0.6l-0.4-1.9l-0.6-0.5h-0.7l-0.6,0.3l-0.7,0.2l-1-0.1l-0.3-0.3l-0.2-0.6l-0.5-0.7l-1.1-1.1l-0.2-0.6l3.8-2.8l1.2-0.6
	l1.6-0.3l1.4,0.1l1.8,0.3l1.6,0.6l1,0.8l0.6-0.7l1.7-1l0.6-0.7l0.3-0.9l-0.3-3.5l0.2-0.6l0.6-0.3h1.3l0.4-0.2l-0.1-0.6l-0.6-0.7
	l0.4-0.9l0.9-0.3l2.2-0.3l1.6-0.5l2.9-1.6l1.1-0.3l0.5-0.3l0.7-1.6l0.8-0.5l1,0.2l0.6,0.6l0.4,0.7l0.4,0.3l5.5-1.1l-0.3-21.7
	l-2.9-2.9l-8.5-3.6l-6.5-4.4l-2.8-10.2l-3.6-9.4l-6.5-10.9l-6.4-6.6l5.7-7.2l2.2-5.1l4.3-2.2l5-4.3l4.3-2.9l5.7,3.6l6.4-0.5l5.7,2.7
	l2.2-5.8l6.4,2.1l6.5-0.7l5.7-3.6l7.1-3.6l10.1-1.5l8.5,0.7l8.6,2.2l9.3,0.7l-0.7-8.7l-4.3-9.4l-3.3-10.3l1.8,0.2l11.1-0.2l3.5,0.9
	l3.1,2.1l0.9,1.2l1.6,3.9l1.3,1.9l1.1,0.8l3.2,0.2l7.4,1.6L917,93l1.1,0.5l1.1,1.3l0.4,0.7l0.2,1.3l0.5,0.6l0.7,0.3l1.4-0.2l0.7,0.1
	l3.9,2.7l6.4,2.4l1.3,0.8l0.2,5.1l0.4,1.2l0.8,0.7l0.6-0.2l0.5-0.4l1-0.1l0.6,0.4l1.2,1.1l0.8,0.4v2.3l-1.5,6.3l1,2.3l1.2,0.4
	l0.9-0.4l1-0.7l1.1-0.3l1,0.5l0.3,0.9l0.2,1.1l0.4,0.8l1.9,0.7l0.8-1.6l0.3-2.6l0.5-2.2l1.9,0.9l4.6,0.3l1.7,1.2l1.3,2.2l0.4,1.1
	l0.1,1.3l-0.3,1l-0.4,0.7l-0.3,0.8l0.3,1.3l0.8,1.2l2.1,1.3l0.9,1l1.3,2.4l0.7,1l1,0.9l1.1,0.6l3.1,1.2l0.6,0.6l1.3,3.5l0.6,2.4
	l-0.6,1.8l-2.6,4l-1.6,4.1l-0.4,2.1l-0.1,2.3l1.2,1.6l6.9,3.1l1.8,1.5l1.4,1.5l1.6,1.3l2.2,0.8l1.6,2.1l1.7,1.2l1.2,1.4l0.2,2.7
	l-0.6,4.9l0.3,2.1l2.3,5.3l0.7,1.1l2.4,2.1l0.6,0.7l1.7,3.9l1.3,1.6l2.4,0.3v2.2l0.6,1.6l0.1,1.5l-1.4,2.2l-1.3,1.2l-3.4,2.4
	l-1.1,0.5l-1.1,0.7l-4.2,4.7l-1.3,3.5l-1,1.5l-1.7,1.1l-1.3,0.3l-1.6,1.5l-1.1,0.5h-1.3l-2.8-0.6l-1.2,0.2l-1.2,0.5l-2.2,0.4
	l-1.1,0.4l-1,0.9l-1.6,2.5l-1.3,0.7h-1l-0.9-0.2l-0.8,0.2l-0.8,1.6l-0.1,1.2l0.7,0.5h1.1l1.2-0.2l1.2,1.1l0.6,2.7l0.6,5.2l0.8,2.6
	l1.2,2.4l1.6,2.2l1.9,1.9l2.7,4.9l-0.7,2.6l-1.2,2.4l-6,9.3l-0.1,0.6l0.3,0.9l-0.1,0.6l-0.5,0.4l-1.3,0.5l-0.4,0.5l-0.1,1.2l0.1,1.2
	v1.1l-0.7,1.2l-2.2-1.8l-0.8,1.2l0.4,7.4l-0.1,1.1l-0.5,1.6l-1.3,2.7l0.3,0.7l1.4,0.5l1.4,0.1l1.5-0.2l1.4,0.2l1.2,1.3l0.5,1.4
	L967.5,297.8L967.5,297.8z"/>
<polygon class="st10" points="584.3,242.6 584.3,242.6 584.3,242.6 584.3,242.6 "/>
<polygon class="st10" points="672.4,508 672.4,508 672.4,508 672.4,508 "/>
<polygon class="st10" points="900.2,477.8 900.2,477.8 900.2,477.8 900.2,477.8 "/>
</svg>
